<svg id="f7ded70a-eb8d-4da9-b86b-8adff6315f00" data-name="Layer 2" xmlns="http://www.w3.org/2000/svg" viewBox="0 0 347.19 346.83"><defs><style>.b23b00c6-dc00-4657-9d7d-e47be653a509{fill:#fff;}.b7ac9dd1-422a-43d7-9ef8-8d008338d4a9{fill:#e41e26;}.eff62bf3-26ca-4a05-be05-68eac5d0b006{fill:#009849;}.b3cc8134-69e1-430d-8d20-34b276f19a74{fill:#fced17;}.ad66cd61-e3e4-47b3-899e-07953d6002ca{fill:#2b9cd7;}.a9618f99-821e-4b00-9fc4-f7c0f74f2093,.b5116197-4417-4e2b-a13e-d93e61937c05,.ba05272e-3eed-4e80-8fca-5c705a056954{fill-rule:evenodd;}.b648d8ae-24c4-49a4-bce7-bbbe09380296{fill:#4b4539;}.b5116197-4417-4e2b-a13e-d93e61937c05{fill:#e6ee9c;}.ba05272e-3eed-4e80-8fca-5c705a056954{fill:#adb277;}</style></defs><title>addGameIcon</title><rect x="36.45" y="0.12" width="40.82" height="40.82"/><rect class="b23b00c6-dc00-4657-9d7d-e47be653a509" x="38.64" y="2.31" width="36.45" height="36.45"/><rect x="73.02" y="0.12" width="40.82" height="40.82"/><rect class="b7ac9dd1-422a-43d7-9ef8-8d008338d4a9" x="75.08" y="2.31" width="36.57" height="36.45"/><rect x="109.47" y="0.12" width="40.82" height="40.82"/><rect class="eff62bf3-26ca-4a05-be05-68eac5d0b006" x="111.65" y="2.31" width="36.45" height="36.45"/><rect x="145.91" y="0.12" width="40.82" height="40.82"/><rect class="b3cc8134-69e1-430d-8d20-34b276f19a74" x="148.1" y="2.31" width="36.57" height="36.45"/><rect x="182.48" y="0.12" width="40.82" height="40.82"/><rect class="b7ac9dd1-422a-43d7-9ef8-8d008338d4a9" x="184.67" y="2.31" width="36.45" height="36.45"/><rect x="218.93" y="0.12" width="40.82" height="40.82"/><rect class="b23b00c6-dc00-4657-9d7d-e47be653a509" x="221.12" y="2.31" width="36.45" height="36.45"/><rect x="36.33" y="35.96" width="223.55" height="223.55"/><rect class="b23b00c6-dc00-4657-9d7d-e47be653a509" x="38.64" y="38.27" width="218.93" height="218.93"/><rect y="0.12" width="40.82" height="40.82"/><rect class="b23b00c6-dc00-4657-9d7d-e47be653a509" x="2.19" y="2.31" width="36.45" height="36.45"/><rect x="255.26" width="41.06" height="41.06"/><rect class="b23b00c6-dc00-4657-9d7d-e47be653a509" x="257.57" y="2.31" width="36.57" height="36.45"/><rect x="36.45" y="255.01" width="40.82" height="40.82"/><rect class="eff62bf3-26ca-4a05-be05-68eac5d0b006" x="38.64" y="257.2" width="36.45" height="36.45"/><rect x="73.02" y="255.01" width="40.82" height="40.82"/><rect class="b23b00c6-dc00-4657-9d7d-e47be653a509" x="75.08" y="257.2" width="36.57" height="36.45"/><rect x="109.47" y="255.01" width="40.82" height="40.82"/><rect class="b7ac9dd1-422a-43d7-9ef8-8d008338d4a9" x="111.65" y="257.2" width="36.45" height="36.45"/><rect x="145.91" y="255.01" width="40.82" height="40.82"/><rect class="b3cc8134-69e1-430d-8d20-34b276f19a74" x="148.1" y="257.2" width="36.57" height="36.45"/><rect x="182.48" y="255.01" width="40.82" height="40.82"/><rect class="b23b00c6-dc00-4657-9d7d-e47be653a509" x="184.67" y="257.2" width="36.45" height="36.45"/><rect x="218.93" y="255.01" width="40.82" height="40.82"/><rect class="ad66cd61-e3e4-47b3-899e-07953d6002ca" x="221.12" y="257.2" width="36.45" height="36.45"/><polyline class="a9618f99-821e-4b00-9fc4-f7c0f74f2093" points="0 295.84 0 255.01 40.82 255.01 40.82 295.84 0 295.84"/><rect class="b23b00c6-dc00-4657-9d7d-e47be653a509" x="2.19" y="257.2" width="36.45" height="36.45"/><rect x="255.26" y="254.89" width="41.06" height="41.06"/><rect class="b23b00c6-dc00-4657-9d7d-e47be653a509" x="257.57" y="257.2" width="36.57" height="36.45"/><rect y="218.57" width="40.82" height="40.82"/><rect class="b3cc8134-69e1-430d-8d20-34b276f19a74" x="2.19" y="220.75" width="36.45" height="36.45"/><rect y="182.12" width="40.82" height="40.7"/><rect class="b7ac9dd1-422a-43d7-9ef8-8d008338d4a9" x="2.19" y="184.18" width="36.45" height="36.57"/><rect y="145.55" width="40.82" height="40.82"/><rect class="b23b00c6-dc00-4657-9d7d-e47be653a509" x="2.19" y="147.74" width="36.45" height="36.45"/><rect y="109.1" width="40.82" height="40.82"/><rect class="ad66cd61-e3e4-47b3-899e-07953d6002ca" x="2.19" y="111.29" width="36.45" height="36.45"/><rect y="72.65" width="40.82" height="40.7"/><rect class="eff62bf3-26ca-4a05-be05-68eac5d0b006" x="2.19" y="74.72" width="36.45" height="36.57"/><rect y="36.08" width="40.82" height="40.82"/><rect class="b7ac9dd1-422a-43d7-9ef8-8d008338d4a9" x="2.19" y="38.27" width="36.45" height="36.45"/><rect x="255.5" y="218.57" width="40.7" height="40.82"/><rect class="ad66cd61-e3e4-47b3-899e-07953d6002ca" x="257.57" y="220.75" width="36.57" height="36.45"/><rect x="255.5" y="182.12" width="40.7" height="40.7"/><rect class="b23b00c6-dc00-4657-9d7d-e47be653a509" x="257.57" y="184.18" width="36.57" height="36.57"/><rect x="255.5" y="145.55" width="40.7" height="40.82"/><rect class="b7ac9dd1-422a-43d7-9ef8-8d008338d4a9" x="257.57" y="147.74" width="36.57" height="36.45"/><rect x="255.5" y="109.1" width="40.7" height="40.82"/><rect class="b23b00c6-dc00-4657-9d7d-e47be653a509" x="257.57" y="111.29" width="36.57" height="36.45"/><rect x="255.5" y="72.65" width="40.7" height="40.7"/><rect class="eff62bf3-26ca-4a05-be05-68eac5d0b006" x="257.57" y="74.72" width="36.57" height="36.57"/><rect x="255.5" y="36.08" width="40.7" height="40.82"/><rect class="ad66cd61-e3e4-47b3-899e-07953d6002ca" x="257.57" y="38.27" width="36.57" height="36.45"/><path class="a9618f99-821e-4b00-9fc4-f7c0f74f2093" d="M199.77,160.51,221,181.77a6.16,6.16,0,0,1,0,8.75l-36.57,36.69a6.31,6.31,0,0,1-8.87,0L154.33,206a6.31,6.31,0,0,1,0-8.87L191,160.51a6.16,6.16,0,0,1,8.75,0Zm-1.94,1.82,21.38,21.39a3.59,3.59,0,0,1,0,5l-36.69,36.57a3.39,3.39,0,0,1-5,0L156.28,204a3.39,3.39,0,0,1,0-5l36.57-36.69a3.61,3.61,0,0,1,5,0Z" transform="translate(-97.84 -102.44)"/><path class="a9618f99-821e-4b00-9fc4-f7c0f74f2093" d="M316.28,273.13l21.39,21.27a6.3,6.3,0,0,1,0,8.86L301,339.83a6.29,6.29,0,0,1-8.87,0l-21.26-21.26a6.16,6.16,0,0,1,0-8.75l36.69-36.69a6.15,6.15,0,0,1,8.74,0Zm-1.82,1.95,21.26,21.26a3.59,3.59,0,0,1,0,5L299,338a3.59,3.59,0,0,1-5,0l-21.26-21.26a3.59,3.59,0,0,1,0-5l36.69-36.69a3.38,3.38,0,0,1,5,0Z" transform="translate(-97.84 -102.44)"/><path class="b7ac9dd1-422a-43d7-9ef8-8d008338d4a9" d="M193.45,305.82c.13.24.37.36.49.73l.36.72.37.37c0,.12.12.24.24.36a12.24,12.24,0,0,1,1.34,2.07c.48.73,1,1.33,1.46,2.06a.94.94,0,0,0,.24.49,3,3,0,0,0,.61.73c.24.24.48.61.73.85a3.65,3.65,0,0,1,.48,1,1.7,1.7,0,0,1,0,1.09,2.42,2.42,0,0,1-.85,1.22c-.24.24-.48.49-.73.73a5.41,5.41,0,0,1-.85.73,3.05,3.05,0,0,1-.85.48,1.57,1.57,0,0,1-1.09,0,1.75,1.75,0,0,1-.73-.24c-.24-.24-.49-.36-.61-.49l-1.34-1a17.55,17.55,0,0,0-2.06-1.21,17.76,17.76,0,0,1-1.94-1.34c-.13,0-.25-.12-.37-.24s-.12-.24-.36-.24a.64.64,0,0,0-.49-.25c-.12-.12-.36-.12-.49-.24a2,2,0,0,1-.48-.37c-.36-.12-.61-.36-1-.48l-.37-.37a3.45,3.45,0,0,1-.73-.6,2.92,2.92,0,0,1-.6-.49,2.66,2.66,0,0,0-1-.49c-.24-.12-.6-.24-.85-.36l-.48-.48-.37-.37c-.12,0-.24,0-.24-.12a.44.44,0,0,0-.36.12v.37a.44.44,0,0,0,.12.36,1.2,1.2,0,0,0,.6.48c.25.25.49.37.73.61a8,8,0,0,1,1.1,1,11,11,0,0,1,1.21,1.1,4.94,4.94,0,0,1,.73.85,5.24,5.24,0,0,1,.85.85c.85.85,1.82,1.7,2.67,2.43s1.95,1.58,2.92,2.31a2.51,2.51,0,0,0,.61.36c.12.12.36.24.48.37a1.27,1.27,0,0,1,.37.85,1,1,0,0,1-.12.85,2.16,2.16,0,0,1-.49.85c-.24.36-.36.61-.61.73l-.6.6c-.37.25-.61.49-1,.73s-.6.37-1,.49a1,1,0,0,1-.85,0l-.12-.12L188,326l-1.82-1.82-1.83-1.82c-.12-.24-.36-.49-.48-.73l-.61-.61a4.65,4.65,0,0,0-1.46-1.09,12.1,12.1,0,0,1-1.46-1.22,2.51,2.51,0,0,1-.48-.72c-.25-.25-.37-.49-.61-.61a.94.94,0,0,0-.49-.49c-.24-.24-.48-.36-.6-.48a11.19,11.19,0,0,1-1.22-1.1,4.77,4.77,0,0,1-1.21-1.09l-.61-.61a2.5,2.5,0,0,1-.49-.61l-1.09-1.09c-.36-.49-.73-.85-1-1.21,0-.12-.12-.37,0-.49a1.12,1.12,0,0,1,.12-.61.62.62,0,0,1,.24-.48.61.61,0,0,1,.25-.49c.24-.24.72-.61,1.21-1.09l1.46-1.46a17.67,17.67,0,0,0,1.58-1.22,3.58,3.58,0,0,1,1.33-.85,1,1,0,0,1,1,.13,3.2,3.2,0,0,1,.85.48,3.25,3.25,0,0,1,.72.61l.73.73a8,8,0,0,0,1,.48,6.37,6.37,0,0,0,1,.49.64.64,0,0,0,.36.48c.12.25.37.37.49.49.73.37,1.46.73,2.06,1.1s1.34.84,2,1.33c.24.25.6.49,1,.85a6.15,6.15,0,0,1,1,.85l1.09.73a12.84,12.84,0,0,0,1.22.49v-.61a3.13,3.13,0,0,1-.37-.61c-.12-.24-.36-.48-.48-.73s-.24-.36-.37-.36a2.55,2.55,0,0,0-.48-.73c-.12-.24-.24-.49-.37-.73a42.78,42.78,0,0,0-1-1.21.64.64,0,0,1-.24-.49.94.94,0,0,1-.24-.49c-.13-.12-.37-.24-.49-.48a1,1,0,0,1-.49-.49.64.64,0,0,1-.36-.48.79.79,0,0,1,0-.73c-.24-.12-.37-.12-.49-.25l-.36-.36a8.3,8.3,0,0,1-1.21-1.7c-.25-.61-.61-1.22-.86-1.7a2.42,2.42,0,0,0-.48-.73,2.71,2.71,0,0,1-.37-.61,1.33,1.33,0,0,1,0-1.34,2.59,2.59,0,0,1,.73-1.21,5.68,5.68,0,0,0,.85-1,3.17,3.17,0,0,0,.85-1,2.13,2.13,0,0,0,1-.61,5.78,5.78,0,0,1,.86-.85,2.15,2.15,0,0,1,.85-.73,1.24,1.24,0,0,1,1.09-.24.44.44,0,0,1,.36.12,1.59,1.59,0,0,1,.49.36,4.83,4.83,0,0,1,1,1.22l1.1,1.09.36.37.36.36a7.3,7.3,0,0,1,.86,1.09,3.45,3.45,0,0,1,.6.73l.49.49.36.36.49.49c.24.12.36.36.61.48a2.49,2.49,0,0,0,.48.61c.25.24.25.37.37.49s.24.12.48.24a1.45,1.45,0,0,1,.49.37l.73.72a2.29,2.29,0,0,0,.61.49c.12.12.36.24.6.49s.37.24.61.48.24.37.37.61a2.7,2.7,0,0,0,.48.61,13,13,0,0,0,1.46,1.21,8.13,8.13,0,0,1,1.46,1.09,2.8,2.8,0,0,1,.6.86,1.92,1.92,0,0,1,.13.85,1.73,1.73,0,0,1-.25.72c-.12.37-.24.61-.36,1l-1.1,1.09a2.49,2.49,0,0,1-1.21.73,1.19,1.19,0,0,1-1.09.12,3,3,0,0,1-1.46-.85,6.8,6.8,0,0,1-.73-1,3.31,3.31,0,0,0-.85-1l-5.23-5.71c-.48-.49-1-1.1-1.45-1.58a21.12,21.12,0,0,1-1.46-1.7v-.13h-.12l-.12-.12-.25.12H191c-.24.13-.24.37-.24.61s.12.37.24.49a1.86,1.86,0,0,0,.37.48l.36.37c.12.12.25.36.49.61s.36.6.48.85a1.84,1.84,0,0,1,.49.85,1.7,1.7,0,0,1,.24.73Zm22.48-26.37a24.79,24.79,0,0,1,2.43,2.68,14.52,14.52,0,0,1,2.07,2.91,2.3,2.3,0,0,1,.48,1.1c.12.48.24.84.37,1.33s.12,1,.12,1.46.12.85.24,1.21a2.72,2.72,0,0,1-.12.85,5,5,0,0,1-.12,1.34,4.87,4.87,0,0,1-.25,1.34,8.64,8.64,0,0,1-.24.85,2.51,2.51,0,0,0-.36.61l-.37.72-.36.73a2.5,2.5,0,0,1-.37.61c0,.12-.12.24-.24.37s-.24.24-.24.36l-1.7,1.7c-.13.12-.37.24-.73.49a11,11,0,0,1-1.22.72,5.29,5.29,0,0,1-1.21.61,6.77,6.77,0,0,1-1,.49,7.72,7.72,0,0,1-1.95.48,8.39,8.39,0,0,1-2.55,0,17,17,0,0,1-2.43-.36,9.25,9.25,0,0,1-1.94-.85c-.12-.12-.25-.12-.49-.37s-.61-.36-.85-.48a3.07,3.07,0,0,0-.73-.61,1.88,1.88,0,0,1-.49-.36,3.22,3.22,0,0,1-.6-.73l-.73-.73a20,20,0,0,1-2.19-2.79,11.53,11.53,0,0,1-1.58-3.16c-.12-.12-.12-.25-.12-.49a1.56,1.56,0,0,0-.12-.73v-3.52a13.89,13.89,0,0,1,.36-2.19,6.58,6.58,0,0,1,.73-1.94,8.87,8.87,0,0,1,1.34-1.83,3.12,3.12,0,0,1,.61-.48,7,7,0,0,1,1-.85,4.25,4.25,0,0,1,.85-.73c.36-.24.61-.49.73-.49l.73-.36c.24-.12.6-.24.85-.37s.61-.36.85-.6a7.25,7.25,0,0,1,1-.49h.24a.75.75,0,0,0,.49-.12h.85a4.61,4.61,0,0,1,1.34-.12h1.45a4.61,4.61,0,0,1,1.34.12c.49.12.85.24,1.22.36a8.43,8.43,0,0,1,1,.73,4.6,4.6,0,0,0,1.09.61c0,.12.12.12.36.24a.92.92,0,0,0,.49.25,1.88,1.88,0,0,1,.49.36.37.37,0,0,0,.24.12Zm-4.86,5.35c-.36-.12-.73-.37-1.09-.49s-.73-.36-1.1-.48a3.38,3.38,0,0,0-1.21-.25,4.22,4.22,0,0,0-1.22.12c-.36.13-.85.25-1.21.37a6.27,6.27,0,0,0-1,.73c-.12.24-.37.36-.49.73l-.36.73a3.35,3.35,0,0,0-.49,1.82,4.88,4.88,0,0,0,.85,3.4,7.92,7.92,0,0,0,1.22,1.58,11.58,11.58,0,0,0,1.82,1.46,7.84,7.84,0,0,0,2.19.73,7.38,7.38,0,0,0,2.3,0,5.25,5.25,0,0,0,2.07-1.22,2,2,0,0,0,.49-.85,5.56,5.56,0,0,0,.36-.85,4.18,4.18,0,0,1,.36-1,1.56,1.56,0,0,0,.12-.73,1.36,1.36,0,0,0-.12-.61,1.94,1.94,0,0,0-.36-1c0-.24-.12-.36-.12-.49a1.08,1.08,0,0,0-.12-.6,1.49,1.49,0,0,0-.49-.49,6.15,6.15,0,0,0-.85-1c-.36-.36-.61-.73-1-1.09l-.61-.61Zm29.4-8.75a3.65,3.65,0,0,1-1.58,1.09,2.91,2.91,0,0,1-1.46.13,8.44,8.44,0,0,1-1.57-.25,7.53,7.53,0,0,0-1.83-.24,4.13,4.13,0,0,0-1.45-.73c-.61-.12-1.1-.37-1.71-.49a6.85,6.85,0,0,1-1.45-.48c-.49-.12-1-.37-1.34-.49a1.56,1.56,0,0,0-.73-.12c-.12-.12-.36-.12-.61-.24a9.94,9.94,0,0,1-1.7-.61,13.81,13.81,0,0,1-1.7-.61v-.12c-.12.12-.12.12,0,.24s.12.25.12.37l.37.36a.12.12,0,0,0,.12.13,2.12,2.12,0,0,0,.85.6l.73.73c.61.61,1.21,1.22,1.82,1.82a13.27,13.27,0,0,0,2,1.71c.48.48,1,.84,1.45,1.33a8.18,8.18,0,0,1,1.58,1.34c.49.48.73.85.73,1.21a2.82,2.82,0,0,1-.24,1l-.73.73a2.16,2.16,0,0,0-.49.85l-.48.49a3.52,3.52,0,0,1-.73.61,3.05,3.05,0,0,1-.85.48c-.24.12-.49.25-.73.12s-.24-.12-.49-.24-.36-.24-.48-.36a1.91,1.91,0,0,1-.61-.49l-.36-.36c-.49-.49-1.1-1-1.58-1.46a20.66,20.66,0,0,0-1.58-1.46c-.37-.48-.85-.85-1.22-1.34a12.91,12.91,0,0,0-1.21-1.45c-.37-.25-.73-.61-1.1-.85a3.46,3.46,0,0,1-1-.85c-.61-.61-1.09-1.1-1.7-1.7a18.11,18.11,0,0,0-1.58-1.58c-.12-.13-.24-.25-.37-.25a1.66,1.66,0,0,1-.48-.36,7.57,7.57,0,0,0-.49-.61l-.72-.73c-.25-.24-.49-.36-.61-.61a2.51,2.51,0,0,1-.61-.36c-.12,0-.24-.12-.36-.12s-.25-.12-.25-.25c-.36-.24-.36-.48-.24-1a2.41,2.41,0,0,1,.61-1.09,5.87,5.87,0,0,1,.85-1.09l.73-.73.6-.61c.25-.24.61-.49.85-.73s.73-.48,1-.61a1.31,1.31,0,0,1,.85-.24.9.9,0,0,1,.6.12,1.59,1.59,0,0,1,.73.25,2.06,2.06,0,0,1,.61.24c.24.12.36.12.61.24a13.49,13.49,0,0,1,2.43.61,14.47,14.47,0,0,1,2.43.85c.24,0,.48.12.73.12s.36.12.6.12c.73.24,1.34.37,2.07.61a8.48,8.48,0,0,1,1.94.61,6.58,6.58,0,0,0,.85.36,2.75,2.75,0,0,0,.73.49h.13l.24-.25c-.61-.6-1.22-1.09-1.95-1.7a22.09,22.09,0,0,1-1.94-1.58c-.85-.6-1.58-1.21-2.31-1.82s-1.46-1.33-2.19-2.06a8.91,8.91,0,0,1-1.09-1.22,1.32,1.32,0,0,1-.36-.85.79.79,0,0,1,.24-.85c.24-.36.49-.73,1-1.34.12,0,.24-.24.37-.36s.24-.37.48-.49.24-.36.37-.6a.76.76,0,0,0,.12-.49,2.09,2.09,0,0,1,2.79.36l3.28,3.16c.12.25.25.37.37.61a1.72,1.72,0,0,0,.36.49,3.45,3.45,0,0,0,.73.6c.24.25.49.37.61.61a3.6,3.6,0,0,1,.85,1,7.51,7.51,0,0,0,1,1l.73.73.73.72a3,3,0,0,1,.36.61,1.62,1.62,0,0,1,.49.49c.24.12.48.36.73.48s.36.37.61.49c.24.36.6.61.85,1a6.71,6.71,0,0,1,.85,1c.12,0,.36.25.6.49s.49.48.73.73l.73.73.37.36a1.19,1.19,0,0,1,.12,1.09c-.12.37-.37.73-.49,1.1l-.36.36c-.12.12-.25.37-.49.49s-.36.36-.48.6-.25.25-.25.37Zm11.67-32.68c.72.85,1.57,1.7,2.43,2.67s1.45,2,2.06,2.92a6.09,6.09,0,0,1,.37,1.09c.12.37.24.85.36,1.34s.12,1,.24,1.46a3,3,0,0,0,.12,1.09v1c-.12.36-.12.85-.24,1.34a3.61,3.61,0,0,1-.24,1.21,1.87,1.87,0,0,1-.24,1,2,2,0,0,1-.25.61l-.36.73a2.4,2.4,0,0,0-.49.73c-.12.24-.24.36-.36.61s-.12.24-.25.36-.12.24-.24.37l-1.7,1.58a4.31,4.31,0,0,1-.73.6,9.42,9.42,0,0,1-1.21.73,5.35,5.35,0,0,1-1.22.61c-.36.24-.73.36-.85.49a8.66,8.66,0,0,1-2.07.48h-2.55a22.54,22.54,0,0,1-2.43-.48,6.83,6.83,0,0,1-1.82-.73,2.5,2.5,0,0,0-.61-.37,5.37,5.37,0,0,0-.85-.61c-.24-.12-.48-.36-.72-.48s-.37-.37-.49-.37c-.24-.24-.37-.48-.61-.72a4.77,4.77,0,0,0-.61-.86,14.78,14.78,0,0,1-2.3-2.67,18.26,18.26,0,0,1-1.58-3.16c0-.12-.12-.24-.12-.48v-.85a1.47,1.47,0,0,1-.13-.73v-2.68c.13-.72.25-1.45.37-2.18a8.85,8.85,0,0,1,.73-2,10.13,10.13,0,0,1,1.33-1.82c.12-.12.37-.24.61-.48a3.34,3.34,0,0,1,1-.86,7.28,7.28,0,0,1,1-.85,1.15,1.15,0,0,1,.61-.36l.73-.36a6.65,6.65,0,0,0,.85-.37,4.34,4.34,0,0,0,.85-.61,2.52,2.52,0,0,1,1-.48h.25a.91.91,0,0,1,.48-.12h1a3.46,3.46,0,0,1,1.21-.13,3,3,0,0,1,1.46,0,5.48,5.48,0,0,1,1.45.13,11,11,0,0,1,1.1.36c.36.24.73.36,1.09.61a8.43,8.43,0,0,0,1,.73c.13,0,.25.12.37.24s.36.12.48.24a1.59,1.59,0,0,1,.49.37c.24,0,.24.12.37.12Zm-5,5.34a4.32,4.32,0,0,0-1.09-.48,4.37,4.37,0,0,0-1.09-.49,3.67,3.67,0,0,0-1.22-.24,4.57,4.57,0,0,0-1.21.12,2.66,2.66,0,0,0-1.22.37c-.36.24-.6.48-1,.72a6.13,6.13,0,0,1-.49.61,1.93,1.93,0,0,1-.36.73A6.63,6.63,0,0,0,239,252a7,7,0,0,0,.13,1.7,4.35,4.35,0,0,0,.72,1.7,4.77,4.77,0,0,0,1.22,1.45,7.28,7.28,0,0,0,1.94,1.46,4.34,4.34,0,0,0,2.19.85,4.53,4.53,0,0,0,2.19-.12,3.79,3.79,0,0,0,2.06-1.09,2,2,0,0,0,.49-.85c.12-.25.24-.61.36-.85.25-.49.37-.85.49-1.1s.12-.36.12-.6a5.45,5.45,0,0,1-.12-.61c-.12-.24-.24-.61-.37-1s-.12-.37-.24-.61a.76.76,0,0,0-.12-.49c0-.12-.12-.24-.36-.48a3.62,3.62,0,0,0-1-1c-.24-.37-.6-.73-.85-1.1a4.18,4.18,0,0,1-.73-.61Z" transform="translate(-97.84 -102.44)"/><path class="b7ac9dd1-422a-43d7-9ef8-8d008338d4a9" d="M267.44,224.78a18.58,18.58,0,0,1,1.58,1.94,8.67,8.67,0,0,1,1.1,2.07,7,7,0,0,1,.36,2.19,10.08,10.08,0,0,1-.24,2.55.72.72,0,0,0-.12.48c-.13.25-.13.37-.25.61a5.29,5.29,0,0,0-1,1.34,3.36,3.36,0,0,1-1,1.33,13.67,13.67,0,0,1-1.46,1.34,7.57,7.57,0,0,0-1.58,1.22,2.21,2.21,0,0,0-.61,1,.8.8,0,0,0,.25.85l1.21,1.21A11.19,11.19,0,0,1,267,244c.12.12.36.24.48.48s.37.49.61.73a1.24,1.24,0,0,1,.49.61,2,2,0,0,1,.24.61l-.36.73c-.13.24-.25.48-.37.72-.36.37-.61.73-1,1.1s-.61.73-1,1.09a3.06,3.06,0,0,1-1.46.85,1.35,1.35,0,0,1-1.46-.61,10.21,10.21,0,0,1-1.58-1.7c-.61-.6-1.09-1.09-1.7-1.7a1.59,1.59,0,0,0-.49-.36,1.66,1.66,0,0,0-.48-.37c-1-1.09-2.07-2.18-3-3.28s-2.07-2.18-3-3.28c-.12-.12-.36-.12-.48-.24a.64.64,0,0,1-.49-.24c-.24-.25-.48-.49-.73-.73a2.12,2.12,0,0,0-.6-.85c-.37-.25-.73-.61-1.1-.85a6.71,6.71,0,0,1-1-.85,2.93,2.93,0,0,1-.73-1.1,1.55,1.55,0,0,1,0-1.45,3.34,3.34,0,0,1,1-.86,6.81,6.81,0,0,1,.85-.85,9.1,9.1,0,0,0,1.1-1.21c.36-.37.73-.73,1.09-1.09a6.08,6.08,0,0,1,1-.85c.37-.25.73-.61,1.09-.86s.49-.6.74-1,.6-.73.85-1a5.24,5.24,0,0,1,.84-.73,11.71,11.71,0,0,1,1.22-.85c.36-.24.85-.49,1.22-.73s.72-.48,1-.61a15.09,15.09,0,0,1,2.18-.6,5.13,5.13,0,0,1,1.95.36,5.63,5.63,0,0,1,1.94.85c.49.49,1.1,1,1.7,1.46Zm-11.66,8.38c.12.13.24.37.48.73s.61.61.86,1l1,1a3.25,3.25,0,0,1,.61.72,2.09,2.09,0,0,0,1.09.49c.36.12.73-.12,1.09-.49a3,3,0,0,0,.61-.72,4.37,4.37,0,0,0,.61-1c.12-.12.36-.24.61-.48s.36-.49.6-.73a1.89,1.89,0,0,0,.49-.85c.12-.24.24-.49.12-.61a8.28,8.28,0,0,0-.49-1.33l-.72-1.1a4.1,4.1,0,0,0-1.22-.61,1.77,1.77,0,0,0-1.34.25L258,231.22c-.73.61-1.46,1.21-2.19,1.94Zm32.07-25.51c.86.85,1.58,1.7,2.44,2.67s1.45,2,2.06,2.92a5.72,5.72,0,0,1,.36,1.09,4.12,4.12,0,0,1,.37,1.34c.12.48.12,1,.24,1.33s.12.86.12,1.22v1a4.64,4.64,0,0,0-.12,1.34,4.33,4.33,0,0,0-.24,1.21,1.73,1.73,0,0,1-.37.85,1.7,1.7,0,0,1-.24.73l-.36.73-.37.73a1.56,1.56,0,0,0-.36.61c-.12.12-.12.24-.25.36l-.36.37-1.58,1.58a4.31,4.31,0,0,1-.73.6,6.25,6.25,0,0,0-1.21.61c-.49.24-.85.49-1.34.73s-.73.36-.85.49a9.11,9.11,0,0,1-2.07.36,16.42,16.42,0,0,1-2.43.12,14.52,14.52,0,0,1-2.43-.48,12.41,12.41,0,0,1-1.94-.73,2.5,2.5,0,0,0-.61-.37,4.8,4.8,0,0,0-.85-.6,2.28,2.28,0,0,0-.73-.49l-.36-.37a4.94,4.94,0,0,1-.73-.85,3.23,3.23,0,0,0-.61-.73,15.27,15.27,0,0,1-2.31-2.67,19,19,0,0,1-1.57-3.16,1.22,1.22,0,0,0-.13-.6v-.73a1.54,1.54,0,0,0-.12-.73v-.49a14.15,14.15,0,0,1,.12-2.31,12.07,12.07,0,0,1,.25-2.06c.24-.73.48-1.34.73-2.07a9.6,9.6,0,0,1,1.33-1.7,2.58,2.58,0,0,0,.61-.61c.36-.24.61-.48,1-.72a6.73,6.73,0,0,1,1-.86c.25-.24.49-.36.61-.48a7.34,7.34,0,0,1,.85-.37l.73-.36a1.84,1.84,0,0,0,.85-.49,3.65,3.65,0,0,1,1-.48c.13,0,.13-.12.37-.12h1c.12,0,.24-.13.36-.13a4.64,4.64,0,0,0,1.22-.12h1.46c.48.12,1,.12,1.45.25a1.5,1.5,0,0,1,1.1.36,5,5,0,0,1,1.09.61,7.64,7.64,0,0,0,1,.73c.13,0,.25.12.37.24s.36.12.6.24a.67.67,0,0,0,.49.25l.24.24ZM283,212.87c-.48-.12-.85-.24-1.21-.36a2.3,2.3,0,0,0-1.09-.49,1.84,1.84,0,0,0-1.1-.24,4.94,4.94,0,0,0-1.33,0,4.09,4.09,0,0,0-1.1.49,2.14,2.14,0,0,0-1.09.73c-.12.12-.24.36-.49.6l-.36.73a11.44,11.44,0,0,0-.49,1.82,8.68,8.68,0,0,0,.13,1.83c.24.6.48,1.21.72,1.7a14.09,14.09,0,0,0,1.22,1.46,7.45,7.45,0,0,0,1.94,1.45,7.93,7.93,0,0,0,2.19.85,5.1,5.1,0,0,0,2.31-.12,3.78,3.78,0,0,0,1.94-1.21,1.82,1.82,0,0,0,.61-.73c.12-.24.24-.61.36-.85a6.09,6.09,0,0,1,.37-1.09,5,5,0,0,1,.12-.61,1.1,1.1,0,0,0-.12-.61,6.25,6.25,0,0,1-.37-1.1.72.72,0,0,1-.12-.48.74.74,0,0,1-.12-.49,3.66,3.66,0,0,1-.49-.6,7.88,7.88,0,0,1-.85-1,7.4,7.4,0,0,1-1-1c-.36-.36-.48-.6-.61-.73Zm26-5.71h0l-.37.37-1.7,1.46c-.12,0-.12.12-.24.24a.27.27,0,0,0-.25.24c-.24.24-.48.37-.61.61a1.62,1.62,0,0,0-.36.85,7.92,7.92,0,0,0-1,1.09l-1,1a10,10,0,0,1-1.7,1.57,2,2,0,0,1-1.22.49,2.84,2.84,0,0,1-1.34-.36,10.16,10.16,0,0,1-1.7-1.58,4.26,4.26,0,0,1-.6-.73,2.23,2.23,0,0,0-.49-.61c-.36-.24-.61-.61-1-.85s-.73-.61-1-.85c-.49-.49-.85-1-1.34-1.46a13.94,13.94,0,0,0-1.21-1.46,7.41,7.41,0,0,0-1.1-.85,6.22,6.22,0,0,1-1.09-.85,4.53,4.53,0,0,1-.73-.85,5.83,5.83,0,0,0-.73-.85l-.61-.61-1.09-1.09a4.82,4.82,0,0,0-1.22-1.09c-.24-.25-.48-.37-.72-.61a2.28,2.28,0,0,1-.73-.49,1.41,1.41,0,0,1-.49-1,6.86,6.86,0,0,1,.37-1c.24-.36.48-.61.72-1s.25-.49.37-.73.6-.49,1-.73a3,3,0,0,1,1.09-.73,1.84,1.84,0,0,1,1.1-.24,1.66,1.66,0,0,1,1.21.61,1.22,1.22,0,0,1,.49.6,2.57,2.57,0,0,1,.49.61c.24.25.48.37.72.61s.37.36.61.61.37.48.61.72.36.49.61.61a2,2,0,0,0,.6.49,1.18,1.18,0,0,1,.61.48,2.29,2.29,0,0,1,.61.85,2.59,2.59,0,0,0,.61,1,2.12,2.12,0,0,0,.85.6c.24.25.6.49.85.73a1.59,1.59,0,0,1,.36.49,1.69,1.69,0,0,0,.37.49,2.62,2.62,0,0,0,.6.36,2.72,2.72,0,0,0,.61.36c.12.37.24.61.49.73s.36.49.6.73.25.24.49.12a.76.76,0,0,0,.49-.12c.12-.12.36-.24.48-.36s.24-.12.37-.25a15.42,15.42,0,0,0,1.33-1.57,5.4,5.4,0,0,1,1.22-1.58,3.59,3.59,0,0,1,.73-.73,4.34,4.34,0,0,1,.85-.61c.24-.12.61-.24.85-.37a1.78,1.78,0,0,1,.85.25l.73.85a7.64,7.64,0,0,0,1,.73c.36.12.61.48,1,.72a2.53,2.53,0,0,1,.49,1,3.58,3.58,0,0,1-.25,1.09c-.24.37-.48.61-.73,1a6.07,6.07,0,0,0-.84.85Zm1-33a.91.91,0,0,1,.24.48c0,.25.12.37.12.49a26,26,0,0,0,.24,3.16c.12,1.09.25,2.06.37,3.16a10.42,10.42,0,0,0,.48,1.82,12.56,12.56,0,0,1,.37,1.94,4.64,4.64,0,0,1,.12,1.34,5.54,5.54,0,0,1,.12,1.34l.49.48a2.41,2.41,0,0,0,.73,1c.24.25.48.61.73.86s.36.48.48.48a1.24,1.24,0,0,0,.61.49,2.28,2.28,0,0,1,.61.48l.85.85a7.28,7.28,0,0,1,.85,1,2.28,2.28,0,0,0,.73.49c.24.12.48.36.72.49a1.65,1.65,0,0,1,.61,1.09,3,3,0,0,1-.24,1.1c-.24.36-.49.72-.73,1.09a5.24,5.24,0,0,0-.85.85c-.24.24-.61.48-1,.85a7.87,7.87,0,0,1-1,.61,1.38,1.38,0,0,1-1,0,1.72,1.72,0,0,1-1.09-.61,6.63,6.63,0,0,1-.85-1,3.35,3.35,0,0,0-.85-1,3.22,3.22,0,0,0-.73-.6l-.73-.73c-.24-.25-.48-.49-.73-.73a13.13,13.13,0,0,0-1.58-1.7,4.53,4.53,0,0,0-.85-.73c0-.12-.24-.12-.6-.24a3.44,3.44,0,0,1-1.1-.12h-1.21a2,2,0,0,0-.73-.13l-1.58-.36c-.37-.12-1-.12-1.46-.25a3.56,3.56,0,0,1-1.09-.24,3.62,3.62,0,0,0-1.1-.24,13.42,13.42,0,0,0-2.3-.24,7.44,7.44,0,0,1-2.31-.37.42.42,0,0,0-.25-.12c-.12-.12-.24-.24-.36-.24a2,2,0,0,1-.36-1,1.65,1.65,0,0,1,.36-1,3,3,0,0,1,.61-.72c.24-.13.24-.37.36-.37s.25-.24.49-.61.61-.48,1-.73.73-.6,1-.85.49-.36.61-.36a2.11,2.11,0,0,1,1-.12,8.45,8.45,0,0,1,1.58.24,12.2,12.2,0,0,1,1.82.49,9.28,9.28,0,0,1,1.95.48c.61.12,1.21.37,1.7.49a5.35,5.35,0,0,0,1.21.24v.12l.25-.12c0-.12-.12-.12-.12-.24a4.26,4.26,0,0,0-.74-1.7c-.24-.49-.48-1.1-.72-1.58a5.45,5.45,0,0,1-.12-.61v-.61a5.51,5.51,0,0,1-.49-1.33,2.23,2.23,0,0,1-.24-1.22,2,2,0,0,1,.24-1.21,2.49,2.49,0,0,1,.73-1.22c0-.12.24-.24.6-.6s.61-.61,1-.86a7.35,7.35,0,0,1,1.09-.85,2,2,0,0,1,.49-.36,1.74,1.74,0,0,1,.85-.24c.24-.12.48,0,.73.12Z" transform="translate(-97.84 -102.44)"/><path class="b648d8ae-24c4-49a4-bce7-bbbe09380296" d="M373.63,306.46a71.39,71.39,0,1,1-50.49,20.91,71.18,71.18,0,0,1,50.49-20.91Z" transform="translate(-97.84 -102.44)"/><path class="b5116197-4417-4e2b-a13e-d93e61937c05" d="M379.39,338.48V372.1H413a5.76,5.76,0,0,1,0,11.52H379.39v33.63a5.76,5.76,0,0,1-11.52,0V383.62H334.24a5.76,5.76,0,0,1,0-11.52h33.63V338.48a5.76,5.76,0,0,1,11.52,0ZM373.63,318A59.89,59.89,0,1,0,416,335.52,59.66,59.66,0,0,0,373.63,318Z" transform="translate(-97.84 -102.44)"/><path class="ba05272e-3eed-4e80-8fca-5c705a056954" d="M395.13,327.37a71.18,71.18,0,0,1,20.74,45.49,5.77,5.77,0,0,1,0,10,71.18,71.18,0,0,1-20.74,45.48,72.11,72.11,0,0,1-9.92,8.28,59.9,59.9,0,0,0,0-117.53A72.76,72.76,0,0,1,395.13,327.37Z" transform="translate(-97.84 -102.44)"/></svg>