<svg xmlns="http://www.w3.org/2000/svg" xmlns:xlink="http://www.w3.org/1999/xlink" viewBox="0 0 115.64 115.64"><defs><style>.a{fill:url(#a);}.b{fill:url(#b);}.c{fill:url(#c);}.d{fill:url(#d);}.e{opacity:0.7;fill:url(#e);}.e,.j,.l,.m,.n{isolation:isolate;}.f{fill:url(#f);}.g{fill:url(#g);}.h{fill:url(#h);}.i{fill:url(#i);}.j,.l,.m,.n{opacity:0.8;}.j{fill:url(#j);}.k{fill:#fff;}.l{fill:url(#k);}.m{fill:url(#l);}.n{fill:url(#m);}</style><linearGradient id="a" x1="304.16" y1="127.33" x2="379.97" y2="51.53" gradientTransform="matrix(1, 0, 0, -1, -291.07, 284.47)" gradientUnits="userSpaceOnUse"><stop offset="0" stop-color="#e0bfa4"/><stop offset="0.08" stop-color="#fff"/><stop offset="0.19" stop-color="#c67b4c"/><stop offset="0.26" stop-color="#c2824e"/><stop offset="0.29" stop-color="#bd794c"/><stop offset="0.36" stop-color="#b46849"/><stop offset="0.4" stop-color="#b26443"/><stop offset="0.47" stop-color="#b1603f"/><stop offset="0.56" stop-color="#ba5a32"/><stop offset="0.68" stop-color="#c2713e"/><stop offset="0.71" stop-color="#c06e3b"/><stop offset="0.74" stop-color="#b96434"/><stop offset="0.77" stop-color="#ae5326"/><stop offset="0.79" stop-color="#a14018"/><stop offset="0.82" stop-color="#a64820"/><stop offset="0.87" stop-color="#b35e34"/><stop offset="0.93" stop-color="#c88156"/><stop offset="0.94" stop-color="#ca8459"/></linearGradient><linearGradient id="b" x1="294.25" y1="137.24" x2="390.07" y2="41.43" gradientTransform="matrix(1, 0, 0, -1, -291.07, 284.47)" gradientUnits="userSpaceOnUse"><stop offset="0.15" stop-color="#e0bfa4"/><stop offset="0.21" stop-color="#c67b4c"/><stop offset="0.29" stop-color="#c2824e"/><stop offset="0.31" stop-color="#bd794c"/><stop offset="0.36" stop-color="#b46849"/><stop offset="0.4" stop-color="#b26443"/><stop offset="0.47" stop-color="#b1603f"/><stop offset="0.56" stop-color="#ba5a32"/><stop offset="0.68" stop-color="#c2713e"/><stop offset="0.9" stop-color="#a14018"/><stop offset="0.92" stop-color="#a64820"/><stop offset="0.95" stop-color="#b35e34"/><stop offset="0.99" stop-color="#c88156"/><stop offset="0.99" stop-color="#ca8459"/></linearGradient><linearGradient id="c" x1="315.56" y1="120.19" x2="377.88" y2="48.68" gradientTransform="matrix(1, 0, 0, -1, -291.07, 284.47)" gradientUnits="userSpaceOnUse"><stop offset="0" stop-color="#e0bfa4"/><stop offset="0.06" stop-color="#fff"/><stop offset="0.19" stop-color="#c67b4c"/><stop offset="0.26" stop-color="#c2824e"/><stop offset="0.28" stop-color="#bd794c"/><stop offset="0.32" stop-color="#b46849"/><stop offset="0.39" stop-color="#b1603f"/><stop offset="0.4" stop-color="#b86d4d"/><stop offset="0.44" stop-color="#cd997c"/><stop offset="0.47" stop-color="#dbb599"/><stop offset="0.48" stop-color="#e0bfa4"/><stop offset="0.53" stop-color="#eedccd"/><stop offset="0.58" stop-color="#faf5f1"/><stop offset="0.61" stop-color="#fff"/><stop offset="0.69" stop-color="#ca8459"/><stop offset="0.78" stop-color="#c2713e"/><stop offset="0.86" stop-color="#ad5226"/><stop offset="0.92" stop-color="#a14018"/></linearGradient><radialGradient id="d" cx="353.28" cy="115.38" r="67.47" gradientTransform="matrix(1, 0, 0, -1, -291.07, 284.47)" gradientUnits="userSpaceOnUse"><stop offset="0.38" stop-color="#fff"/><stop offset="0.58" stop-color="#ca8459"/><stop offset="0.76" stop-color="#c2713e"/><stop offset="0.83" stop-color="#bd6a39"/><stop offset="0.92" stop-color="#b0572a"/><stop offset="1" stop-color="#a14018"/></radialGradient><radialGradient id="e" cx="329.34" cy="47.42" r="82.71" gradientTransform="matrix(1, 0, 0, -1, -291.07, 284.47)" gradientUnits="userSpaceOnUse"><stop offset="0.42"/><stop offset="0.46" stop-color="#050302"/><stop offset="0.51" stop-color="#140c07"/><stop offset="0.57" stop-color="#2e1b0f"/><stop offset="0.62" stop-color="#512f1a"/><stop offset="0.69" stop-color="#7e4928"/><stop offset="0.75" stop-color="#b46939"/><stop offset="0.76" stop-color="#c2713e"/><stop offset="0.9" stop-color="#ca8459"/><stop offset="0.98" stop-color="#fff"/></radialGradient><linearGradient id="f" x1="324.1" y1="132.02" x2="363.15" y2="45.3" gradientTransform="matrix(1, 0, 0, -1, -291.07, 284.47)" gradientUnits="userSpaceOnUse"><stop offset="0" stop-color="#c2824e"/><stop offset="0.04" stop-color="#bd794c"/><stop offset="0.14" stop-color="#b46849"/><stop offset="0.17" stop-color="#b26443"/><stop offset="0.22" stop-color="#b1603f"/><stop offset="0.39" stop-color="#ba5a32"/><stop offset="0.66" stop-color="#a14018"/><stop offset="0.88" stop-color="#a14018"/><stop offset="1" stop-color="#fff"/></linearGradient><linearGradient id="g" x1="324.12" y1="132" x2="363.17" y2="45.28" xlink:href="#f"/><linearGradient id="h" x1="301.84" y1="144.51" x2="380.53" y2="38.27" xlink:href="#f"/><linearGradient id="i" x1="365.98" y1="140.93" x2="347.99" y2="97.28" gradientTransform="matrix(1, 0, 0, -1, -291.07, 284.47)" gradientUnits="userSpaceOnUse"><stop offset="0.02" stop-color="#fff"/><stop offset="0.29" stop-color="#ca8459"/><stop offset="0.56" stop-color="#c2713e"/><stop offset="0.57" stop-color="#b46939"/><stop offset="0.61" stop-color="#7e4928"/><stop offset="0.65" stop-color="#512f1a"/><stop offset="0.69" stop-color="#2e1b0f"/><stop offset="0.73" stop-color="#140c07"/><stop offset="0.76" stop-color="#050302"/><stop offset="0.79"/></linearGradient><linearGradient id="j" x1="339.59" y1="54.81" x2="338.73" y2="32.99" gradientTransform="matrix(1, 0, 0, -1, -291.07, 284.47)" gradientUnits="userSpaceOnUse"><stop offset="0" stop-color="#fff"/><stop offset="0.08" stop-color="#e6c4b6"/><stop offset="0.17" stop-color="#cf8b6f"/><stop offset="0.23" stop-color="#c06843"/><stop offset="0.26" stop-color="#ba5a32"/><stop offset="0.66" stop-color="#a14018"/><stop offset="0.69" stop-color="#a44720"/><stop offset="0.74" stop-color="#ad5936"/><stop offset="0.8" stop-color="#bc765a"/><stop offset="0.87" stop-color="#d09f8b"/><stop offset="0.94" stop-color="#e9d3ca"/><stop offset="1" stop-color="#fff"/></linearGradient><linearGradient id="k" x1="347.13" y1="94.34" x2="365.22" y2="134.54" xlink:href="#j"/><linearGradient id="l" x1="417.69" y1="225.36" x2="435.78" y2="265.56" gradientTransform="translate(17.93 -269.87) rotate(58.06)" xlink:href="#j"/><linearGradient id="m" x1="327.16" y1="70.4" x2="303.23" y2="45.7" gradientTransform="matrix(1, -0.07, -0.07, -1, -273.34, 297.51)" xlink:href="#j"/></defs><title>bronzeMedalIcon</title><path class="a" d="M111,197.23a57.82,57.82,0,1,1-57.83-57.81h0A57.83,57.83,0,0,1,111,197.23Z" transform="translate(4.62 -139.42)"/><path class="b" d="M102.31,197.23a49.11,49.11,0,1,1-49.12-49.1h0a49.1,49.1,0,0,1,49.11,49.1Z" transform="translate(4.62 -139.42)"/><path class="c" d="M96.57,197.23A43.36,43.36,0,1,1,53.2,153.87a43.36,43.36,0,0,1,43.37,43.36Z" transform="translate(4.62 -139.42)"/><path class="d" d="M94.85,197.23A41.64,41.64,0,1,1,53.2,155.59,41.64,41.64,0,0,1,94.85,197.23Z" transform="translate(4.62 -139.42)"/><path class="e" d="M94.85,197.23A41.64,41.64,0,1,1,53.2,155.59,41.64,41.64,0,0,1,94.85,197.23Z" transform="translate(4.62 -139.42)"/><path class="f" d="M53.2,148.13a49.11,49.11,0,1,0,49.11,49.12v0a49.1,49.1,0,0,0-49.1-49.1Zm0,97.34a48.24,48.24,0,1,1,48.24-48.24h0A48.28,48.28,0,0,1,53.2,245.47Z" transform="translate(4.62 -139.42)"/><path class="g" d="M53.2,153.87a43.36,43.36,0,1,0,43.36,43.36h0A43.36,43.36,0,0,0,53.2,153.87Zm0,85.86a42.5,42.5,0,1,1,42.5-42.5h0A42.53,42.53,0,0,1,53.2,239.73Z" transform="translate(4.62 -139.42)"/><path class="h" d="M53.2,139.42A57.82,57.82,0,1,0,111,197.25v0A57.81,57.81,0,0,0,53.2,139.42Zm0,114.76a57,57,0,1,1,57-57A56.94,56.94,0,0,1,53.2,254.18Z" transform="translate(4.62 -139.42)"/><path class="i" d="M9.5,173.05a50,50,0,0,1,93.67,24.18,51.65,51.65,0,0,1-.83,9.12l4.56.65,1.71.22A56.3,56.3,0,0,0,4.45,169.1C6.06,170.49,7.75,171.81,9.5,173.05Z" transform="translate(4.62 -139.42)"/><path class="j" d="M92.17,228.46A49.93,49.93,0,0,1,5.25,211.25c-2.4-.85-4.8-1.74-7.18-2.64A56.29,56.29,0,0,0,99.85,228.68Q96,228.64,92.17,228.46Z" transform="translate(4.62 -139.42)"/><path class="k" d="M108.61,207.22c9.07-61.06-72.78-88.72-104.16-38.12C34.6,114.34,121,145.84,108.61,207.22Z" transform="translate(4.62 -139.42)"/><path class="k" d="M108.61,207.22c9.07-61.06-72.78-88.72-104.16-38.12C34.6,114.34,121,145.84,108.61,207.22Z" transform="translate(4.62 -139.42)"/><path class="l" d="M100.49,205.2c7.63-52.72-61.2-76.59-87.59-32.92C38.25,125,110.85,152.21,100.49,205.2Z" transform="translate(4.62 -139.42)"/><path class="k" d="M94.42,203.62c6.68-44.92-53.53-65.27-76.62-28C40,135.3,103.52,158.46,94.42,203.62Z" transform="translate(4.62 -139.42)"/><path class="k" d="M91,238.77C63.92,262,31.85,256,10.61,233c-14.13-15.35-18.39-39.43-7.35-62C-27,225.57,45.61,281.92,91,238.77Z" transform="translate(4.62 -139.42)"/><path class="m" d="M85,233c-40.56,34.53-97.42-11-74.49-56.61C-16.06,223,45.63,270,85,233Z" transform="translate(4.62 -139.42)"/><path class="n" d="M83.34,226.26C51,258.1-.94,221.42,15.56,180.85-3.94,222.48,52.2,260.2,83.34,226.26Z" transform="translate(4.62 -139.42)"/></svg>