<svg xmlns="http://www.w3.org/2000/svg" viewBox="0 0 481.61 271.13"><defs><style>.a{fill:#ffeba8;}.b{fill:#ffd800;}.c{fill:#f7941d;}.d{fill:#ed1c24;}.e{fill:#fdba12;}.f{fill:#f26922;}.g{fill:#ce181e;}</style></defs><title>coronaIcon</title><path class="a" d="M788.52,479.65s42,28.69,4.1,64.55-84,13.33-97.35-27.66,63.53-74.81,63.53-74.81-74.8-1-95.29-67.63c-20.5,66.61-95.3,67.63-95.3,67.63s76.85,33.82,63.53,74.81-59.43,63.53-97.34,27.66,4.09-64.55,4.09-64.55c-40,2.05-115.79-33.82-115.79-33.82L534.4,602.61l-20,15.88,18.45,9.74h261.3l18.44-9.74-20-15.88L904.31,445.83S828.48,481.7,788.52,479.65Z" transform="translate(-422.7 -374.1)"/><path class="b" d="M663.51,391.1V619.61H534.4L422.7,462.83s75.83,35.87,115.79,33.82c0,0-42,28.69-4.09,64.55s84,13.33,97.34-27.66-63.53-74.81-63.53-74.81S643,457.71,663.51,391.1Z" transform="translate(-422.7 -374.1)"/><polygon class="c" points="240.81 245.51 111.69 245.51 91.71 261.39 110.16 271.13 240.81 271.13 240.81 245.51"/><path class="d" d="M663.51,437.73s-18.19,3.07-19,26.13a30.35,30.35,0,0,0,19,30Z" transform="translate(-422.7 -374.1)"/><polygon class="d" points="240.81 185.05 221.83 213.49 231.31 228.86 240.81 236.54 240.81 185.05"/><path class="e" d="M663.51,391.1V619.61H792.62L904.31,462.83s-75.83,35.87-115.79,33.82c0,0,42,28.69,4.1,64.55s-84,13.33-97.35-27.66,63.53-74.81,63.53-74.81S684,457.71,663.51,391.1Z" transform="translate(-422.7 -374.1)"/><polygon class="f" points="240.81 245.51 369.92 245.51 389.9 261.39 371.45 271.13 240.81 271.13 240.81 245.51"/><path class="g" d="M663.51,437.73s18.19,3.07,19,26.13a30.34,30.34,0,0,1-19,30Z" transform="translate(-422.7 -374.1)"/><polygon class="g" points="240.81 185.05 259.78 213.49 250.29 228.86 240.81 236.54 240.81 185.05"/></svg>