<svg xmlns="http://www.w3.org/2000/svg" viewBox="0 0 324 336"><defs><style>.a{fill:#febe21;}.b{fill:#ffce4d;}.c{fill:#ffe5a6;}.d{fill:#efb31f;}</style></defs><title>cupIcon</title><path class="a" d="M68,211.39H-4a126.18,126.18,0,0,1-126-126v-24a6,6,0,0,1,6-6H188a6,6,0,0,1,6,6v24A126,126,0,0,1,68,211.39Zm-186-144v18a114.21,114.21,0,0,0,114,114H68a114.08,114.08,0,0,0,114-114v-18Z" transform="translate(130 -19.39)"/><path class="a" d="M49.1,302.19a149.33,149.33,0,0,1,11.1-90.8H3.8a150.07,150.07,0,0,1,11.1,90.8c-3.6,18.6-20.6,36.6-42.9,41.2v12H92v-12C69.8,338.79,52.7,320.79,49.1,302.19Z" transform="translate(130 -19.39)"/><path class="b" d="M-70,43.39c.1,133.2,44.7,218.1,102,216,57.3,2.1,101.9-82.7,102-216Z" transform="translate(130 -19.39)"/><path class="c" d="M6.3,43.39H-34.8c.1,132.3,28.9,216.8,66,216C17.1,258.19,6.3,174.09,6.3,43.39Z" transform="translate(130 -19.39)"/><rect class="b" x="102" y="324" width="120" height="12"/><path class="d" d="M-69.7,55.39H133.8l.3-12H-70C-69.9,47.39-69.9,51.39-69.7,55.39Z" transform="translate(130 -19.39)"/><rect class="b" x="48" width="228" height="24"/></svg>