<svg id="f362990d-9d28-4df0-9778-c8a73319d3e8" data-name="Layer 2" xmlns="http://www.w3.org/2000/svg" viewBox="0 0 269.12 269.12"><defs><style>.be90cd37-38b4-4a82-808f-6e0c2e2e20df{fill:#34554c;}.a490aa6a-1449-48a6-a18a-0c8e5c3a68d4{fill:#fff;}.ab2368a4-78c5-4441-8457-e0844961c7c2{fill:#d3d3d3;}.b66a2371-8a06-4621-9bc5-7a51e0c0b62e{fill:#3a3b8e;}.b6197e3f-23f8-47a2-b22e-1e7787928509{fill:#232347;}.aae8b3a0-6ccb-4e68-8a71-404cf51568e4{fill:#ee3044;}</style></defs><title>gameHistoryIcon</title><path class="be90cd37-38b4-4a82-808f-6e0c2e2e20df" d="M679.57,568.56A134.56,134.56,0,1,1,814.14,434,134.56,134.56,0,0,1,679.57,568.56" transform="translate(-545.01 -299.44)"/><path class="a490aa6a-1449-48a6-a18a-0c8e5c3a68d4" d="M750.73,480.05A8.93,8.93,0,0,1,741.8,489H682.86a8.93,8.93,0,0,1-8.93-8.92V366.64a8.93,8.93,0,0,1,8.93-8.93H741.8a8.93,8.93,0,0,1,8.93,8.93Z" transform="translate(-545.01 -299.44)"/><path class="ab2368a4-78c5-4441-8457-e0844961c7c2" d="M718.62,359.56s9.49,5,9.49,15.22v96.67s.35,15.27-9.49,15.27h24.61s7.5.32,7.5-13V363.29s-2.12-5.39-7.74-5.39H718.15Z" transform="translate(-545.01 -299.44)"/><path class="b66a2371-8a06-4621-9bc5-7a51e0c0b62e" d="M731.41,436.88a9.34,9.34,0,0,1-13.16,0L712.33,431l-5.92,5.92a9.31,9.31,0,0,1-13.17-13.17l19.09-19.09,19.08,19.09A9.32,9.32,0,0,1,731.41,436.88Z" transform="translate(-545.01 -299.44)"/><path class="b6197e3f-23f8-47a2-b22e-1e7787928509" d="M741.8,490.6H682.86a11,11,0,0,1-11-11V366.21a11,11,0,0,1,11-11H741.8a11,11,0,0,1,11,11V479.62A11,11,0,0,1,741.8,490.6ZM682.86,359.33a6.88,6.88,0,0,0-6.87,6.88V479.62a6.88,6.88,0,0,0,6.87,6.87H741.8a6.88,6.88,0,0,0,6.87-6.87V366.21a6.88,6.88,0,0,0-6.87-6.88Z" transform="translate(-545.01 -299.44)"/><path class="b6197e3f-23f8-47a2-b22e-1e7787928509" d="M732.68,422.59l-20.35-20.36L692,422.59a11.1,11.1,0,0,0,15.7,15.7l2.83-2.84c.14,1.79.21,4.1-.24,5.08s-3.45,3.06-3.45,3.06h11s-2.78-2.06-3.21-3.06-.36-3.11-.23-4.82l2.58,2.58a11.11,11.11,0,0,0,15.69,0A11.12,11.12,0,0,0,732.68,422.59Zm-2.53,13.16a7.53,7.53,0,0,1-10.64,0l-7.18-7.18-7.18,7.18a7.54,7.54,0,0,1-10.64,0,7.56,7.56,0,0,1,0-10.64l17.82-17.82,17.82,17.82A7.54,7.54,0,0,1,730.15,435.75Z" transform="translate(-545.01 -299.44)"/><path class="a490aa6a-1449-48a6-a18a-0c8e5c3a68d4" d="M685.22,501.79a8.93,8.93,0,0,1-8.93,8.93H617.35a8.93,8.93,0,0,1-8.93-8.93V388.38a8.93,8.93,0,0,1,8.93-8.93h58.94a8.93,8.93,0,0,1,8.93,8.93Z" transform="translate(-545.01 -299.44)"/><path class="ab2368a4-78c5-4441-8457-e0844961c7c2" d="M653.07,381.51s9.49,5,9.49,15.21V493.4s.35,15.26-9.49,15.26h24.61s7.5.33,7.5-13V385.24s-2.11-5.39-7.74-5.39H652.6Z" transform="translate(-545.01 -299.44)"/><path class="b6197e3f-23f8-47a2-b22e-1e7787928509" d="M676.29,512.78H617.35a11,11,0,0,1-11-11V388.38a11,11,0,0,1,11-11h58.94a11,11,0,0,1,11,11V501.79A11,11,0,0,1,676.29,512.78ZM617.35,381.51a6.88,6.88,0,0,0-6.87,6.87V501.79a6.88,6.88,0,0,0,6.87,6.87h58.94a6.88,6.88,0,0,0,6.87-6.87V388.38a6.88,6.88,0,0,0-6.87-6.87Z" transform="translate(-545.01 -299.44)"/><path class="aae8b3a0-6ccb-4e68-8a71-404cf51568e4" d="M626.55,429.43a9.92,9.92,0,0,1,14,0l6.29,6.29,6.28-6.29a9.89,9.89,0,0,1,14,14l-20.27,20.27-20.27-20.27A9.9,9.9,0,0,1,626.55,429.43Z" transform="translate(-545.01 -299.44)"/><path class="b6197e3f-23f8-47a2-b22e-1e7787928509" d="M646.82,466.38,625.2,444.76a11.79,11.79,0,0,1,16.68-16.67l4.94,4.94,4.94-4.94a11.82,11.82,0,0,1,16.68,0,11.84,11.84,0,0,1,0,16.68Zm-13.28-37.93a8,8,0,0,0-5.65,13.63L646.82,461l18.93-18.92a8,8,0,0,0-5.66-13.63,7.89,7.89,0,0,0-5.64,2.33l-7.63,7.63-7.63-7.63A7.9,7.9,0,0,0,633.54,428.45Z" transform="translate(-545.01 -299.44)"/></svg>