<svg xmlns="http://www.w3.org/2000/svg" xmlns:xlink="http://www.w3.org/1999/xlink" viewBox="0 0 115.64 115.64"><defs><style>.a{fill:url(#a);}.b{fill:url(#b);}.c{fill:url(#c);}.d{fill:url(#d);}.e{opacity:0.7;fill:url(#e);}.e,.j,.l,.m,.n{isolation:isolate;}.f{fill:url(#f);}.g{fill:url(#g);}.h{fill:url(#h);}.i{fill:url(#i);}.j,.l,.m,.n{opacity:0.8;}.j{fill:url(#j);}.k{fill:#fff;}.l{fill:url(#k);}.m{fill:url(#l);}.n{fill:url(#m);}</style><linearGradient id="a" x1="313.76" y1="103.33" x2="389.57" y2="27.53" gradientTransform="matrix(1, 0, 0, -1, -291.07, 284.47)" gradientUnits="userSpaceOnUse"><stop offset="0" stop-color="#d9d9d9"/><stop offset="0.08" stop-color="#fff"/><stop offset="0.19" stop-color="#d7d7d7"/><stop offset="0.26" stop-color="#b4b4b4"/><stop offset="0.31" stop-color="#9d9d9d"/><stop offset="0.36" stop-color="#8c8c8c"/><stop offset="0.37" stop-color="#8b8b8b"/><stop offset="0.47" stop-color="#878787"/><stop offset="0.52" stop-color="#949494"/><stop offset="0.56" stop-color="#a3a3a3"/><stop offset="0.68" stop-color="#d3d3d3"/><stop offset="0.7" stop-color="#d0d0d0"/><stop offset="0.72" stop-color="#c6c6c6"/><stop offset="0.74" stop-color="#b5b5b5"/><stop offset="0.76" stop-color="#9c9c9c"/><stop offset="0.78" stop-color="#7e7e7e"/><stop offset="0.79" stop-color="#6e6e6e"/><stop offset="0.81" stop-color="#767676"/><stop offset="0.85" stop-color="#8c8c8c"/><stop offset="0.89" stop-color="#afafaf"/><stop offset="0.94" stop-color="#dadada"/></linearGradient><linearGradient id="b" x1="303.86" y1="113.24" x2="399.67" y2="17.43" gradientTransform="matrix(1, 0, 0, -1, -291.07, 284.47)" gradientUnits="userSpaceOnUse"><stop offset="0.15" stop-color="#d9d9d9"/><stop offset="0.21" stop-color="#d7d7d7"/><stop offset="0.29" stop-color="#b4b4b4"/><stop offset="0.33" stop-color="#9d9d9d"/><stop offset="0.36" stop-color="#8c8c8c"/><stop offset="0.37" stop-color="#8b8b8b"/><stop offset="0.47" stop-color="#878787"/><stop offset="0.52" stop-color="#949494"/><stop offset="0.56" stop-color="#a3a3a3"/><stop offset="0.68" stop-color="#d3d3d3"/><stop offset="0.9" stop-color="#6e6e6e"/><stop offset="0.92" stop-color="#767676"/><stop offset="0.94" stop-color="#8c8c8c"/><stop offset="0.96" stop-color="#afafaf"/><stop offset="0.99" stop-color="#dadada"/></linearGradient><linearGradient id="c" x1="325.16" y1="96.19" x2="387.48" y2="24.68" gradientTransform="matrix(1, 0, 0, -1, -291.07, 284.47)" gradientUnits="userSpaceOnUse"><stop offset="0" stop-color="#d9d9d9"/><stop offset="0.06" stop-color="#fff"/><stop offset="0.19" stop-color="#d7d7d7"/><stop offset="0.26" stop-color="#b4b4b4"/><stop offset="0.29" stop-color="#9d9d9d"/><stop offset="0.32" stop-color="#8c8c8c"/><stop offset="0.39" stop-color="#878787"/><stop offset="0.43" stop-color="#b1b1b1"/><stop offset="0.46" stop-color="#cecece"/><stop offset="0.48" stop-color="#d9d9d9"/><stop offset="0.56" stop-color="#f1f1f1"/><stop offset="0.61" stop-color="#fff"/><stop offset="0.69" stop-color="#dadada"/><stop offset="0.78" stop-color="#d3d3d3"/><stop offset="0.83" stop-color="#afafaf"/><stop offset="0.89" stop-color="gray"/><stop offset="0.92" stop-color="#6e6e6e"/></linearGradient><radialGradient id="d" cx="362.88" cy="91.38" r="67.47" gradientTransform="matrix(1, 0, 0, -1, -291.07, 284.47)" gradientUnits="userSpaceOnUse"><stop offset="0.38" stop-color="#fff"/><stop offset="0.58" stop-color="#dadada"/><stop offset="0.76" stop-color="#d3d3d3"/><stop offset="0.8" stop-color="#ccc"/><stop offset="0.86" stop-color="#b9b9b9"/><stop offset="0.93" stop-color="#999"/><stop offset="1" stop-color="#6e6e6e"/></radialGradient><radialGradient id="e" cx="338.95" cy="23.42" r="82.7" gradientTransform="matrix(1, 0, 0, -1, -291.07, 284.47)" gradientUnits="userSpaceOnUse"><stop offset="0.42"/><stop offset="0.46" stop-color="#050505"/><stop offset="0.51" stop-color="#141414"/><stop offset="0.56" stop-color="#2e2e2e"/><stop offset="0.61" stop-color="#515151"/><stop offset="0.67" stop-color="#7e7e7e"/><stop offset="0.73" stop-color="#b4b4b4"/><stop offset="0.76" stop-color="#d3d3d3"/><stop offset="0.9" stop-color="#dadada"/><stop offset="0.98" stop-color="#fff"/></radialGradient><linearGradient id="f" x1="333.7" y1="108.02" x2="372.75" y2="21.3" gradientTransform="matrix(1, 0, 0, -1, -291.07, 284.47)" gradientUnits="userSpaceOnUse"><stop offset="0" stop-color="#b4b4b4"/><stop offset="0.07" stop-color="#9d9d9d"/><stop offset="0.14" stop-color="#8c8c8c"/><stop offset="0.15" stop-color="#8b8b8b"/><stop offset="0.22" stop-color="#878787"/><stop offset="0.31" stop-color="#949494"/><stop offset="0.39" stop-color="#a3a3a3"/><stop offset="0.66" stop-color="#6e6e6e"/><stop offset="0.88" stop-color="#6e6e6e"/><stop offset="1" stop-color="#252525"/></linearGradient><linearGradient id="g" x1="333.72" y1="108" x2="372.77" y2="21.28" xlink:href="#f"/><linearGradient id="h" x1="311.44" y1="120.51" x2="390.12" y2="14.27" xlink:href="#f"/><linearGradient id="i" x1="375.6" y1="116.93" x2="357.6" y2="73.28" gradientTransform="matrix(1, 0, 0, -1, -291.07, 284.47)" gradientUnits="userSpaceOnUse"><stop offset="0.02" stop-color="#fff"/><stop offset="0.29" stop-color="#dadada"/><stop offset="0.56" stop-color="#d3d3d3"/><stop offset="0.58" stop-color="#b4b4b4"/><stop offset="0.62" stop-color="#7e7e7e"/><stop offset="0.66" stop-color="#515151"/><stop offset="0.69" stop-color="#2e2e2e"/><stop offset="0.73" stop-color="#141414"/><stop offset="0.76" stop-color="#050505"/><stop offset="0.79"/></linearGradient><linearGradient id="j" x1="349.19" y1="30.81" x2="348.33" y2="8.99" gradientTransform="matrix(1, 0, 0, -1, -291.07, 284.47)" gradientUnits="userSpaceOnUse"><stop offset="0" stop-color="#fff"/><stop offset="0.08" stop-color="#e0e0e0"/><stop offset="0.2" stop-color="#b4b4b4"/><stop offset="0.26" stop-color="#a3a3a3"/><stop offset="0.66" stop-color="#6e6e6e"/><stop offset="0.73" stop-color="#666"/><stop offset="0.84" stop-color="#505050"/><stop offset="0.97" stop-color="#2d2d2d"/><stop offset="1" stop-color="#252525"/></linearGradient><linearGradient id="k" x1="356.74" y1="70.34" x2="374.83" y2="110.54" xlink:href="#j"/><linearGradient id="l" x1="443.09" y1="229.9" x2="461.19" y2="270.1" gradientTransform="translate(17.93 -269.87) rotate(58.06)" xlink:href="#j"/><linearGradient id="m" x1="335.04" y1="45.85" x2="311.11" y2="21.15" gradientTransform="matrix(1, -0.07, -0.07, -1, -273.34, 297.51)" xlink:href="#j"/></defs><title>silverMedalIcon</title><path class="a" d="M120.62,221.23a57.82,57.82,0,1,1-57.83-57.81h0A57.83,57.83,0,0,1,120.62,221.23Z" transform="translate(-4.98 -163.42)"/><path class="b" d="M111.91,221.23a49.11,49.11,0,1,1-49.12-49.1h0a49.1,49.1,0,0,1,49.11,49.1Z" transform="translate(-4.98 -163.42)"/><path class="c" d="M106.17,221.23A43.36,43.36,0,1,1,62.8,177.87a43.36,43.36,0,0,1,43.37,43.36Z" transform="translate(-4.98 -163.42)"/><path class="d" d="M104.45,221.23A41.64,41.64,0,1,1,62.8,179.59,41.64,41.64,0,0,1,104.45,221.23Z" transform="translate(-4.98 -163.42)"/><path class="e" d="M104.45,221.23A41.64,41.64,0,1,1,62.8,179.59,41.64,41.64,0,0,1,104.45,221.23Z" transform="translate(-4.98 -163.42)"/><path class="f" d="M62.8,172.13a49.11,49.11,0,1,0,49.11,49.12v0a49.1,49.1,0,0,0-49.1-49.1Zm0,97.34A48.24,48.24,0,1,1,111,221.23h0A48.28,48.28,0,0,1,62.8,269.47Z" transform="translate(-4.98 -163.42)"/><path class="g" d="M62.8,177.87a43.36,43.36,0,1,0,43.36,43.36h0A43.36,43.36,0,0,0,62.8,177.87Zm0,85.86a42.5,42.5,0,1,1,42.5-42.5h0A42.53,42.53,0,0,1,62.8,263.73Z" transform="translate(-4.98 -163.42)"/><path class="h" d="M62.8,163.42a57.82,57.82,0,1,0,57.81,57.83v0A57.81,57.81,0,0,0,62.8,163.42Zm0,114.76a57,57,0,1,1,57-57A56.94,56.94,0,0,1,62.8,278.18Z" transform="translate(-4.98 -163.42)"/><path class="i" d="M19.1,197.05a50,50,0,0,1,92.84,33.3l4.55.65,1.71.22A56.29,56.29,0,0,0,14.05,193.1,59.86,59.86,0,0,0,19.1,197.05Z" transform="translate(-4.98 -163.42)"/><path class="j" d="M101.77,252.46a49.93,49.93,0,0,1-86.92-17.21c-2.4-.85-4.8-1.74-7.18-2.64a56.29,56.29,0,0,0,101.78,20.07Q105.64,252.64,101.77,252.46Z" transform="translate(-4.98 -163.42)"/><path class="k" d="M118.21,231.22c9.07-61.06-72.78-88.72-104.16-38.12C44.2,138.34,130.57,169.84,118.21,231.22Z" transform="translate(-4.98 -163.42)"/><path class="k" d="M118.21,231.22c9.07-61.06-72.78-88.72-104.16-38.12C44.2,138.34,130.57,169.84,118.21,231.22Z" transform="translate(-4.98 -163.42)"/><path class="l" d="M110.09,229.2c7.63-52.72-61.2-76.59-87.58-32.92C47.85,149,120.45,176.21,110.09,229.2Z" transform="translate(-4.98 -163.42)"/><path class="k" d="M104,227.62c6.68-44.92-53.53-65.27-76.62-28C49.58,159.3,113.12,182.46,104,227.62Z" transform="translate(-4.98 -163.42)"/><path class="k" d="M100.58,262.77C73.52,286,41.45,280,20.21,257c-14.13-15.35-18.39-39.43-7.35-62C-17.45,249.57,55.21,305.92,100.58,262.77Z" transform="translate(-4.98 -163.42)"/><path class="m" d="M94.55,257C54,291.51-2.87,246,20.06,200.37-6.46,247,55.23,294,94.55,257Z" transform="translate(-4.98 -163.42)"/><path class="n" d="M92.94,250.26c-32.39,31.84-84.28-4.84-67.78-45.41C5.66,246.48,61.8,284.2,92.94,250.26Z" transform="translate(-4.98 -163.42)"/></svg>