<svg id="fb553ca3-10f9-4b35-816f-26147d50c632" data-name="Layer 1" xmlns="http://www.w3.org/2000/svg" viewBox="0 0 348.77 368.64"><defs><style>.b4994e79-fd3e-4801-b619-0df81e4df2f6{fill:#4b4539;}.bb28251e-51e7-4773-b719-7f6f82886372{fill:#ffccbc;}.a13a0bdf-c18b-49a9-8d45-62ce7d69699c,.aae2c4d1-9f8e-4d24-91b1-4e624f9589a0,.afaa321b-efe5-45b1-afc5-65c5ebfff98e,.bb28251e-51e7-4773-b719-7f6f82886372,.e8ade187-8e0b-40af-94c2-58980e93b22d,.f1c50112-806a-4be9-9795-324bb0413863{fill-rule:evenodd;}.a13a0bdf-c18b-49a9-8d45-62ce7d69699c{fill:#d1c4e9;}.f1c50112-806a-4be9-9795-324bb0413863{fill:#e6ee9c;}.e8ade187-8e0b-40af-94c2-58980e93b22d{fill:#c09a8e;}.aae2c4d1-9f8e-4d24-91b1-4e624f9589a0{fill:#adb277;}.afaa321b-efe5-45b1-afc5-65c5ebfff98e{fill:#9e94b0;}</style></defs><title>addUserIcon</title><path class="b4994e79-fd3e-4801-b619-0df81e4df2f6" d="M217,62.42a81.57,81.57,0,1,1-57.67,23.89A81.3,81.3,0,0,1,217,62.42Zm49.53,32A70,70,0,1,0,287.05,144,69.82,69.82,0,0,0,266.54,94.46Z" transform="translate(-71.87 -62.42)"/><path class="b4994e79-fd3e-4801-b619-0df81e4df2f6" d="M349.24,288.26a71.41,71.41,0,1,1-50.48,20.91,71.18,71.18,0,0,1,50.48-20.91Zm42.35,29.05a59.88,59.88,0,1,0,17.54,42.35A59.73,59.73,0,0,0,391.59,317.31Z" transform="translate(-71.87 -62.42)"/><path class="b4994e79-fd3e-4801-b619-0df81e4df2f6" d="M343.48,320.27a5.76,5.76,0,1,1,11.52,0V399a5.76,5.76,0,1,1-11.52,0Z" transform="translate(-71.87 -62.42)"/><path class="b4994e79-fd3e-4801-b619-0df81e4df2f6" d="M388.63,353.9a5.76,5.76,0,0,1,0,11.52H309.86a5.76,5.76,0,1,1,0-11.52Z" transform="translate(-71.87 -62.42)"/><path class="b4994e79-fd3e-4801-b619-0df81e4df2f6" d="M339.34,289a58.63,58.63,0,0,0-15.55-19.54c-12.64-10.5-32.06-19.44-61.94-28a82.38,82.38,0,0,1-90.7.09c-27.38,8.85-46.12,17.19-58.9,26.54-12.56,9.18-19.28,19.42-23,32.29-4.64,16.13-5.16,37.82-5.62,56.84q-.06,2.52-.12,4.95H280.29a71.53,71.53,0,0,0,1.35,11.52h-204v0h-.18a5.74,5.74,0,0,1-5.55-5.92c.12-3.6.2-7.15.29-10.8.47-19.77,1-42.32,6-59.72,4.42-15.36,12.41-27.54,27.26-38.41,14.17-10.36,34.66-19.43,64.58-29a5.73,5.73,0,0,1,5.38.69,70.79,70.79,0,0,0,82.09,0h0a5.73,5.73,0,0,1,4.85-.85c33,9.2,54.5,19.07,68.77,30.94a69.41,69.41,0,0,1,20.56,27.74c-.79,0-1.61,0-2.4,0A72.38,72.38,0,0,0,339.34,289Z" transform="translate(-71.87 -62.42)"/><path class="bb28251e-51e7-4773-b719-7f6f82886372" d="M217,214a70,70,0,1,0-49.53-20.52A69.82,69.82,0,0,0,217,214Z" transform="translate(-71.87 -62.42)"/><path class="a13a0bdf-c18b-49a9-8d45-62ce7d69699c" d="M241.48,251.29a82.41,82.41,0,0,1-70.33-9.67c-27.38,8.85-46.12,17.19-58.9,26.54-12.56,9.18-19.28,19.42-23,32.29-4.64,16.13-5.16,37.82-5.62,56.84l-.12,4.95H277.89c0-.86-.05-1.72-.05-2.58a71.45,71.45,0,0,1,61.45-70.72,58.74,58.74,0,0,0-15.5-19.44c-12.64-10.5-32.06-19.44-61.94-28A82.28,82.28,0,0,1,241.48,251.29Z" transform="translate(-71.87 -62.42)"/><path class="f1c50112-806a-4be9-9795-324bb0413863" d="M355,320.27V353.9h33.63a5.76,5.76,0,0,1,0,11.52H355V399a5.76,5.76,0,1,1-11.52,0V365.42H309.86a5.76,5.76,0,1,1,0-11.52h33.62V320.27a5.76,5.76,0,1,1,11.52,0Zm-5.76-20.49a59.87,59.87,0,1,0,42.35,17.53A59.72,59.72,0,0,0,349.24,299.78Z" transform="translate(-71.87 -62.42)"/><path class="e8ade187-8e0b-40af-94c2-58980e93b22d" d="M266.54,193.51A70.06,70.06,0,0,0,232.62,75.69a81.59,81.59,0,0,1,0,136.59A69.86,69.86,0,0,0,266.54,193.51Z" transform="translate(-71.87 -62.42)"/><path class="aae2c4d1-9f8e-4d24-91b1-4e624f9589a0" d="M370.74,309.17a71.13,71.13,0,0,1,20.74,45.48,5.76,5.76,0,0,1,0,10,71.42,71.42,0,0,1-30.66,53.76,59.9,59.9,0,0,0,0-117.53A70.94,70.94,0,0,1,370.74,309.17Z" transform="translate(-71.87 -62.42)"/><path class="afaa321b-efe5-45b1-afc5-65c5ebfff98e" d="M247.56,249.08c30.33,8.82,50.48,18.31,64.06,29.6a72.6,72.6,0,0,1,13,13.93,70.8,70.8,0,0,1,14.65-3.67,58.74,58.74,0,0,0-15.5-19.44c-12.64-10.5-32.06-19.44-61.94-28A82.18,82.18,0,0,1,247.56,249.08Z" transform="translate(-71.87 -62.42)"/></svg>