<svg id="a5aa0ee4-2e5d-44d8-a971-d5e02b9a1a62" data-name="Layer 4" xmlns="http://www.w3.org/2000/svg" viewBox="0 0 249.12 247.43"><defs><style>.eca55ccd-d76b-4cb1-8d47-47c5f9ba9041{fill:#77c8d8;}.bf702823-fbf3-4ab1-9e92-395567eff3fd{fill:#4b4539;}.ab2206cc-a69c-44d9-9f0d-052019693775{fill:#ffeb34;}.a139ddc8-5a89-4639-ada0-5f56a7edcc95{fill:#59af31;}.a22f880b-53ed-496b-9047-f97e50c4302a{fill:#e22a3c;}</style></defs><title>gameSummaryIcon</title><path class="eca55ccd-d76b-4cb1-8d47-47c5f9ba9041" d="M227.61,185.15V158.48H129.42v98.19h26.67a22.42,22.42,0,0,0,44.84,0h26.68V230a22.42,22.42,0,0,1,0-44.84Z" transform="translate(-122.84 -114.01)"/><path class="bf702823-fbf3-4ab1-9e92-395567eff3fd" d="M178.51,285.67a29,29,0,0,1-28.24-22.42H129.42a6.58,6.58,0,0,1-6.58-6.58V158.48a6.57,6.57,0,0,1,6.58-6.58h98.19a6.58,6.58,0,0,1,6.58,6.58v26.67a6.58,6.58,0,0,1-6.58,6.58,15.84,15.84,0,0,0,0,31.68,6.59,6.59,0,0,1,6.58,6.58v26.68a6.59,6.59,0,0,1-6.58,6.58H206.76A29.06,29.06,0,0,1,178.51,285.67ZM136,250.09h20.09a6.58,6.58,0,0,1,6.58,6.58,15.84,15.84,0,0,0,31.68,0,6.59,6.59,0,0,1,6.58-6.58H221V235.82a29,29,0,0,1,0-56.49V165.06H136Z" transform="translate(-122.84 -114.01)"/><path class="ab2206cc-a69c-44d9-9f0d-052019693775" d="M156.09,256.67H129.42v98.19h98.19V328.19a22.42,22.42,0,0,0,0-44.84V256.67H200.93a22.42,22.42,0,0,1-44.84,0Z" transform="translate(-122.84 -114.01)"/><path class="a139ddc8-5a89-4639-ada0-5f56a7edcc95" d="M227.61,328.19v26.67H325.8V256.67H299.12a22.42,22.42,0,1,0-44.83,0H227.61v26.68a22.42,22.42,0,0,1,0,44.84Z" transform="translate(-122.84 -114.01)"/><path class="bf702823-fbf3-4ab1-9e92-395567eff3fd" d="M227.61,361.44H129.42a6.57,6.57,0,0,1-6.58-6.58V256.67a6.58,6.58,0,0,1,6.58-6.58h26.67a6.58,6.58,0,0,1,6.58,6.58,15.84,15.84,0,0,0,31.68,0,6.59,6.59,0,0,1,6.58-6.58h26.68a6.59,6.59,0,0,1,6.58,6.58v20.85a29,29,0,0,1,0,56.49v20.85A6.58,6.58,0,0,1,227.61,361.44ZM136,348.28h85V328.19a6.58,6.58,0,0,1,6.58-6.59,15.84,15.84,0,1,0,0-31.67,6.58,6.58,0,0,1-6.58-6.58v-20.1H206.76a29,29,0,0,1-56.49,0H136Z" transform="translate(-122.84 -114.01)"/><path class="bf702823-fbf3-4ab1-9e92-395567eff3fd" d="M325.8,361.44H227.61a6.57,6.57,0,0,1-6.58-6.58V328.19a6.58,6.58,0,0,1,6.58-6.59,15.84,15.84,0,1,0,0-31.67,6.58,6.58,0,0,1-6.58-6.58V256.67a6.58,6.58,0,0,1,6.58-6.58h20.85a29,29,0,0,1,56.49,0H325.8a6.58,6.58,0,0,1,6.58,6.58v98.19A6.57,6.57,0,0,1,325.8,361.44Zm-91.61-13.16h85v-85h-20.1a6.59,6.59,0,0,1-6.58-6.58,15.84,15.84,0,1,0-31.67,0,6.59,6.59,0,0,1-6.58,6.58h-20.1v14.27a29,29,0,0,1,0,56.49Z" transform="translate(-122.84 -114.01)"/><path class="a22f880b-53ed-496b-9047-f97e50c4302a" d="M338.7,218.78h26.68V120.59h-98.2v26.68a22.42,22.42,0,0,0,0,44.84v26.67h26.68a22.42,22.42,0,0,1,44.84,0Z" transform="translate(-122.84 -114.01)"/><path class="bf702823-fbf3-4ab1-9e92-395567eff3fd" d="M365.38,225.36H338.7a6.57,6.57,0,0,1-6.58-6.58,15.84,15.84,0,0,0-31.68,0,6.58,6.58,0,0,1-6.58,6.58H267.18a6.58,6.58,0,0,1-6.58-6.58V197.93a29,29,0,0,1,0-56.49V120.59a6.59,6.59,0,0,1,6.58-6.58h98.2a6.59,6.59,0,0,1,6.58,6.58v98.19A6.58,6.58,0,0,1,365.38,225.36ZM344.53,212.2h14.26v-85h-85v20.1a6.58,6.58,0,0,1-6.58,6.58,15.84,15.84,0,0,0,0,31.68,6.57,6.57,0,0,1,6.58,6.58V212.2H288a29,29,0,0,1,56.5,0Z" transform="translate(-122.84 -114.01)"/></svg>