<svg id="f134c915-e569-499d-bbd6-40b2a182e280" data-name="Layer 2" xmlns="http://www.w3.org/2000/svg" viewBox="0 0 425.73 395.51"><defs><style>.bb88f483-7ab5-42d5-ad04-78236d1b6a91{fill:#ebb700;}.bce99b6a-50ff-45a6-9c4b-2813cca43b2c{fill:#352857;}</style></defs><title>photoIcon</title><path class="bb88f483-7ab5-42d5-ad04-78236d1b6a91" d="M1319.81,1234.82a102.51,102.51,0,1,0,102.51,102.51A102.51,102.51,0,0,0,1319.81,1234.82Zm.6,149.31a47.4,47.4,0,1,1,47.4-47.4A47.4,47.4,0,0,1,1320.41,1384.13Zm144-154.05h-10.66a17.19,17.19,0,1,0,0,34.37h10.66a17.19,17.19,0,0,0,0-34.37Z" transform="translate(-1107.67 -1129.07)"/><path class="bce99b6a-50ff-45a6-9c4b-2813cca43b2c" d="M1317.67,1227.71A108.33,108.33,0,1,0,1426,1336.05,108.35,108.35,0,0,0,1317.67,1227.71Zm0,195.32a87,87,0,1,1,87-87A87.11,87.11,0,0,1,1317.67,1423Zm0-149a62,62,0,1,0,62,62A62,62,0,0,0,1317.68,1274Zm0,102.68a40.68,40.68,0,1,1,40.66-40.67A40.71,40.71,0,0,1,1317.68,1376.72Zm147-156h-12.06a27.77,27.77,0,1,0,0,55.53h12.06a27.77,27.77,0,1,0,0-55.53Zm0,34.22h-12.06a6.46,6.46,0,1,1,0-12.91h12.06a6.46,6.46,0,0,1,0,12.91Zm25.72-73.83H1425a62.41,62.41,0,0,0-61.52-52h-91.62a62.39,62.39,0,0,0-61.54,52h-59.64a43,43,0,0,0-43,43v257.46a43,43,0,0,0,43,43l339.7,0a43,43,0,0,0,43-43V1224.1A43,43,0,0,0,1490.39,1181.08Zm21.66,300.48a21.69,21.69,0,0,1-21.66,21.67h-339.7a21.72,21.72,0,0,1-21.69-21.67V1224.1a21.73,21.73,0,0,1,21.69-21.69h80.09v-10.94a41.14,41.14,0,0,1,41.09-41.07h91.62a41.13,41.13,0,0,1,41.07,41.07v10.94h85.83a21.7,21.7,0,0,1,21.67,21.69Z" transform="translate(-1107.67 -1129.07)"/></svg>