<svg id="bb950c07-2d89-4acb-9904-0eea5d135a43" data-name="Layer 3" xmlns="http://www.w3.org/2000/svg" viewBox="0 0 296.32 295.96"><defs><style>.bb5f4daa-eea4-423c-80e4-4414645cc1ae,.bfb16db5-af49-471c-882c-f1f4181f1643{fill:#fff;}.faa61dc0-be62-4628-ae6c-9c0294951734{fill:#e41e26;}.aedd55ec-8576-4f9e-b695-bf38d4a2bc7e{fill:#009849;}.acd2c12d-2529-4a06-8ec6-98257add2db5{fill:#fced17;}.ba80f6cb-8778-4758-869a-112f935b9367{fill:#2b9cd7;}.ad25a393-207a-4550-b972-49411547003c,.bfb16db5-af49-471c-882c-f1f4181f1643{fill-rule:evenodd;}</style></defs><title>showAllGamesIcon</title><rect x="36.45" y="0.12" width="40.82" height="40.82"/><rect class="bb5f4daa-eea4-423c-80e4-4414645cc1ae" x="38.64" y="2.31" width="36.45" height="36.45"/><rect x="73.02" y="0.12" width="40.82" height="40.82"/><rect class="faa61dc0-be62-4628-ae6c-9c0294951734" x="75.08" y="2.31" width="36.57" height="36.45"/><rect x="109.47" y="0.12" width="40.82" height="40.82"/><rect class="aedd55ec-8576-4f9e-b695-bf38d4a2bc7e" x="111.65" y="2.31" width="36.45" height="36.45"/><rect x="145.91" y="0.12" width="40.82" height="40.82"/><rect class="acd2c12d-2529-4a06-8ec6-98257add2db5" x="148.1" y="2.31" width="36.57" height="36.45"/><rect x="182.48" y="0.12" width="40.82" height="40.82"/><rect class="faa61dc0-be62-4628-ae6c-9c0294951734" x="184.67" y="2.31" width="36.45" height="36.45"/><rect x="218.93" y="0.12" width="40.82" height="40.82"/><rect class="bb5f4daa-eea4-423c-80e4-4414645cc1ae" x="221.12" y="2.31" width="36.45" height="36.45"/><rect x="36.33" y="35.96" width="223.55" height="223.55"/><rect class="bb5f4daa-eea4-423c-80e4-4414645cc1ae" x="38.64" y="38.27" width="218.93" height="218.93"/><rect y="0.12" width="40.82" height="40.82"/><rect class="bb5f4daa-eea4-423c-80e4-4414645cc1ae" x="2.19" y="2.31" width="36.45" height="36.45"/><rect x="255.26" width="41.06" height="41.06"/><rect class="bb5f4daa-eea4-423c-80e4-4414645cc1ae" x="257.57" y="2.31" width="36.57" height="36.45"/><rect x="36.45" y="255.01" width="40.82" height="40.82"/><rect class="aedd55ec-8576-4f9e-b695-bf38d4a2bc7e" x="38.64" y="257.2" width="36.45" height="36.45"/><rect x="73.02" y="255.01" width="40.82" height="40.82"/><rect class="bb5f4daa-eea4-423c-80e4-4414645cc1ae" x="75.08" y="257.2" width="36.57" height="36.45"/><rect x="109.47" y="255.01" width="40.82" height="40.82"/><rect class="faa61dc0-be62-4628-ae6c-9c0294951734" x="111.65" y="257.2" width="36.45" height="36.45"/><rect x="145.91" y="255.01" width="40.82" height="40.82"/><rect class="acd2c12d-2529-4a06-8ec6-98257add2db5" x="148.1" y="257.2" width="36.57" height="36.45"/><rect x="182.48" y="255.01" width="40.82" height="40.82"/><rect class="bb5f4daa-eea4-423c-80e4-4414645cc1ae" x="184.67" y="257.2" width="36.45" height="36.45"/><rect x="218.93" y="255.01" width="40.82" height="40.82"/><rect class="ba80f6cb-8778-4758-869a-112f935b9367" x="221.12" y="257.2" width="36.45" height="36.45"/><polyline class="ad25a393-207a-4550-b972-49411547003c" points="0 295.84 0 255.01 40.82 255.01 40.82 295.84 0 295.84"/><rect class="bb5f4daa-eea4-423c-80e4-4414645cc1ae" x="2.19" y="257.2" width="36.45" height="36.45"/><polyline class="ad25a393-207a-4550-b972-49411547003c" points="296.32 295.96 255.26 295.96 255.26 254.89 296.32 254.89 296.32 295.96"/><polyline class="bfb16db5-af49-471c-882c-f1f4181f1643" points="294.13 293.65 257.56 293.65 257.56 257.2 294.13 257.2 294.13 293.65"/><rect y="218.57" width="40.82" height="40.82"/><rect class="acd2c12d-2529-4a06-8ec6-98257add2db5" x="2.19" y="220.75" width="36.45" height="36.45"/><rect y="182.12" width="40.82" height="40.7"/><rect class="faa61dc0-be62-4628-ae6c-9c0294951734" x="2.19" y="184.18" width="36.45" height="36.57"/><rect y="145.55" width="40.82" height="40.82"/><rect class="bb5f4daa-eea4-423c-80e4-4414645cc1ae" x="2.19" y="147.74" width="36.45" height="36.45"/><rect y="109.1" width="40.82" height="40.82"/><rect class="ba80f6cb-8778-4758-869a-112f935b9367" x="2.19" y="111.29" width="36.45" height="36.45"/><rect y="72.65" width="40.82" height="40.7"/><rect class="aedd55ec-8576-4f9e-b695-bf38d4a2bc7e" x="2.19" y="74.72" width="36.45" height="36.57"/><rect y="36.08" width="40.82" height="40.82"/><rect class="faa61dc0-be62-4628-ae6c-9c0294951734" x="2.19" y="38.27" width="36.45" height="36.45"/><polyline class="ad25a393-207a-4550-b972-49411547003c" points="296.2 259.39 255.5 259.39 255.5 218.57 296.2 218.57 296.2 259.39"/><rect class="ba80f6cb-8778-4758-869a-112f935b9367" x="257.57" y="220.75" width="36.57" height="36.45"/><rect x="255.5" y="182.12" width="40.7" height="40.7"/><rect class="bb5f4daa-eea4-423c-80e4-4414645cc1ae" x="257.57" y="184.18" width="36.57" height="36.57"/><rect x="255.5" y="145.55" width="40.7" height="40.82"/><rect class="faa61dc0-be62-4628-ae6c-9c0294951734" x="257.57" y="147.74" width="36.57" height="36.45"/><rect x="255.5" y="109.1" width="40.7" height="40.82"/><rect class="bb5f4daa-eea4-423c-80e4-4414645cc1ae" x="257.57" y="111.29" width="36.57" height="36.45"/><rect x="255.5" y="72.65" width="40.7" height="40.7"/><rect class="aedd55ec-8576-4f9e-b695-bf38d4a2bc7e" x="257.57" y="74.72" width="36.57" height="36.57"/><rect x="255.5" y="36.08" width="40.7" height="40.82"/><rect class="ba80f6cb-8778-4758-869a-112f935b9367" x="257.57" y="38.27" width="36.57" height="36.45"/><path class="ad25a393-207a-4550-b972-49411547003c" d="M201.23,142.16l21.26,21.26a6.16,6.16,0,0,1,0,8.75l-36.57,36.69a6.31,6.31,0,0,1-8.87,0L155.79,187.6a6.31,6.31,0,0,1,0-8.87l36.69-36.57a6.16,6.16,0,0,1,8.75,0ZM199.28,144l21.39,21.38a3.61,3.61,0,0,1,0,5L184,206.91a3.38,3.38,0,0,1-5,0l-21.27-21.26a3.39,3.39,0,0,1,0-5L194.3,144a3.59,3.59,0,0,1,5,0Z" transform="translate(-99.3 -84.08)"/><path class="ad25a393-207a-4550-b972-49411547003c" d="M317.74,254.78,339.12,276a6.31,6.31,0,0,1,0,8.87l-36.69,36.57a6.31,6.31,0,0,1-8.87,0L272.3,300.22a6.16,6.16,0,0,1,0-8.75L309,254.78a6.16,6.16,0,0,1,8.75,0Zm-1.82,1.94L337.18,278a3.6,3.6,0,0,1,0,5l-36.69,36.69a3.61,3.61,0,0,1-5,0L274.25,298.4a3.6,3.6,0,0,1,0-5l36.69-36.69a3.39,3.39,0,0,1,5,0Z" transform="translate(-99.3 -84.08)"/><path class="faa61dc0-be62-4628-ae6c-9c0294951734" d="M194.91,287.46c.12.25.36.37.49.73l.36.73.36.36c0,.12.13.25.25.37a11.27,11.27,0,0,1,1.33,2.07c.49.72,1,1.33,1.46,2.06a.89.89,0,0,0,.25.49,3.18,3.18,0,0,0,.6.72c.25.25.49.61.73.85a3.46,3.46,0,0,1,.49,1,1.7,1.7,0,0,1,0,1.09,2.57,2.57,0,0,1-.85,1.22l-.73.72a4.88,4.88,0,0,1-.85.73,3,3,0,0,1-.85.49,1.7,1.7,0,0,1-1.09,0,1.79,1.79,0,0,1-.74-.24c-.24-.25-.48-.37-.6-.49l-1.34-1a18.52,18.52,0,0,0-2.06-1.22,18.74,18.74,0,0,1-2-1.33c-.12,0-.24-.12-.36-.25s-.12-.24-.37-.24a.62.62,0,0,0-.48-.24c-.12-.12-.37-.12-.49-.25a2.07,2.07,0,0,1-.48-.36c-.37-.12-.61-.36-1-.49l-.36-.36a3,3,0,0,1-.73-.61,2.94,2.94,0,0,1-.61-.48,2.34,2.34,0,0,0-1-.49c-.24-.12-.61-.24-.85-.36l-.48-.49-.37-.36c-.12,0-.24,0-.24-.12a.45.45,0,0,0-.37.12v.36a.44.44,0,0,0,.12.36,1.19,1.19,0,0,0,.61.49c.25.24.49.36.73.61a7.38,7.38,0,0,1,1.09,1,10.3,10.3,0,0,1,1.22,1.09,6.52,6.52,0,0,1,.73.85,6.81,6.81,0,0,1,.85.85c.85.85,1.82,1.71,2.67,2.43s1.95,1.58,2.92,2.31a2.61,2.61,0,0,0,.6.37c.12.12.37.24.49.36a1.34,1.34,0,0,1,.37.85,1,1,0,0,1-.13.85,1.91,1.91,0,0,1-.48.85c-.25.37-.37.61-.61.73l-.61.61c-.36.24-.6.49-1,.73s-.61.36-1,.49a1,1,0,0,1-.85,0l-.12-.13-.25-.24-1.82-1.82L185.8,304c-.12-.25-.36-.49-.49-.73l-.61-.61a4.35,4.35,0,0,0-1.45-1.09,12.26,12.26,0,0,1-1.46-1.22,2.83,2.83,0,0,1-.49-.73c-.24-.24-.36-.48-.61-.61a.94.94,0,0,0-.48-.48,7.57,7.57,0,0,0-.61-.49,11,11,0,0,1-1.21-1.09,4.85,4.85,0,0,1-1.22-1.1l-.6-.6a2.46,2.46,0,0,1-.49-.61L175,293.54c-.37-.49-.73-.85-1-1.22,0-.12-.12-.36,0-.48a1,1,0,0,1,.13-.61,66,66,0,0,1,.48-1c.24-.25.73-.61,1.22-1.1l1.45-1.45a18.55,18.55,0,0,0,1.58-1.22,3.43,3.43,0,0,1,1.34-.85,1,1,0,0,1,1,.12,2.75,2.75,0,0,1,.85.49,3.22,3.22,0,0,1,.73.6l.73.73a6.23,6.23,0,0,0,1,.49,8.09,8.09,0,0,0,1,.49.64.64,0,0,0,.36.48c.12.24.36.36.48.49.73.36,1.46.73,2.07,1.09s1.34.85,1.94,1.34c.25.24.61.48,1,.85a6.08,6.08,0,0,1,1,.85l1.09.73a12,12,0,0,0,1.22.48v-.6a2.71,2.71,0,0,1-.37-.61c-.12-.25-.36-.49-.49-.73s-.24-.37-.36-.37a2.51,2.51,0,0,0-.48-.72l-.37-.73a2.28,2.28,0,0,1-.48-.61,1.91,1.91,0,0,1-.49-.61.63.63,0,0,1-.24-.49.86.86,0,0,1-.25-.48c-.12-.12-.36-.24-.48-.49a.92.92,0,0,1-.49-.48.66.66,0,0,1-.36-.49.73.73,0,0,1,0-.73c-.25-.12-.37-.12-.49-.24l-.36-.36a8.82,8.82,0,0,1-1.22-1.71c-.24-.6-.61-1.21-.85-1.69a2.43,2.43,0,0,0-.49-.74,2.62,2.62,0,0,1-.36-.6,1.33,1.33,0,0,1,0-1.34,2.42,2.42,0,0,1,.73-1.21,6.19,6.19,0,0,0,.85-1,3.18,3.18,0,0,0,.85-1,2.15,2.15,0,0,0,1-.6,5.71,5.71,0,0,1,.85-.86,2.35,2.35,0,0,1,.85-.72,1.24,1.24,0,0,1,1.1-.25.44.44,0,0,1,.36.12,1.94,1.94,0,0,1,.49.37,5,5,0,0,1,1,1.21l1.09,1.1.37.36.36.36a7.25,7.25,0,0,1,.85,1.1,2.85,2.85,0,0,1,.61.73l.48.48c.13.12.25.25.37.37l.48.49c.25.12.37.36.61.48a2.71,2.71,0,0,0,.49.61,3.76,3.76,0,0,1,.36.49c.12.12.25.12.49.24a1.88,1.88,0,0,1,.49.36l.72.73a3.33,3.33,0,0,0,.61.49c.12.12.37.24.61.48s.36.25.61.49.24.36.36.61a2.63,2.63,0,0,0,.49.6,12.26,12.26,0,0,0,1.46,1.22A7.59,7.59,0,0,1,207.3,289a2.68,2.68,0,0,1,.61.85,2.11,2.11,0,0,1,.12.85,1.75,1.75,0,0,1-.24.73c-.12.37-.24.61-.37,1l-1.09,1.1a2.54,2.54,0,0,1-1.21.73,1.21,1.21,0,0,1-1.1.12,3.14,3.14,0,0,1-1.46-.85,6.93,6.93,0,0,1-.72-1,3.6,3.6,0,0,0-.85-1l-5.23-5.71c-.49-.48-1-1.09-1.46-1.58a19.72,19.72,0,0,1-1.45-1.7v-.12h-.13l-.12-.12-.24.12h.12c-.24.12-.24.37-.24.61s.12.36.24.48a1.45,1.45,0,0,0,.37.49l.36.36a7.46,7.46,0,0,0,.48.61c.13.25.37.61.49.85a2,2,0,0,1,.49.85,1.79,1.79,0,0,1,.24.73Zm22.48-26.36a25.66,25.66,0,0,1,2.43,2.67,13.85,13.85,0,0,1,2.06,2.92,2.17,2.17,0,0,1,.49,1.09c.12.49.24.85.36,1.34s.12,1,.12,1.45.13.86.25,1.22a2.76,2.76,0,0,1-.12.85,4.69,4.69,0,0,1-.13,1.34,5.18,5.18,0,0,1-.24,1.33,7.28,7.28,0,0,1-.24.85,3.47,3.47,0,0,0-.37.61l-.36.73-.37.73a2.72,2.72,0,0,1-.36.61c0,.12-.12.24-.24.36s-.25.24-.25.36l-1.7,1.71a6.49,6.49,0,0,1-.73.48,9.89,9.89,0,0,1-1.21.73,5.35,5.35,0,0,1-1.22.61,6.58,6.58,0,0,1-1,.48,7.12,7.12,0,0,1-1.94.49,9.08,9.08,0,0,1-2.55,0,17,17,0,0,1-2.43-.36,10.16,10.16,0,0,1-1.95-.85,3.94,3.94,0,0,1-.48-.37c-.25-.12-.61-.36-.85-.49a3.45,3.45,0,0,0-.73-.6,1.45,1.45,0,0,1-.49-.37,3.33,3.33,0,0,1-.61-.73l-.72-.73a19.28,19.28,0,0,1-2.19-2.79,10.74,10.74,0,0,1-1.58-3.16c-.12-.12-.12-.24-.12-.48a1.54,1.54,0,0,0-.12-.73v-3.53a13.77,13.77,0,0,1,.36-2.18,6.21,6.21,0,0,1,.73-1.95,8.48,8.48,0,0,1,1.34-1.82,3.28,3.28,0,0,1,.6-.48,7.15,7.15,0,0,1,1-.86,4.23,4.23,0,0,1,.85-.72c.36-.25.6-.49.72-.49l.73-.36c.25-.13.61-.25.85-.37s.61-.37.86-.61a6.74,6.74,0,0,1,1-.48h.24a.76.76,0,0,0,.49-.12h.85a4.23,4.23,0,0,1,1.33-.13h1.46a4.3,4.3,0,0,1,1.34.13c.48.12.85.24,1.21.36a6.24,6.24,0,0,1,1,.73,4.76,4.76,0,0,0,1.09.61c0,.12.12.12.36.24a.94.94,0,0,0,.49.24,1.89,1.89,0,0,1,.49.37.37.37,0,0,0,.24.12Zm-4.86,5.34c-.37-.12-.73-.36-1.1-.48s-.72-.37-1.09-.49a3.61,3.61,0,0,0-1.21-.24,4.22,4.22,0,0,0-1.22.12c-.36.12-.85.24-1.21.36a7.8,7.8,0,0,0-1,.73c-.12.25-.36.37-.48.73s-.25.49-.37.73a3.48,3.48,0,0,0-.48,1.82,4.73,4.73,0,0,0,.12,1.83,4.56,4.56,0,0,0,.73,1.58,8.17,8.17,0,0,0,1.21,1.58,12.18,12.18,0,0,0,1.83,1.45,7.16,7.16,0,0,0,4.49.73,5.11,5.11,0,0,0,2.07-1.21,2,2,0,0,0,.48-.85,8.19,8.19,0,0,0,.37-.85,4.29,4.29,0,0,1,.36-1,1.52,1.52,0,0,0,.12-.72,1.32,1.32,0,0,0-.12-.61,1.94,1.94,0,0,0-.36-1c0-.25-.13-.37-.13-.49a1.13,1.13,0,0,0-.12-.61,1.44,1.44,0,0,0-.48-.48,6.19,6.19,0,0,0-.85-1c-.37-.36-.61-.72-1-1.09l-.61-.61Zm29.4-8.75a3.69,3.69,0,0,1-1.58,1.1,3,3,0,0,1-1.46.12,8.45,8.45,0,0,1-1.58-.24,7.44,7.44,0,0,0-1.82-.24,4.2,4.2,0,0,0-1.46-.74c-.61-.12-1.09-.36-1.7-.48a6.44,6.44,0,0,1-1.46-.49c-.48-.12-1-.36-1.33-.48a1.58,1.58,0,0,0-.73-.12c-.12-.12-.37-.12-.61-.25a9.59,9.59,0,0,1-1.7-.6,16.34,16.34,0,0,1-1.7-.61v-.12c-.12.12-.12.12,0,.24s.12.24.12.36l.36.37a.12.12,0,0,0,.12.12,2.25,2.25,0,0,0,.86.61l.72.73,1.83,1.82a12.12,12.12,0,0,0,1.94,1.7c.49.49,1,.85,1.46,1.34a8.44,8.44,0,0,1,1.58,1.33c.48.49.73.85.73,1.22a2.68,2.68,0,0,1-.25,1l-.72.73a1.84,1.84,0,0,0-.49.85l-.49.49a3,3,0,0,1-.73.6,2.75,2.75,0,0,1-.85.49.81.81,0,0,1-.73.12c-.12,0-.24-.12-.48-.24s-.37-.25-.49-.37a2.11,2.11,0,0,1-.6-.48l-.37-.37c-.49-.48-1.09-1-1.58-1.46a17.44,17.44,0,0,0-1.58-1.45c-.36-.49-.85-.85-1.21-1.34a14.09,14.09,0,0,0-1.22-1.46c-.36-.24-.73-.6-1.09-.85a3.06,3.06,0,0,1-1-.85c-.61-.61-1.1-1.09-1.7-1.7a21.4,21.4,0,0,0-1.58-1.58c-.12-.12-.24-.24-.37-.24a1.51,1.51,0,0,1-.48-.37c-.13-.12-.25-.36-.49-.6l-.73-.73c-.24-.25-.48-.37-.6-.61a2.51,2.51,0,0,1-.61-.36c-.13,0-.25-.13-.37-.13s-.24-.12-.24-.24c-.36-.24-.36-.49-.24-1a2.43,2.43,0,0,1,.6-1.09,6.88,6.88,0,0,1,.86-1.1l.72-.73.61-.6c.24-.25.61-.49.85-.73a10.58,10.58,0,0,1,1-.61,1.33,1.33,0,0,1,.85-.24.92.92,0,0,1,.61.12,1.75,1.75,0,0,1,.73.24,2.17,2.17,0,0,1,.61.24c.24.13.36.13.6.25a14.28,14.28,0,0,1,2.44.6,14.81,14.81,0,0,1,2.43.86c.24,0,.48.12.72.12s.37.12.61.12c.73.24,1.34.36,2.07.6a10,10,0,0,1,1.94.61,5,5,0,0,0,.85.37,2.55,2.55,0,0,0,.73.48h.12l.24-.24c-.6-.61-1.21-1.09-1.94-1.7a21,21,0,0,1-1.94-1.58c-.85-.61-1.58-1.21-2.31-1.82s-1.46-1.34-2.19-2.07a8.92,8.92,0,0,1-1.09-1.21,1.36,1.36,0,0,1-.37-.85.79.79,0,0,1,.25-.85,14.42,14.42,0,0,1,1-1.34c.12,0,.24-.24.36-.36a1.62,1.62,0,0,1,.49-.49c.12-.24.24-.37.36-.61a.68.68,0,0,0,.13-.48,1.82,1.82,0,0,1,1.45-.37,1.86,1.86,0,0,1,1.34.73l3.28,3.16c.12.24.24.36.36.61a1.66,1.66,0,0,0,.37.48,2.85,2.85,0,0,0,.73.61c.24.24.48.36.6.61a3.17,3.17,0,0,1,.85,1,7.43,7.43,0,0,0,1,1l.72.73.74.73a2.51,2.51,0,0,1,.36.61c.24.12.36.36.48.48s.49.37.73.49.37.36.61.49c.24.36.61.6.85,1a5.68,5.68,0,0,1,.85,1c.12,0,.37.24.61.48s.49.49.73.73l.73.73.36.37a1.19,1.19,0,0,1,.12,1.09c-.12.36-.36.73-.48,1.09l-.37.37c-.12.12-.24.36-.48.48s-.37.37-.49.61-.24.24-.24.36ZM253.59,225c.73.85,1.58,1.71,2.43,2.68s1.46,1.94,2.07,2.91a5.87,5.87,0,0,1,.36,1.1c.12.36.24.85.37,1.33s.12,1,.24,1.46a3,3,0,0,0,.12,1.09v1c-.12.36-.12.85-.24,1.33a3.43,3.43,0,0,1-.25,1.22,1.9,1.9,0,0,1-.24,1,2.17,2.17,0,0,1-.24.61l-.37.73a2.42,2.42,0,0,0-.48.73c-.12.24-.25.36-.37.6s-.12.25-.24.37-.12.24-.24.36l-1.7,1.58a4.69,4.69,0,0,1-.73.61,12.67,12.67,0,0,1-1.22.73,6.25,6.25,0,0,1-1.21.61c-.37.24-.73.36-.85.48a8.75,8.75,0,0,1-2.07.49h-2.55a21.79,21.79,0,0,1-2.43-.49,6,6,0,0,1-1.82-.73,2.72,2.72,0,0,0-.61-.36,4.34,4.34,0,0,0-.85-.61c-.24-.12-.49-.36-.73-.49s-.36-.36-.48-.36c-.25-.24-.37-.49-.61-.73a5.88,5.88,0,0,0-.61-.85,15.27,15.27,0,0,1-2.31-2.67,19.4,19.4,0,0,1-1.58-3.16c0-.12-.12-.24-.12-.49v-.85a1.54,1.54,0,0,1-.12-.73v-2.67l.36-2.19a7.91,7.91,0,0,1,2.07-3.76c.12-.12.36-.25.61-.49a3.17,3.17,0,0,1,1-.85,6.15,6.15,0,0,1,1-.85,1.11,1.11,0,0,1,.61-.36l.73-.37a6,6,0,0,0,.85-.36,5.88,5.88,0,0,0,.85-.61,2.47,2.47,0,0,1,1-.49h.24a1,1,0,0,1,.49-.12h1a3.83,3.83,0,0,1,1.22-.12,3,3,0,0,1,1.45,0,6,6,0,0,1,1.46.12,9.37,9.37,0,0,1,1.1.37c.36.24.72.36,1.09.6a6.13,6.13,0,0,0,1,.73c.12,0,.24.12.37.25s.36.12.48.24a1.72,1.72,0,0,1,.49.36c.24,0,.24.12.36.12Zm-5,5.35a108.72,108.72,0,0,0-2.19-1,3.61,3.61,0,0,0-1.21-.24,4.68,4.68,0,0,0-1.22.12,2.75,2.75,0,0,0-1.21.36c-.37.24-.61.49-1,.73-.12.12-.25.37-.49.61a2.11,2.11,0,0,1-.36.73,6.28,6.28,0,0,0-.49,1.94,7.52,7.52,0,0,0,.12,1.7,4.25,4.25,0,0,0,.73,1.7,4.82,4.82,0,0,0,1.22,1.46,7.33,7.33,0,0,0,1.94,1.46,4.43,4.43,0,0,0,2.19.85,4.53,4.53,0,0,0,2.19-.12,3.84,3.84,0,0,0,2.06-1.1,2,2,0,0,0,.49-.85c.12-.24.24-.6.36-.85.24-.48.36-.85.49-1.09s.12-.36.12-.61a5,5,0,0,1-.12-.61,6.42,6.42,0,0,1-.37-1c-.12-.24-.12-.36-.24-.61a.72.72,0,0,0-.12-.48c0-.12-.12-.24-.37-.49a3.73,3.73,0,0,0-1-1c-.24-.36-.61-.73-.85-1.09a4.69,4.69,0,0,1-.73-.61Z" transform="translate(-99.3 -84.08)"/><path class="faa61dc0-be62-4628-ae6c-9c0294951734" d="M268.9,206.43a16.71,16.71,0,0,1,1.58,1.94,8.28,8.28,0,0,1,1.09,2.07,6.61,6.61,0,0,1,.37,2.18,9.69,9.69,0,0,1-.25,2.55.76.76,0,0,0-.12.49c-.12.24-.12.36-.24.61a5.42,5.42,0,0,0-1,1.33,3.49,3.49,0,0,1-1,1.34,16,16,0,0,1-1.46,1.34,7.28,7.28,0,0,0-1.58,1.21,2.14,2.14,0,0,0-.61,1,.81.81,0,0,0,.24.85l1.22,1.22a10.16,10.16,0,0,1,1.21,1.09,1.62,1.62,0,0,1,.49.49c.24.24.37.48.61.73a1.2,1.2,0,0,1,.48.6,2,2,0,0,1,.25.61c-.12.25-.25.49-.37.73l-.36.73c-.37.36-.61.73-1,1.09s-.61.73-1,1.1a3.07,3.07,0,0,1-1.45.85,1.34,1.34,0,0,1-1.46-.61,10.18,10.18,0,0,1-1.58-1.7l-1.7-1.7a1.94,1.94,0,0,0-.49-.37,1.66,1.66,0,0,0-.48-.36c-1-1.09-2.07-2.19-3-3.28s-2.07-2.19-3-3.28c-.12-.12-.36-.12-.48-.25a.63.63,0,0,1-.49-.24l-.73-.73a2.18,2.18,0,0,0-.61-.85c-.36-.24-.73-.61-1.09-.85a5.32,5.32,0,0,1-1-.85,2.78,2.78,0,0,1-.73-1.09,1.57,1.57,0,0,1,0-1.46,3.31,3.31,0,0,1,1-.85,5.68,5.68,0,0,1,.85-.85,8.28,8.28,0,0,0,1.09-1.22l1.1-1.09a6.15,6.15,0,0,1,1-.85c.36-.24.73-.61,1.09-.85s.49-.61.73-1,.61-.73.85-1a4.88,4.88,0,0,1,.85-.73,9.59,9.59,0,0,1,1.22-.85c.36-.24.85-.49,1.21-.73a10.58,10.58,0,0,1,1-.61,16.28,16.28,0,0,1,2.19-.61,5.13,5.13,0,0,1,1.95.37,5.53,5.53,0,0,1,1.94.85,21.4,21.4,0,0,0,1.7,1.46Zm-11.66,8.38a6.49,6.49,0,0,1,.48.73c.25.36.61.61.85,1l1,1a3.23,3.23,0,0,1,.61.73,2.24,2.24,0,0,0,1.1.49c.36.12.72-.13,1.09-.49a3.07,3.07,0,0,0,.61-.73,4.26,4.26,0,0,0,.6-1,6.13,6.13,0,0,0,.61-.49c.24-.24.37-.48.61-.72a2.13,2.13,0,0,0,.49-.86c.12-.24.24-.48.12-.6a9.44,9.44,0,0,0-.49-1.34l-.73-1.09a3.63,3.63,0,0,0-1.21-.61,1.81,1.81,0,0,0-1.34.24l-2.19,1.83c-.73.6-1.45,1.21-2.18,1.94Zm32.07-25.52c.85.86,1.58,1.71,2.43,2.68s1.46,1.94,2.07,2.91a5.87,5.87,0,0,1,.36,1.1,4.61,4.61,0,0,1,.37,1.33c.12.49.12,1,.24,1.34s.12.85.12,1.22v1a4.57,4.57,0,0,0-.12,1.33,4.4,4.4,0,0,0-.24,1.22,1.94,1.94,0,0,1-.37.85,1.79,1.79,0,0,1-.24.73l-.37.73-.36.73a1.78,1.78,0,0,0-.37.6c-.12.12-.12.25-.24.37l-.36.36-1.58,1.58a4.69,4.69,0,0,1-.73.61,5.35,5.35,0,0,0-1.22.61c-.48.24-.85.48-1.33.73s-.73.36-.85.48a9.17,9.17,0,0,1-2.07.37,16.48,16.48,0,0,1-2.43.12,14.51,14.51,0,0,1-2.43-.49,10.39,10.39,0,0,1-1.94-.73,2.72,2.72,0,0,0-.61-.36,4.8,4.8,0,0,0-.85-.61,2.83,2.83,0,0,0-.73-.49l-.36-.36a4.88,4.88,0,0,1-.73-.85,3.28,3.28,0,0,0-.61-.73,15.27,15.27,0,0,1-2.31-2.67,19.4,19.4,0,0,1-1.58-3.16,1.36,1.36,0,0,0-.12-.61v-.73a1.58,1.58,0,0,0-.12-.73v-.48a14.15,14.15,0,0,1,.12-2.31,12.17,12.17,0,0,1,.24-2.07c.25-.73.49-1.33.73-2.06a9,9,0,0,1,1.34-1.7,3,3,0,0,0,.61-.61c.36-.24.6-.49,1-.73a6.15,6.15,0,0,1,1-.85c.24-.24.49-.36.61-.49a5.56,5.56,0,0,1,.85-.36l.73-.36a2,2,0,0,0,.85-.49,3.69,3.69,0,0,1,1-.49c.12,0,.12-.12.36-.12h1c.12,0,.24-.12.36-.12a4.64,4.64,0,0,0,1.22-.12H283c.49.12,1,.12,1.46.24a1.48,1.48,0,0,1,1.1.37,4.8,4.8,0,0,1,1.09.61,6.79,6.79,0,0,0,1,.72c.12,0,.24.12.37.25s.36.12.6.24a.63.63,0,0,0,.49.24l.24.24Zm-4.86,5.23a11.91,11.91,0,0,1-1.21-.37,2.34,2.34,0,0,0-1.1-.48,1.81,1.81,0,0,0-1.09-.24,4.63,4.63,0,0,0-1.34,0,4.32,4.32,0,0,0-1.09.48,2.2,2.2,0,0,0-1.09.73c-.13.12-.25.37-.49.61l-.36.73a9.46,9.46,0,0,0-.49,1.82,9.23,9.23,0,0,0,.12,1.82c.25.61.49,1.22.73,1.7a12.1,12.1,0,0,0,1.22,1.46,7.12,7.12,0,0,0,1.94,1.46,8.26,8.26,0,0,0,2.19.85,5.06,5.06,0,0,0,2.3-.12,3.76,3.76,0,0,0,1.95-1.22,1.83,1.83,0,0,0,.61-.73c.12-.24.24-.6.36-.85a5,5,0,0,1,.37-1.09,5.45,5.45,0,0,1,.12-.61,1.08,1.08,0,0,0-.12-.6,5.13,5.13,0,0,1-.37-1.1.72.72,0,0,1-.12-.48.76.76,0,0,1-.12-.49,3,3,0,0,1-.49-.61,6.47,6.47,0,0,1-.85-1,7.39,7.39,0,0,1-1-1,8.84,8.84,0,0,1-.61-.73Zm26-5.71h0l-.36.36-1.7,1.46c-.13,0-.13.12-.25.24a.27.27,0,0,0-.24.25c-.24.24-.49.36-.61.6a1.65,1.65,0,0,0-.36.86,6.85,6.85,0,0,0-1,1.09l-1,1a9.09,9.09,0,0,1-1.7,1.58,1.93,1.93,0,0,1-1.21.49,2.71,2.71,0,0,1-1.34-.37,9.41,9.41,0,0,1-1.7-1.58,3.61,3.61,0,0,1-.61-.73,2.11,2.11,0,0,0-.48-.6c-.37-.25-.61-.61-1-.85s-.74-.61-1-.86c-.48-.48-.85-1-1.33-1.45a12.26,12.26,0,0,0-1.22-1.46,6.22,6.22,0,0,0-1.09-.85,6.79,6.79,0,0,1-1.1-.85,5.81,5.81,0,0,1-.72-.85,5.41,5.41,0,0,0-.73-.85l-.61-.61-1.09-1.09a5.05,5.05,0,0,0-1.22-1.1c-.24-.24-.48-.36-.73-.6a3,3,0,0,1-.73-.49,1.45,1.45,0,0,1-.48-1,7.84,7.84,0,0,1,.36-1c.25-.37.49-.61.73-1l.37-.73c.24-.12.6-.48,1-.72a2.78,2.78,0,0,1,1.09-.73,1.75,1.75,0,0,1,1.09-.25,1.72,1.72,0,0,1,1.22.61,1.22,1.22,0,0,1,.48.61,1.91,1.91,0,0,1,.49.61c.24.24.49.36.73.6s.36.37.61.61.36.49.6.73.37.49.61.61a2.28,2.28,0,0,0,.61.48,1.3,1.3,0,0,1,.61.49,2.19,2.19,0,0,1,.6.85,2.59,2.59,0,0,0,.61,1,2.18,2.18,0,0,0,.85.61c.24.24.61.49.85.73a1.86,1.86,0,0,1,.37.48,1.59,1.59,0,0,0,.36.49,3.13,3.13,0,0,0,.61.37,2.51,2.51,0,0,0,.61.36,1.13,1.13,0,0,0,.48.73c.25.24.37.49.61.73a.37.37,0,0,0,.49.12.72.72,0,0,0,.48-.12c.12-.12.37-.24.49-.37s.24-.12.36-.24a15.64,15.64,0,0,0,1.34-1.58,5.51,5.51,0,0,1,1.21-1.58,5,5,0,0,1,.73-.73,5.68,5.68,0,0,1,.85-.6c.25-.13.61-.25.85-.37a1.74,1.74,0,0,1,.85.24l.73.85a6.24,6.24,0,0,0,1,.73c.36.12.6.49,1,.73a2.45,2.45,0,0,1,.48,1A3.62,3.62,0,0,1,312,187c-.24.36-.49.61-.73,1a5.68,5.68,0,0,0-.85.85Zm1-33.05a1,1,0,0,1,.25.49c0,.24.12.36.12.48a25.85,25.85,0,0,0,.24,3.16c.12,1.1.24,2.07.37,3.16a10.3,10.3,0,0,0,.48,1.83,13.35,13.35,0,0,1,.37,1.94,4.61,4.61,0,0,1,.12,1.34,5.46,5.46,0,0,1,.12,1.33l.48.49a2.77,2.77,0,0,0,.73,1c.25.24.49.61.73.85s.37.49.49.49a1.2,1.2,0,0,0,.6.48,1.91,1.91,0,0,1,.61.49l.85.85a5.68,5.68,0,0,1,.85,1,3,3,0,0,0,.73.49c.25.12.49.36.73.48a1.67,1.67,0,0,1,.61,1.1,3,3,0,0,1-.24,1.09c-.25.36-.49.73-.73,1.09a5.67,5.67,0,0,0-.85.85c-.25.25-.61.49-1,.85a6.17,6.17,0,0,1-1,.61,1.35,1.35,0,0,1-1,0,1.65,1.65,0,0,1-1.09-.61,5.32,5.32,0,0,1-.85-1,3.46,3.46,0,0,0-.85-1,3.52,3.52,0,0,0-.73-.61c-.24-.24-.49-.48-.73-.73l-.73-.73a5.83,5.83,0,0,0-.73-.85,5.67,5.67,0,0,0-.85-.85,5.92,5.92,0,0,0-.85-.73c0-.12-.24-.12-.61-.24a3.38,3.38,0,0,1-1.09-.12h-1.22a2.13,2.13,0,0,0-.73-.12l-1.57-.36c-.37-.13-1-.13-1.46-.25a3.5,3.5,0,0,1-1.09-.24,3.71,3.71,0,0,0-1.1-.25,13.65,13.65,0,0,0-2.31-.24,7.73,7.73,0,0,1-2.31-.36.42.42,0,0,0-.24-.12c-.12-.12-.24-.25-.36-.25a1.88,1.88,0,0,1-.37-1,1.58,1.58,0,0,1,.37-1,3.22,3.22,0,0,1,.6-.73c.25-.12.25-.37.37-.37s.24-.24.48-.6.61-.49,1-.73.72-.61,1-.85.48-.37.6-.37a2.16,2.16,0,0,1,1-.12,7.87,7.87,0,0,1,1.58.25,14.21,14.21,0,0,1,1.82.48,9,9,0,0,1,1.94.49c.61.12,1.22.36,1.7.48a5,5,0,0,0,1.22.25v.12l.24-.12c0-.12-.12-.12-.12-.25a4.23,4.23,0,0,0-.73-1.7c-.24-.48-.48-1.09-.73-1.58a5.2,5.2,0,0,1-.12-.6v-.61a6,6,0,0,1-.48-1.34,2.12,2.12,0,0,1-.25-1.21,2,2,0,0,1,.25-1.22,2.52,2.52,0,0,1,.72-1.21c0-.12.25-.25.61-.61s.61-.61,1-.85a6.27,6.27,0,0,1,1.1-.85,2.07,2.07,0,0,1,.48-.36,1.7,1.7,0,0,1,.85-.25.81.81,0,0,1,.73.12Z" transform="translate(-99.3 -84.08)"/></svg>