<svg xmlns="http://www.w3.org/2000/svg" viewBox="0 0 950.88 665.76"><defs><style>.a{fill:#151d38;}.b{fill:#e894af;}.c{fill:#ccd6da;}.d{fill:#acdcf6;}.e{fill:#fae0d6;}.f{fill:#ebbe62;}.g{fill:#fff;}.h{fill:#e5384a;}.i{fill:#7da4ec;}</style></defs><title>userCogImage</title><path class="a" d="M687.64,667.88c-2.11-.61-4.28-.36-6.42-.4-15.34-.3-30.67-1.08-46-2.16-11.48-.81-22.94-1.88-34.31-3.72a87.32,87.32,0,0,1-12.85-2.87,11.61,11.61,0,0,1-4.28-2.08c-1.16-1-1.13-2,.07-3a10.82,10.82,0,0,1,3.41-1.71,80.84,80.84,0,0,1,14.24-3.22c15.25-2.37,30.63-3.51,46-4.41,13.88-.81,27.78-1.24,41.68-1.58,17.91-.44,35.82-.4,53.72-.12,16.38.27,32.75.84,49.1,1.91,13,.84,26,1.87,38.88,3.74a118.37,118.37,0,0,1,14.34,2.82,23.18,23.18,0,0,1,5.15,1.93c.9.5,1.89,1,1.85,2.27s-.95,1.61-1.78,2.08a21.65,21.65,0,0,1-4.91,1.88,132.6,132.6,0,0,1-17.89,3.34c-16.5,2.16-33.08,3.24-49.69,4q-14.12.69-28.26,1a3.91,3.91,0,0,0-2.11.3Z" transform="translate(-257.56 -2.12)"/><path class="a" d="M508.12,2.12a7,7,0,0,1,.67,3.22c.51,10,3.84,18.89,11.09,26a27.32,27.32,0,0,0,18.36,8.25l.47,0c1,0,2,.18,2,1.49s-1.06,1.4-2.05,1.46c-12.78.82-21,8-26.31,19.07A38.41,38.41,0,0,0,508.78,77c0,.56,0,1.12-.12,1.67a1.29,1.29,0,0,1-1.47,1.24,1.26,1.26,0,0,1-1.29-1.17c-.1-.79-.09-1.6-.14-2.39-.6-9.69-3.91-18.23-10.81-25.18a27.57,27.57,0,0,0-18.74-8.52l-1,0a1.4,1.4,0,0,1-1.46-1.31,1.42,1.42,0,0,1,1.46-1.56c1.35-.13,2.72-.15,4.05-.37,7.46-1.2,13.37-5.07,18.06-10.86a38.09,38.09,0,0,0,8.4-22.75c.06-1.27-.07-2.57.92-3.6Zm21.29,39.21a.91.91,0,0,0-.63-.7,29,29,0,0,1-4.53-2.18c-8-4.84-13.17-11.94-16.18-20.71-.19-.56-.2-1.56-.75-1.54s-.62,1-.83,1.58c-3.65,10.35-10,18.3-20.29,22.7-.37.15-.88.24-.92.66s.53.47.84.63c1.08.53,2.2,1,3.25,1.54,8.24,4.53,13.53,11.52,16.78,20.2.25.67.43,1.37.69,2,.08.2.27.48.44.51.45.08.37-.38.47-.63.24-.59.44-1.2.65-1.8A39.26,39.26,0,0,1,514.89,52a33.16,33.16,0,0,1,13.23-10C528.56,41.73,529,41.52,529.41,41.33Z" transform="translate(-257.56 -2.12)"/><path class="a" d="M257.56,414.92c.95-.07,1.74-.64,2.74-.71,5.07-.4,8.81-3.06,11.54-7.23a19.13,19.13,0,0,0,3.1-9c.07-.79.15-1.59.25-2.38a1.29,1.29,0,0,1,1.23-1.25,1.37,1.37,0,0,1,1.53,1.21,13.42,13.42,0,0,1,.15,1.91,19.29,19.29,0,0,0,4.4,11.19,14.6,14.6,0,0,0,10,5.53c.48,0,1,.07,1.43.16a1.23,1.23,0,0,1,1.07,1.36,1.32,1.32,0,0,1-1.08,1.39,5.88,5.88,0,0,1-.95.11c-5.2.37-9,3.06-11.75,7.3a17.91,17.91,0,0,0-3.11,9.93c0,1.83-.72,2.58-1.48,2.6-1,0-1.48-.52-1.6-2.47a20.16,20.16,0,0,0-2.61-9.13c-2.79-4.75-6.71-7.88-12.42-8.22a7.81,7.81,0,0,1-2.45-.89Zm28.73.71a1.7,1.7,0,0,0-.34-.32,20.74,20.74,0,0,1-9-10c-.51-1.12-.82-.17-1,.24a20.22,20.22,0,0,1-8.46,9.51c-.77.44-.89.83,0,1.31a20,20,0,0,1,8.47,9.49c.13.29.36.74.54.74.42,0,.55-.48.71-.82a20.71,20.71,0,0,1,5.18-7.11,19.18,19.18,0,0,1,3.32-2.35A1.15,1.15,0,0,0,286.29,415.63Z" transform="translate(-257.56 -2.12)"/><path class="a" d="M1208.44,460a4.4,4.4,0,0,1-1.32.48c-7.37.11-13.61,6.42-15.1,14.37a20.2,20.2,0,0,0-.43,3.8c0,1-.41,1.8-1.48,1.78s-1.35-.85-1.4-1.84a20.75,20.75,0,0,0-3.74-11.44,15.09,15.09,0,0,0-11.16-6.62,7.74,7.74,0,0,1-1.19-.12,1.33,1.33,0,0,1-1-1.42,1.35,1.35,0,0,1,1-1.24,3.69,3.69,0,0,1,1-.12c7.1-.68,11.33-4.92,13.87-11.24a21.49,21.49,0,0,0,1.33-6.78c.06-1,.23-1.78,1.36-1.89.92-.09,1.45.59,1.52,2a19.8,19.8,0,0,0,5.68,13.58,14.46,14.46,0,0,0,9.11,4.3,4.44,4.44,0,0,1,2.06.49ZM1190,448.22a5.49,5.49,0,0,0-.41.62,20.51,20.51,0,0,1-8.58,9.66c-1,.55-.53.93.13,1.31a20,20,0,0,1,8.3,9.29c.14.3.16.86.7.78s.49-.56.66-.91a20.58,20.58,0,0,1,8-9c1.35-.81,1.34-.9-.11-1.8a20.1,20.1,0,0,1-7.56-8.42c-.18-.36-.33-.73-.54-1.07A3,3,0,0,0,1190,448.22Z" transform="translate(-257.56 -2.12)"/><path class="a" d="M692.34,153.62q57.72,0,115.43,0a6.64,6.64,0,0,0,4.88-1.88c11.62-10.54,25.11-13.72,40.29-9.89a8.58,8.58,0,0,1,1.8.65,1.3,1.3,0,0,1,.69,1.62,1.25,1.25,0,0,1-1.44,1,16.68,16.68,0,0,1-2.09-.49,39.18,39.18,0,0,0-48.32,27.92c-5.94,22.46,9.51,45.35,32.48,48.58A39.34,39.34,0,0,0,880,189.25a38.21,38.21,0,0,0-3.58-24.47,15.12,15.12,0,0,1-.82-1.73,1.33,1.33,0,0,1,.69-1.62,1.23,1.23,0,0,1,1.72.31,10,10,0,0,1,1.11,1.84,38.57,38.57,0,0,1,3.74,11.34c.32,2,.36,2,2.37,2.28,5,.75,10,1.39,15,2.09q16.27,2.29,32.53,4.6t32.53,4.53l35.38,5,32.77,4.6,32.52,4.61c7.28,1,14.56,2.07,21.85,3,6.51.86,10.15,5.27,9.31,11.81-1.25,9.75-2.67,19.47-4,29.21s-2.76,19.63-4.15,29.44q-2.3,16.26-4.59,32.53t-4.52,32.29q-2.31,16.38-4.63,32.76t-4.53,32.54q-2.47,17.68-5,35.37-2.31,16.38-4.6,32.77t-4.6,32.52q-2.26,16.15-4.51,32.3-2.49,17.81-5,35.62c-1.06,7.59-2.14,15.19-3.17,22.8-.69,5.15-3.31,8.37-7.81,9.51a10.42,10.42,0,0,1-4.05.12c-11.79-1.66-23.58-3.36-35.37-5-13.06-1.84-26.12-3.63-39.18-5.46q-17.7-2.47-35.38-5-16.38-2.31-32.77-4.59c-10.84-1.53-21.68-3.09-32.52-4.61s-21.69-3-32.54-4.53q-17.68-2.47-35.37-5L756,568.46c-1.74-.24-3.49-.45-5.2-.82a9.58,9.58,0,0,1-7.38-6.82c-.62-1.83-.59-1.86-2.63-1.86H687.25c-1.8,0-1.8,0-2.08,1.71a10,10,0,0,1-9,8.68c-4.74.7-9.5,1.33-14.25,2q-14.49,2-29,4L600.22,580l-32.76,4.62q-14.36,2-28.73,4l-32.53,4.59-32.29,4.52q-16.5,2.32-33,4.66l-32.54,4.53c-3.88.54-7.76,1-11.62,1.7a10.16,10.16,0,0,1-12.12-8.72c-1.09-8.72-2.44-17.41-3.67-26.12q-2-14.47-4.06-29-2.28-16.26-4.58-32.53t-4.62-32.76q-2.28-16.26-4.54-32.53t-4.56-32.29q-2-14.49-4.06-29-2.28-16.26-4.59-32.53t-4.52-32.29q-2.31-16.38-4.63-32.76c-1.52-10.85-3-21.7-4.53-32.54q-2.5-17.81-5-35.61a12.09,12.09,0,0,1,.51-6.84,9.68,9.68,0,0,1,7.83-6c7.12-1.05,14.25-2,21.37-3q16-2.24,32.06-4.5l29.2-4.12,32.06-4.49,32.52-4.6L520,181.82l28.73-4c5.07-.71,10.14-1.41,15.2-2.15,2-.31,2.06-.37,2.08-2.37,0-3.2.12-6.4,0-9.59a9.84,9.84,0,0,1,9.94-10.09c.72,0,1.44,0,2.16,0Z" transform="translate(-257.56 -2.12)"/><path class="b" d="M568.87,356.36V546.68c0,.88,0,1.76,0,2.64a6.94,6.94,0,0,0,6.68,6.83c.72,0,1.44,0,2.16,0H857.56c.72,0,1.44,0,2.16,0a7,7,0,0,0,6.65-5.86,22.1,22.1,0,0,0,.27-4.3V220.08c0-.4,0-.8,0-1.2-.07-.68.33-1.6-.37-2s-1.27.41-1.84.78a41.63,41.63,0,0,1-30.78,6.06c-29.25-5.3-43.74-39.31-27.48-64.3.55-.84,1.8-1.74,1.37-2.58s-1.89-.37-2.89-.37q-113.4,0-226.8-.09c-5.93,0-9.07,3.11-9.06,8.94Q569,260.85,568.87,356.36Z" transform="translate(-257.56 -2.12)"/><path class="c" d="M804.1,559H749.38c-.64,0-1.28,0-1.92,0-1.39.07-1.65.48-1.06,1.8a7.25,7.25,0,0,0,5.91,4.34c2.69.42,5.39.74,8.08,1.12l25.4,3.55,25.64,3.62c10.76,1.51,21.53,3,32.29,4.51q16.38,2.3,32.75,4.63c9.58,1.35,19.16,2.67,28.73,4q16.26,2.28,32.52,4.6c10.76,1.51,21.53,3,32.29,4.49l33,4.66c9.49,1.34,19,2.63,28.48,4,5.25.77,8.59-1.51,9.37-6.7.9-5.93,1.69-11.87,2.51-17.8q2.27-16.27,4.52-32.54t4.62-32.51c1.52-10.84,3-21.69,4.54-32.53s3.06-21.68,4.58-32.52q2-14.37,4-28.73,2.56-18.15,5.13-36.32,2-14.36,4-28.72,2.31-16.38,4.63-32.76t4.57-32.52l4-28.49q2.07-14.72,4.13-29.44c.75-5.38,1.59-10.75,2.18-16.15.46-4.29-2.15-7.44-6.42-8.07-4.66-.69-9.33-1.31-14-2q-16.28-2.27-32.53-4.53c-11.87-1.67-23.74-3.38-35.61-5.05-10.84-1.53-21.69-3-32.53-4.52-13.05-1.84-26.1-3.72-39.16-5.56q-21.95-3.1-43.91-6.18c-1.59-.23-3.17-.45-4.76-.61-1.87-.19-1.87-.16-1.88,1.62,0,.24,0,.48,0,.72a41.35,41.35,0,0,1-12.58,29.91,4.81,4.81,0,0,0-1.53,3.77c0,14.4,0,28.8,0,43.2,0,.76-.38,1.86.31,2.21s1.29-.67,1.9-1.12c3.64-2.68,7.57-4.1,12.14-2.9a12.06,12.06,0,0,1,6.19,3.91c.82.95,1.35.89,2,0a6.17,6.17,0,0,1,.48-.54,46.59,46.59,0,0,1,24.14-13.46c9.56-2.16,19-1.55,28.53.54,19.57,4.3,34.8,14.79,45.43,31.86a120.61,120.61,0,0,1,11.42,25c2.48,7.26,4.52,14.66,6.79,22a64.82,64.82,0,0,0,4.79,12.26c1.58,2.86,3.47,5.41,6.92,6.19a1.42,1.42,0,0,1,1.3,1.47c0,.86-.58,1.27-1.32,1.48-1.3.38-2.61.74-3.92,1.11-1.67.47-1.69.48-1,2a24.24,24.24,0,0,1,1.91,6.9,34.21,34.21,0,0,1-.23,9.8c-.66,4.86-1.86,9.58-4.74,13.69a3.44,3.44,0,0,0-.54,2.26,97,97,0,0,1-1.42,20.06,3.18,3.18,0,0,0,.62,2.66c1.28,1.74,2.54,3.5,3.82,5.23s1.33,2.13-.25,3.61a68.58,68.58,0,0,1-7.21,6,11.46,11.46,0,0,0-3.94,4.85,92.86,92.86,0,0,1-101,53,92.3,92.3,0,0,1-31.5-11.75c-1.58-.94-1.68-.89-1.68.91q0,15.12,0,30.24c0,1.86,0,1.89,1.79,2.14l24.22,3.4q17.81,2.49,35.62,5c10.85,1.52,21.68,3.09,32.52,4.61q19.59,2.75,39.19,5.46c.63.09,1.26.21,1.88.36a1.4,1.4,0,0,1-.43,2.77,15.53,15.53,0,0,1-1.66-.16c-5.23-.73-10.45-1.48-15.67-2.22q-16.15-2.26-32.3-4.52l-32.53-4.59-29.44-4.16q-10.56-1.49-21.13-3c-2-.27-2.06-.21-2.06,1.74q0,9.36,0,18.72c0,1.78,0,1.78,1.88,2l34.9,4.89a9.25,9.25,0,0,1,1.41.27,1.31,1.31,0,0,1,1.05,1.63,1.44,1.44,0,0,1-1.57,1.19,7.85,7.85,0,0,1-1-.16l-27.54-3.87c-2.61-.37-5.23-.72-7.84-1.07-.84-.12-1.42.06-1.35,1.09,0,.56,0,1.12,0,1.68,0,5.2,0,10.4,0,15.6a14.86,14.86,0,0,1-.62,4.74c-1.38,4.18-5,6.69-9.76,6.69Q831.58,559,804.1,559Z" transform="translate(-257.56 -2.12)"/><path class="d" d="M566,228.14V181.58c0-.72,0-1.44,0-2.16s-.35-1-1.08-.91c-.39.07-.79.12-1.19.17l-37.27,5.25q-23.16,3.24-46.31,6.44c-16.47,2.32-32.92,4.69-49.38,7-15.44,2.17-30.88,4.29-46.31,6.45-14.57,2-29.12,4.12-43.69,6.15-5,.7-7.46,4.09-6.73,9.14,1.58,10.84,3.09,21.68,4.61,32.52s3,21.54,4.51,32.3q2.29,16.38,4.62,32.77,2,14.25,4,28.49,2.3,16.28,4.61,32.53t4.54,32.53q2.29,16.39,4.62,32.77l4.62,32.76q2,14.13,4,28.26,2.28,16.27,4.54,32.54,2.31,16.5,4.65,33c1.42,10,2.81,20.11,4.29,30.15a7,7,0,0,0,8.3,6c2.85-.42,5.7-.82,8.55-1.22L436.75,600q16.28-2.28,32.53-4.6l28.73-4,33.24-4.69,32.06-4.51c11.79-1.66,23.58-3.35,35.37-5l32.54-4.53L664.46,568c3.64-.51,7.28-1,10.92-1.51a7.5,7.5,0,0,0,6.28-4.22c1.3-2.72.9-3.33-2.06-3.34h-2.16c-33.68,0-67.36-.06-101,.06-5.44,0-10.65-4.29-10.42-10.38.21-5.36,0-10.72,0-16.08,0-.64,0-1.28,0-1.92,0-.8-.38-1.17-1.2-1.08a23.79,23.79,0,0,1-2.39.18,1.37,1.37,0,0,1-.45-2.66,9.5,9.5,0,0,1,1.87-.34c2.16-.31,2.18-.3,2.19-2.54q0-8.64,0-17.28c0-3.08,0-3.06-3.06-2.62q-17.93,2.56-35.85,5.09c-16.46,2.31-32.93,4.57-49.4,6.89s-32.91,4.67-49.38,7c-1.5.21-3,.4-4.52.52a1.26,1.26,0,0,1-1.43-1.28,1.31,1.31,0,0,1,1-1.44,17.24,17.24,0,0,1,2.12-.41l31.11-4.37,42.74-5.95,57.7-8.12c2.46-.34,4.9-.72,7.36-1,1.16-.14,1.75-.65,1.6-1.87a9.59,9.59,0,0,1,0-1.2q0-16.68,0-33.36c0-.84.45-2.06-.36-2.45s-1.44.75-2.12,1.24c-22.19,16.29-46.9,22.43-73.9,17.07-30.84-6.11-53.15-23.85-66.71-52.17-8.09-16.9-10.26-34.83-7.49-53.36a90.08,90.08,0,0,1,4.29-16.94,2.75,2.75,0,0,0,.1-2.5c-2.27-4-3.22-8.49-3.82-13-.2-1.57-.22-1.58-1.72-1.36a17.4,17.4,0,0,1-4.78.17c-1.68-.21-2.12-1.16-1.33-2.7.11-.21.26-.41.39-.61a49.57,49.57,0,0,0,5.68-12.64c2.29-7.53,3.26-15.31,4.15-23.09.82-7.15,1.51-14.31,2.9-21.38,2.07-10.5,5.63-20.34,12.81-28.54a2.07,2.07,0,0,0,.33-2.58c-1.35-2.9-2.62-5.83-3.9-8.76a7,7,0,0,1-.63-1.8,1.22,1.22,0,0,1,1.36-1.54,6.63,6.63,0,0,1,1.64.28c1.84.52,3.67,1.1,5.52,1.6,1.44.38,1.49.33,1.62-1.1.16-1.83.29-3.66.43-5.5.07-1-.17-2.21,1-2.74s1.87.55,2.58,1.25c2.23,2.19,4.45,4.38,6.61,6.63a1.74,1.74,0,0,0,2.31.44c1.73-.82,3.48-1.61,5.29-2.26A129.14,129.14,0,0,1,512,228.81a57.44,57.44,0,0,1,22.49,6.27c9.14,4.78,15.85,12,21,20.83a150.87,150.87,0,0,1,8.81,18.63c.31.73.64,1.46,1,2.2.11.24.27.41.53.26a.54.54,0,0,0,.22-.39c0-.72,0-1.44,0-2.16Z" transform="translate(-257.56 -2.12)"/><path class="e" d="M566,372.53q0-18.48,0-37a24.9,24.9,0,0,0-.2-3.35c-1.12-7.51-2.3-15-3.39-22.52a2.31,2.31,0,0,0-1.65-2.07,18.58,18.58,0,0,1-5.14-3.05,26.27,26.27,0,0,1-6.75-8.33,3.26,3.26,0,0,0-3-1.87,53.38,53.38,0,0,1-28.35-11.24A13,13,0,0,0,514.7,281c-.12,1.37.85,2.3,1.47,3.33,3.89,6.38,8.37,12.14,15.93,14.5a1.4,1.4,0,0,1,1.09,1.41,1.43,1.43,0,0,1-1.06,1.43c-1.42.53-2.84,1.07-4.29,1.53a49.78,49.78,0,0,1-23,2,43,43,0,0,1-23.43-11.73c-.46-.44-.89-.92-1.39-1.32a.39.39,0,0,0-.67.3,8.06,8.06,0,0,0,.08,1.2,53.06,53.06,0,0,0,2.76,14.55c.73,2.11.1,2.84-2.12,2.55a18.09,18.09,0,0,1-4.15-1.13c-5.84-2.27-10-6.46-13.35-11.6a51,51,0,0,1-5-10.34c-.1-.28-.22-.71-.56-.7s-.29.47-.34.74A105.26,105.26,0,0,1,454.31,299c-3.5,12.42-9.34,23.44-19.31,31.94a2.65,2.65,0,0,0-.92,2.73c1.18,8.71,2.26,17.44,3.49,26.14a310.13,310.13,0,0,0,6.65,34.84c2.43,9.31,5.44,18.39,10.18,26.82s10.73,15.29,19.21,20c7.24,4,15.09,5.61,23.23,6.1a93,93,0,0,0,18.18-.9c8.74-1.2,17.3-3.12,25.39-6.79,11.41-5.16,19.82-13.3,24.66-25a12.55,12.55,0,0,0,1-4.88C566,397.49,566,385,566,372.53Z" transform="translate(-257.56 -2.12)"/><path class="e" d="M869.44,382.44c0,7,.14,14.08-.07,21.11a8.41,8.41,0,0,0,2.86,6.9c19,18.05,41.75,24.22,67.23,20,19.34-3.18,34.4-13.69,45.6-29.65,10.17-14.51,14.71-30.88,15.47-48.43.07-1.49-.07-1.61-1.84-1.78a48.92,48.92,0,0,1-21.59-7.37c-14-8.81-23.37-21.33-28.68-36.93-.18-.53-.35-1.06-.55-1.58,0-.12-.22-.18-.34-.26a1.56,1.56,0,0,0-.15.39c0,.48,0,1,0,1.44a127.82,127.82,0,0,0,1.42,16c.37,2.43,0,2.84-2.47,2.77a56.8,56.8,0,0,1-26.81-7.26c-9.59-5.44-17.15-12.77-21-23.4-.06-.15-.09-.3-.15-.45-.27-.69-.65-.6-1-.1s-.7,1.07-1.05,1.61a86.55,86.55,0,0,1-10.19,13,58.76,58.76,0,0,1-15,11.48c-.82.44-1.73.75-1.71,2,.06,4.08,0,8.16,0,12.24,0,.92.3,1.23,1.29,1.1a13,13,0,0,1,5,.14A11.12,11.12,0,0,1,873,357.35a21,21,0,0,1-2.63-.18c-.65-.08-.87.23-.89.79s0,1.28,0,1.92Z" transform="translate(-257.56 -2.12)"/><path class="f" d="M566,295.56h0c0-2.64,0-5.28,0-7.92a8,8,0,0,0-.77-3.46q-2-4.38-3.81-8.8c-3-7.09-6-14.13-10.18-20.6a48,48,0,0,0-19-17.5c-9.56-4.74-19.81-6-30.29-6a127.82,127.82,0,0,0-21.45,2.14c-9.47,1.69-18.72,4.11-27.41,8.37-2,1-2,1-3.71-.68s-3.39-3.4-5.1-5.08c-.21-.21-.42-.54-.79-.44s-.31.49-.33.78c-.14,1.43-.28,2.87-.37,4.3-.18,2.8-.57,3.1-3.19,2.38-1.39-.39-2.77-.8-4.15-1.2-.37-.11-.81-.36-1.11,0s.05.74.2,1.08c1.06,2.42,2.11,4.84,3.2,7.24a2.47,2.47,0,0,1-.45,3.05c-6.68,7.17-10.35,15.85-12.51,25.27s-2.88,19.11-4.08,28.7a113.53,113.53,0,0,1-3.8,19.5,58.91,58.91,0,0,1-4.45,10.59c-.17.33-.53.71-.12,1a1.32,1.32,0,0,0,.91.08,33.4,33.4,0,0,0,6.92-1.93c9.67-3.89,17.09-10.48,22.77-19.13,6.23-9.48,9.38-20.06,10.92-31.18.41-2.92.63-5.88.91-8.82.09-.92.45-1.56,1.43-1.58a1.41,1.41,0,0,1,1.46,1.31c.15.7.3,1.41.46,2.11,1.67,7.07,4.23,13.74,8.65,19.59a23.9,23.9,0,0,0,9.57,7.79c.65.28,1.46.88,2,.51s0-1.33-.13-2a60.29,60.29,0,0,1-1.73-16.87c0-.89.06-1.83,1.08-2.2s1.57.4,2.14,1.1c9.62,11.71,22,16.79,37.07,15.39a44.72,44.72,0,0,0,8.91-1.81c.37-.12.88-.1,1-.55.15-.63-.51-.71-.86-.94a29.37,29.37,0,0,1-5.06-4c-4.94-4.94-8.36-10.87-11.14-17.21-.8-1.82-1.45-3.72-2.17-5.58a1.44,1.44,0,0,1,.51-1.9,1.47,1.47,0,0,1,2.09.5c.25.32.47.65.71,1A45.75,45.75,0,0,0,521,282c10,7.18,21.2,10.19,33.42,9.7a4.74,4.74,0,0,1,1.19,0,1.43,1.43,0,0,1,1.28,1.49,1.23,1.23,0,0,1-1.17,1.29c-1,.14-2.07.2-3.1.27-.85.06-.93.46-.54,1.09,2.91,4.71,6.61,8.43,12.19,9.8,1.56.39,1.69.32,1.72-1.26C566.05,301.48,566,298.52,566,295.56Z" transform="translate(-257.56 -2.12)"/><path class="a" d="M869.44,291.8c0,7.6,0,15.19,0,22.79,0,.82-.49,2,.37,2.41s1.58-.55,2.31-1a64.1,64.1,0,0,0,18.05-17,101.09,101.09,0,0,0,6.92-10.65c.41-.73.9-1.36,1.87-1.19s1.15.95,1.27,1.79a28.84,28.84,0,0,0,7.2,15.16c9.66,11.18,22.1,16.78,36.69,17.93,1.46.11,1.54,0,1.39-1.66-.28-2.87-.62-5.73-.83-8.59a65.7,65.7,0,0,1,1.31-20,12.81,12.81,0,0,1,.74-2.27,1.3,1.3,0,0,1,1.61-.71,1.24,1.24,0,0,1,1,1.22,11.48,11.48,0,0,1-.06,1.43,32.25,32.25,0,0,0,.75,9.29,60.31,60.31,0,0,0,10.37,22.74c7.22,10,16.27,17.78,28.1,21.91a46.6,46.6,0,0,0,25.74,1.42c1.32-.29,1.37-.45.4-1.41a21.24,21.24,0,0,1-3.68-5,54.67,54.67,0,0,1-4.08-10c-2.27-7.24-4.39-14.53-6.7-21.76a123.77,123.77,0,0,0-13-28.75c-16.66-26.44-47.78-33.6-67.57-30.16a43.31,43.31,0,0,0-24.32,12.47c-1.06,1.09-2,2.31-3,3.44s-1.87,1.23-2.86-.07a21.89,21.89,0,0,0-1.74-2.29c-2.41-2.5-5.23-3.84-8.82-3.12-3.32.67-5.74,2.66-8,4.95a4.69,4.69,0,0,0-1.45,3.62C869.47,276.45,869.44,284.12,869.44,291.8Z" transform="translate(-257.56 -2.12)"/><path class="f" d="M869.44,437.57c0,7.68,0,15.36,0,23a3.65,3.65,0,0,0,2,3.64c21.36,12.84,44.17,16.69,68.49,11.12a88.87,88.87,0,0,0,31.46-14.29,3.85,3.85,0,0,0,2-3.92c-.34-3.5-.59-7-1-10.5a107.72,107.72,0,0,0-5-21.93c-.61-1.77-.67-1.78-2.24-.83A74.13,74.13,0,0,1,949,431.24a78.88,78.88,0,0,1-35.57,2.48c-16-2.37-30.14-8.79-42-20-.35-.33-.7-.66-1.06-1s-.86-.37-.91.34,0,1.28,0,1.92Z" transform="translate(-257.56 -2.12)"/><path class="a" d="M566,439.39c0-5.68,0-11.35,0-17,0-.45.17-1.09-.39-1.24-.39-.11-.57.46-.76.79-6.17,10.87-15.53,17.93-27.06,22.16a101.17,101.17,0,0,1-47.14,5.77,48.2,48.2,0,0,1-28.25-13c-1.45-1.37-2.73-2.92-4.1-4.37-1-1.07-1.15-1-1.6.44,0,.08,0,.16-.05.24a129.56,129.56,0,0,0-3.85,26.51,2.5,2.5,0,0,0,1.18,2.39,91.49,91.49,0,0,0,14.16,8.51,90.3,90.3,0,0,0,96.23-11.44,4.15,4.15,0,0,0,1.66-3.67C566,450.1,566,444.75,566,439.39Z" transform="translate(-257.56 -2.12)"/><path class="g" d="M428.77,373.16a87.09,87.09,0,0,0-.22-8.85,1.66,1.66,0,0,0-1.44-1.84,8.59,8.59,0,0,1-3.14-1.7c-1.63-1.22-1.64-1.22-2.26.63a85.43,85.43,0,0,0-4.25,21.33A90,90,0,0,0,448,457.18c.5.44,1,1.35,1.72,1s.34-1.28.39-2A129.76,129.76,0,0,1,454.47,430c.3-1,.61-1.91-.11-2.94a50.9,50.9,0,0,1-4.36-7.71c-.47-1-1-1.19-2.06-.76A37.64,37.64,0,0,1,436.25,421a25.36,25.36,0,0,1-6.45-.3c-1.43-.26-1.83-1.17-1.12-2.43a11.79,11.79,0,0,1,1-1.36,40.58,40.58,0,0,0,3.72-5.86,23.2,23.2,0,0,0,2.2-5.81c.18-.81,0-1.27-1-.8a17.85,17.85,0,0,1-2.44,1c-3.54,1.1-6.94.95-10-1.36-1.73-1.31-1.83-2-.55-3.76a32.19,32.19,0,0,0,4.93-10.58A67.23,67.23,0,0,0,428.77,373.16Z" transform="translate(-257.56 -2.12)"/><path class="a" d="M1012.2,413.44c0-.66-.58-1.08-1-1.57a78.11,78.11,0,0,1-10.17-18.42c-.84-2.15-1.58-4.35-2.31-6.55-.27-.8-.66-1.65-1.44-1.76s-.87,1-1.12,1.54c-5.68,13.37-14,24.71-25.69,33.45a2,2,0,0,0-.74,2.81A82.45,82.45,0,0,1,973,433.73c.2.86.47,1.7.59,2.57.16,1.21.77,1.19,1.63.73.28-.14.58-.26.87-.39a155.66,155.66,0,0,0,27.76-16.07c2.52-1.84,5-3.75,7.32-5.82A2.67,2.67,0,0,0,1012.2,413.44Z" transform="translate(-257.56 -2.12)"/><path class="f" d="M436.66,418a31,31,0,0,0,9.76-2c1.59-.61,1.62-.65,1-2.21-5.78-14.23-8.81-29.15-11.28-44.22-.37-2.28-.69-4.58-1.08-6.86-.07-.42-.1-1.15-.74-1a9.14,9.14,0,0,0-2.58,1.18c-.62.41-.25,1.2-.21,1.8a86.93,86.93,0,0,1-.69,18.87,43.06,43.06,0,0,1-5.37,16.26c-1.36,2.26-1.18,2.67,1.43,3.12a8.22,8.22,0,0,0,2.38.09,11.46,11.46,0,0,0,6.38-3c1.5-1.34,2.63-.89,2.93,1.1a14.08,14.08,0,0,1-.38,5.7,32.4,32.4,0,0,1-3.83,8.48c-.47.79-1.65,1.66-1.16,2.39s1.91.3,2.92.31C436.2,418.05,436.28,418,436.66,418Z" transform="translate(-257.56 -2.12)"/><path class="e" d="M1014.67,364.4a26.38,26.38,0,0,0-.32-7.47,15.6,15.6,0,0,0-1.63-4.74,2.58,2.58,0,0,0-3-1.66c-1.41.25-2.86.26-4.29.4-1.88.18-1.91.19-2,2.09A102,102,0,0,1,999,379c-1,3.2,1.13,5.76,4.49,5.47a8.23,8.23,0,0,0,5.35-2.91,17.93,17.93,0,0,0,3.69-6.4A37,37,0,0,0,1014.67,364.4Z" transform="translate(-257.56 -2.12)"/><path class="e" d="M434,355.88c0-.3-.09-.77-.16-1.25q-1.23-9.48-2.49-19c-.2-1.52-.26-1.59-1.55-.78a44.79,44.79,0,0,1-9.84,4.85c-1.1.36-1.26,1-1.14,2a35.94,35.94,0,0,0,3.35,12.15,14.44,14.44,0,0,0,3.35,4.33,7,7,0,0,0,3.84,1.8A4,4,0,0,0,434,355.88Z" transform="translate(-257.56 -2.12)"/><path class="g" d="M974.49,441.2c.79,5.24,1.37,10.08,1.68,14.95.05.76.55.69,1,.32,1.22-1,2.44-2.07,3.6-3.16a88.17,88.17,0,0,0,18.13-24c.28-.54,1-1.2.56-1.67s-1.09.27-1.58.57c-3.92,2.46-7.93,4.79-12,6.95q-4.87,2.56-9.94,4.76C975.15,440.26,974.32,440.52,974.49,441.2Z" transform="translate(-257.56 -2.12)"/><path class="h" d="M869.44,346.11c0,2,.06,4,0,6a1.86,1.86,0,0,0,1.62,2.2,8.36,8.36,0,0,0,8.63-3.39,8.1,8.1,0,0,0-.11-9.44,8.3,8.3,0,0,0-8.69-3.2,1.64,1.64,0,0,0-1.45,1.84C869.49,342.11,869.44,344.11,869.44,346.11Z" transform="translate(-257.56 -2.12)"/><path class="g" d="M1009.05,391.82c0-1.68,0-3.35,0-5,0-.79-.24-1.27-1.14-.74a11.68,11.68,0,0,1-4.79,1.39c-.68.06-1,.26-.74,1a75.47,75.47,0,0,0,4.86,11.42c.15.28.3.61.68.55s.32-.48.36-.77C1008.64,397.07,1008.89,394.45,1009.05,391.82Z" transform="translate(-257.56 -2.12)"/><path class="a" d="M566,310.05c0-.31-.11-.51-.38-.49-.06,0-.19.25-.16.34s.2.51.35.53C566.12,310.48,566,310.16,566,310.05Z" transform="translate(-257.56 -2.12)"/><path class="a" d="M1149.89,549.09a1.24,1.24,0,0,1-.87,1.29,5.56,5.56,0,0,1-1.4.25c-6,.23-10.88,2.94-14.86,7.3-4.67,5.12-6.85,11.27-7.34,18.09a17,17,0,0,1-.17,2.15,1.28,1.28,0,0,1-1.46,1,1.19,1.19,0,0,1-1.2-1,15.27,15.27,0,0,1-.11-1.67c-.45-6.9-2.56-13.17-7.23-18.38-4-4.46-8.91-7.23-15-7.47a4.71,4.71,0,0,1-1.18-.15,1.36,1.36,0,0,1-1.09-1.39,1.26,1.26,0,0,1,1.1-1.36,9.71,9.71,0,0,1,1.42-.2c6-.3,10.84-3.08,14.79-7.46,4.68-5.22,6.77-11.49,7.23-18.39a13.13,13.13,0,0,1,.11-1.67,1.2,1.2,0,0,1,1.2-1,1.26,1.26,0,0,1,1.46,1,21,21,0,0,1,.18,2.39c.65,7.78,3.41,14.6,9.37,19.86a19.93,19.93,0,0,0,12.57,5.29,8.5,8.5,0,0,1,1.65.28A1.18,1.18,0,0,1,1149.89,549.09ZM1124,531.33c-.73.19-.66.88-.84,1.33-2.82,7-7.29,12.5-14.24,15.78-.33.15-.89.28-.77.7s.58.48.94.65c6.67,3.21,11.05,8.5,13.86,15.22.19.44.35.89.52,1.33.09.22.15.46.45.44s.39-.22.49-.45.29-.74.44-1.11c2.77-6.85,7.23-12.16,14-15.44.35-.17.94-.5.91-.67-.08-.49-.65-.6-1.07-.81a28.12,28.12,0,0,1-13.51-14.64c-.25-.58-.45-1.19-.71-1.77A2.92,2.92,0,0,0,1124,531.33Z" transform="translate(-257.56 -2.12)"/><path class="a" d="M877.22,135.52a5.87,5.87,0,0,1-1,2.15Q861.07,163.82,845.94,190c-1.76,3-3.49,6.1-5.28,9.13-1.28,2.16-2.33,2.17-3.58,0q-6.36-11-12.68-22c-.9-1.57-.86-2.42,0-2.91s1.63-.08,2.54,1.49q4.92,8.51,9.81,17l1.45,2.49c.37.64.77.8,1.21,0l1.45-2.48,32.79-56.63a11.32,11.32,0,0,1,1-1.62,1.38,1.38,0,0,1,1.74-.34A1.28,1.28,0,0,1,877.22,135.52Z" transform="translate(-257.56 -2.12)"/><path class="a" d="M552.82,98.13c-1,0-1.45-.77-1.43-1.75a17,17,0,0,0-.55-4.51c-1.73-6.6-5.29-11.58-12.14-13.62a12,12,0,0,0-2.84-.41c-1,0-1.81-.29-1.88-1.41s.73-1.51,1.71-1.52c8-.12,15.08-7.7,15.67-17.71a7,7,0,0,1,.15-1.66,1.33,1.33,0,0,1,1.45-1,1.25,1.25,0,0,1,1.25,1.21c.13,1.19.24,2.38.4,3.57a19.11,19.11,0,0,0,3,8c2.82,4.3,6.66,7.05,11.92,7.54,1,.09,2.29,0,2.25,1.5s-1.21,1.4-2.28,1.51c-7.22.75-11.38,5.2-13.9,11.59a24.18,24.18,0,0,0-1.34,7C554.18,97.39,554,98.08,552.82,98.13Zm10.11-21.66c.07-.28.1-.33-.53-.68A20.51,20.51,0,0,1,553.55,66c-.15-.32-.21-.86-.65-.86s-.55.5-.72.86a20.82,20.82,0,0,1-5.88,7.74c-1.13.88-2.33,1.65-3.5,2.48.92,1.24,2.44,1.68,3.58,2.66a22.19,22.19,0,0,1,5.82,7.79c.17.36.29.83.74.83.17,0,.39-.44.51-.71a20.56,20.56,0,0,1,9-9.94A3.69,3.69,0,0,0,562.93,76.47Z" transform="translate(-257.56 -2.12)"/><path class="a" d="M899.11,84.58a1.38,1.38,0,0,1-1.32-1.37c-.13-1.11-.14-2.24-.34-3.34-1.07-6.15-4-11.07-9.74-14a15.46,15.46,0,0,0-5.08-1.29c-1-.12-2-.18-1.93-1.55.08-1.11.93-1.38,1.89-1.39,7-.12,13.51-6.53,14.82-14.92.18-1.1.22-2.22.33-3.33.08-.89.44-1.56,1.44-1.57s1.39.68,1.44,1.56a24.5,24.5,0,0,0,.6,4.75c1.3,5,3.83,9.1,8.4,11.74a13.16,13.16,0,0,0,5.67,1.76,6.64,6.64,0,0,1,1.42.16,1.3,1.3,0,0,1,.95,1.48,1.21,1.21,0,0,1-1,1.19,7.91,7.91,0,0,1-.95.11c-7.6.54-12.78,6.62-14.46,13.39a26.09,26.09,0,0,0-.63,4.74C900.55,84,900,84.58,899.11,84.58Zm9.78-21.25c-.1-.48-.45-.67-.8-.87a20,20,0,0,1-8.26-9.33c-.17-.37-.33-.8-.75-.82-.16,0-.37.47-.5.76a20.16,20.16,0,0,1-8.45,9.47c-.77.44-.86.81,0,1.29a20.1,20.1,0,0,1,8.46,9.46c.12.28.32.68.53.72s.51-.32.64-.62a20.28,20.28,0,0,1,8.61-9.64A4.45,4.45,0,0,0,908.89,63.33Z" transform="translate(-257.56 -2.12)"/><path class="a" d="M1125.32,374.41a1.39,1.39,0,0,1-1.21,1.29,13.53,13.53,0,0,0-2.32.55c-3,1.26-4.42,3.77-5,6.85-.1.55-.07,1.12-.19,1.67a1.21,1.21,0,0,1-1.21,1,1.28,1.28,0,0,1-1.46-1c-.15-.53-.1-1.11-.21-1.66-.73-3.86-2.61-6.67-6.81-7.32-.83-.12-1.63-.34-1.67-1.37s.75-1.42,1.7-1.62c4-.84,6.18-3.18,6.83-7.53.15-1,0-2.2,1.37-2.44.88-.15,1.37.63,1.62,2.45a10,10,0,0,0,1.27,3.84,7.06,7.06,0,0,0,5.31,3.68C1124.81,373,1125.37,373.52,1125.32,374.41Zm-10-3.57c-.13.06-.32.09-.4.19a18,18,0,0,1-2.55,2.82c-.15.14-.32.5-.26.57,1,1.14,2,2.25,3,3.36,0,.05.18.07.21,0l3.24-3.58q-1.5-1.68-3-3.34C1115.47,370.84,1115.36,370.86,1115.28,370.84Z" transform="translate(-257.56 -2.12)"/><path class="a" d="M312.3,465.7a1.39,1.39,0,0,1-1.4,1.51,6.74,6.74,0,0,0-3.75,1.44,8.32,8.32,0,0,0-3.13,5.22c-.14.71-.24,1.42-.35,2.13a1.28,1.28,0,0,1-1.23,1.24,1.4,1.4,0,0,1-1.55-1.2,9.24,9.24,0,0,1-.1-1.19c-.47-4.15-2.72-6.71-6.79-7.58-.95-.21-1.77-.46-1.74-1.57s.77-1.32,1.66-1.37c3.89-.23,6.52-4,6.86-7.5,0-.32,0-.64.05-1,.11-.89.53-1.54,1.51-1.53s1.25.57,1.35,1.39a17.22,17.22,0,0,0,.36,2.13c.86,3.46,2.78,5.9,6.52,6.44C311.56,464.45,312.26,464.75,312.3,465.7Zm-10.1,3.6c.35.05.47-.16.61-.33.9-1.09,1.8-2.16,2.7-3.24-.83-1-1.69-1.87-2.46-2.85-.5-.64-.83-.85-1.41-.07-.79,1.05-2.36,2.05-2.34,3s1.56,2,2.43,3A3.4,3.4,0,0,0,302.2,469.3Z" transform="translate(-257.56 -2.12)"/><path class="a" d="M629.23,258.48h15.35c3.31,0,2.72.24,3.08-2.83a153.29,153.29,0,0,1,3.07-18,77.24,77.24,0,0,1,6.87-18.61c6.41-11.89,16.24-19.54,29.07-23.44a92.62,92.62,0,0,1,22.19-3.57,121.05,121.05,0,0,1,32,2.08c10.29,2.21,19.56,6.45,27,14.14,5.84,6,9.69,13.26,12.44,21.12A120.92,120.92,0,0,1,786,256.56c.42,3.89.69,7.8,1,11.7.08,1.06.33,1.32,1.47.95,4.48-1.45,8.37-.06,11.3,4a21.87,21.87,0,0,1,3.74,9.25,42.78,42.78,0,0,1-.61,18.77,16.6,16.6,0,0,1-4.94,8.61c-1,.85-.48,1.49,0,2.26a90.42,90.42,0,0,1,7.21,16.44,93,93,0,0,1-20.79,92.72c-14.59,15.37-32.37,25-53.32,28-30,4.33-56.39-3.88-78.54-24.7A89.18,89.18,0,0,1,625,372.47a91.71,91.71,0,0,1,10.1-59.64c.26-.49.52-1,.82-1.46a1,1,0,0,0-.14-1.47c-4.52-4.24-5.78-9.79-6.21-15.64A41.37,41.37,0,0,1,630.61,280a17.5,17.5,0,0,1,4.56-8.3c2.89-2.75,6.16-4,10.06-2.39,1,.4,1.33.08,1.39-.83.13-1.92.2-3.84.34-5.75.08-1.09-.46-1.41-1.43-1.35-.56,0-1.12,0-1.68,0H613.62a14,14,0,0,1-2.15-.1,1.38,1.38,0,0,1,0-2.71,13.5,13.5,0,0,1,1.91-.07Z" transform="translate(-257.56 -2.12)"/><path class="e" d="M716.76,261.36H668.54c-3.22,0-2.94-.23-2.94,3v55.89a31.41,31.41,0,0,1-1,9.26c-2.11,7-6.15,12.22-13.18,14.77-.92.34-.75.92-.68,1.5.27,2.3.56,4.6.9,6.89a106.28,106.28,0,0,0,5.73,23,53.68,53.68,0,0,0,12.88,20c7.68,7.3,17.06,11.1,27.3,13a107.5,107.5,0,0,0,22.66,1.59,93.49,93.49,0,0,0,20.41-2.56c15.06-3.75,26.31-12.31,33.25-26.33,4.08-8.25,6.33-17.05,7.85-26.06.54-3.15.91-6.33,1.33-9.5.07-.58.33-1.22-.64-1.5-5-1.47-8.47-5-11.1-9.31a25.35,25.35,0,0,1-3.34-13.32q0-28.54,0-57.1c0-.64,0-1.28,0-1.92,0-.88-.32-1.35-1.26-1.31-.64,0-1.28,0-1.92,0Z" transform="translate(-257.56 -2.12)"/><path class="i" d="M716.66,258.48h63.08c.64,0,1.28,0,1.92,0,1.49-.07,1.61-.18,1.44-1.74q-.39-3.33-.9-6.65a101.12,101.12,0,0,0-6.68-24.68c-5.75-13.3-15.38-22.37-29.27-26.77a78.57,78.57,0,0,0-16.66-3.24c-12.24-1.09-24.43-.89-36.5,1.62-17.76,3.69-30,13.89-36.32,31a115,115,0,0,0-6.15,27.76c-.29,2.69-.25,2.7,2.48,2.7Z" transform="translate(-257.56 -2.12)"/><path class="i" d="M718.33,447.52c2.61-.17,5.08-.31,7.55-.51,1.35-.11,2.7-.28,4-.49a90.62,90.62,0,0,0,49.16-24.14,3.39,3.39,0,0,0,1.09-3.6c-1.2-5.47-2.5-10.9-4.23-16.23-1.13-3.5-2.45-6.93-3.91-10.3-.34-.8-.78-.94-1.34-.19l-.45.56c-6.69,8.42-15.37,13.83-25.56,17-9.26,2.87-18.81,3.71-28.42,3.69a99.08,99.08,0,0,1-21.9-2.26c-12.53-2.88-23.34-8.59-31.33-19-1.13-1.47-1.23-1.46-1.94.15a128.17,128.17,0,0,0-8.1,27,2.67,2.67,0,0,0,.94,2.72,90.54,90.54,0,0,0,64.4,25.53Z" transform="translate(-257.56 -2.12)"/><path class="g" d="M626.74,357.43c0,1.76-.06,3.52,0,5.28s.24,3.51.46,5.25a90,90,0,0,0,21.27,48.22c.31.36.62.73,1,1.07.5.52.84.3,1-.29s.2-.93.3-1.4a122.61,122.61,0,0,1,8.51-26.41,2.93,2.93,0,0,0-.21-3.09,72.09,72.09,0,0,1-6.94-16.79c-3.77-13.24-5-26.85-5.6-40.52-.25-5.27-.22-10.55-.33-15.82,0-1.61-.09-1.67-1.59-1.1a5.87,5.87,0,0,1-3.53.34c-1.84-.48-2.55.45-3.3,1.83A89,89,0,0,0,626.74,357.43Z" transform="translate(-257.56 -2.12)"/><path class="g" d="M806.76,357.25a88.44,88.44,0,0,0-2-18.58,91.25,91.25,0,0,0-9.25-24.85c-.72-1.32-1.48-1.87-3-1.63a6.72,6.72,0,0,1-3.53-.4c-1.4-.53-1.43-.46-1.49,1,0,.48,0,1,0,1.44a273.74,273.74,0,0,1-2.47,38.5c-1.75,12-4.63,23.69-10.92,34.27a2.33,2.33,0,0,0-.18,2.44,125.24,125.24,0,0,1,8.7,27.1c.08.38,0,.86.44,1.05.6.27.82-.32,1.13-.62a12.36,12.36,0,0,0,.95-1.09C799.45,398.92,806.54,379.35,806.76,357.25Z" transform="translate(-257.56 -2.12)"/><path class="a" d="M784.42,300.68c0-7.75.11-15.5,0-23.25-.08-4.78-.14-9.58-.69-14.35-.19-1.66-.16-1.7-1.86-1.71q-4.56,0-9.12,0c-1.79,0-1.8.05-1.85,1.94,0,1.44,0,2.87,0,4.31q0,26.86,0,53.72c0,5.85,1.4,11.23,5.5,15.65a19.1,19.1,0,0,0,5.75,4.25c.92.45,1.34.14,1.45-.8,0-.24,0-.48.05-.72.27-4.86.57-9.72.81-14.59C784.81,317,784.58,308.83,784.42,300.68Z" transform="translate(-257.56 -2.12)"/><path class="a" d="M649.11,301.15c-.45,4.59,0,10.26,0,15.93q0,11.39,1,22.73c.16,1.83.36,2,2,1.09a19.11,19.11,0,0,0,9.14-10.67,28.67,28.67,0,0,0,1.48-9.9q0-28.06,0-56.12c0-.4,0-.8,0-1.2.12-1.23-.41-1.69-1.65-1.67-3.12.06-6.24.08-9.35,0-1.42,0-1.8.6-1.86,1.83-.11,2.56-.35,5.11-.43,7.66C649.11,280.57,649.12,290.32,649.11,301.15Z" transform="translate(-257.56 -2.12)"/><path class="e" d="M646.15,289.83c0-.8.1-1.59.11-2.39,0-3.83.17-7.66.11-11.49,0-3.35-2.72-5.15-5.94-4.15a7.44,7.44,0,0,0-2.86,1.67,14.7,14.7,0,0,0-4.16,7.41,40,40,0,0,0-.67,15.91,20.07,20.07,0,0,0,3.07,8.72A9.05,9.05,0,0,0,640,309a4.34,4.34,0,0,0,6.12-3.86C646.21,300,646.07,294.93,646.15,289.83Z" transform="translate(-257.56 -2.12)"/><path class="e" d="M787.36,289.8h.16c0,4.39,0,8.79,0,13.18a15.12,15.12,0,0,0,.21,2.86,4.11,4.11,0,0,0,5.57,3.3,7.78,7.78,0,0,0,3.68-2.57,14.64,14.64,0,0,0,2.85-5.49,38.37,38.37,0,0,0,.11-20.8,15.19,15.19,0,0,0-2.31-5,9.46,9.46,0,0,0-3.95-3.38c-3.45-1.47-6.59.88-6.4,4.22C787.55,280.68,787.36,285.25,787.36,289.8Z" transform="translate(-257.56 -2.12)"/><path class="a" d="M717.67,478.8h-100l-2.16,0a1.21,1.21,0,0,1-1.34-1.1,1.39,1.39,0,0,1,1.06-1.64,3.74,3.74,0,0,1,.95-.11c.56,0,1.12,0,1.68,0H819.33c1,0,1.78.34,1.82,1.46s-.8,1.42-1.77,1.41H717.67Z" transform="translate(-257.56 -2.12)"/><path class="a" d="M670.41,501.28h52.76l2.16,0a1.2,1.2,0,0,1,1.28,1.16,1.33,1.33,0,0,1-1.13,1.58,9.34,9.34,0,0,1-1.91.11H617.81a21.13,21.13,0,0,1-2.39-.07,1.33,1.33,0,0,1-1.29-1.45,1.23,1.23,0,0,1,1.37-1.33c.71,0,1.43,0,2.15,0Z" transform="translate(-257.56 -2.12)"/><path class="a" d="M786,501.28h31.9l1.92,0a1.21,1.21,0,0,1,1.32,1.12,1.33,1.33,0,0,1-1.06,1.62,7.11,7.11,0,0,1-1.67.12h-65a7.11,7.11,0,0,1-1.67-.11,1.35,1.35,0,0,1-1.11-1.6,1.24,1.24,0,0,1,1.31-1.15l1.92,0Z" transform="translate(-257.56 -2.12)"/><path class="a" d="M1000.31,547.35l-11.5-1.6-33.21-4.66q-10.44-1.47-20.87-2.94c-1.86-.26-2.42-.75-2.3-1.83s.82-1.32,2.68-1.06l56.94,7.94c2.93.41,5.85.87,8.77,1.3.91.13,1.56.58,1.5,1.52-.06,1.14-.9,1.39-1.88,1.33Z" transform="translate(-257.56 -2.12)"/><path class="a" d="M427.71,548.79c-.9.06-1.64-.2-1.75-1.2s.55-1.55,1.57-1.69c3-.42,6-.89,9-1.31q18.38-2.6,36.77-5.18,17.81-2.5,35.6-5l25.15-3.55c.55-.07,1.11-.19,1.66-.22a1.38,1.38,0,0,1,1.65,1.33,1.32,1.32,0,0,1-1.24,1.49c-1.57.27-3.15.53-4.73.75q-17.91,2.52-35.83,5l-39.15,5.54-27.76,3.91C428.35,548.75,428,548.76,427.71,548.79Z" transform="translate(-257.56 -2.12)"/><path class="a" d="M497.84,364.24c-15.24-.42-27.2-7.38-36.11-19.9-1.36-1.9-.88-2.86,1.49-3.2q13.88-2,27.78-3.91l29.44-4.11c5.78-.81,11.55-1.65,17.33-2.44,2.15-.3,2.84.53,2.06,2.62-5.81,15.49-16.26,26-32.65,29.9a35.94,35.94,0,0,1-4.25.73C501.34,364.1,499.74,364.13,497.84,364.24Z" transform="translate(-257.56 -2.12)"/><path class="g" d="M497.82,361.29a37.48,37.48,0,0,0,9.27-1.07c13.7-3.44,23-12.06,28.72-24.72.68-1.49.53-1.63-1.09-1.41q-10,1.37-20,2.75L482,341.46c-5.06.71-10.13,1.4-15.18,2.16-1.65.24-1.72.45-.7,1.7C474.33,355.34,484.78,360.9,497.82,361.29Z" transform="translate(-257.56 -2.12)"/><path class="a" d="M495.67,330.33a31.42,31.42,0,0,1-6.83-1.08,5,5,0,0,1-1.33-.51,1.39,1.39,0,0,1,.76-2.62,9.6,9.6,0,0,1,1.39.31A22.33,22.33,0,0,0,507.84,324a8.5,8.5,0,0,1,1.25-.7c.71-.26,1.46-.28,1.87.51a1.46,1.46,0,0,1-.45,1.92,10.74,10.74,0,0,1-1.17.83A26.78,26.78,0,0,1,495.67,330.33Z" transform="translate(-257.56 -2.12)"/><path class="a" d="M525.28,313.75a4.47,4.47,0,1,1-4.68-4.38A4.47,4.47,0,0,1,525.28,313.75Z" transform="translate(-257.56 -2.12)"/><path class="a" d="M474.61,324.72a4.25,4.25,0,0,1-4.43-4.35,4.39,4.39,0,0,1,4.35-4.48,4.45,4.45,0,0,1,4.59,4.52A4.32,4.32,0,0,1,474.61,324.72Z" transform="translate(-257.56 -2.12)"/><path class="a" d="M925.24,367.1c-8.56-.4-15.85-4.59-20.4-13.22-.11-.22-.19-.44-.3-.65-.42-.81-.75-1.67-.08-2.46s1.44-.45,2.24-.34Q924.82,353,943,355.5a6,6,0,0,1,1.39.31,1.34,1.34,0,0,1,.82,2.09,8.2,8.2,0,0,1-1.33,1.68C939.05,364.55,933.2,367.05,925.24,367.1Z" transform="translate(-257.56 -2.12)"/><path class="g" d="M925.64,364.17a21.17,21.17,0,0,0,14.17-4.88c.28-.23.74-.48.54-.92-.1-.21-.54-.3-.84-.37-.55-.11-1.11-.16-1.66-.24L926,356.09c-5.14-.73-10.27-1.46-15.42-2.14-.65-.09-1.6-.57-1.94.15s.51,1.25.93,1.8A20.61,20.61,0,0,0,925.64,364.17Z" transform="translate(-257.56 -2.12)"/><path class="a" d="M976.66,349.69a11.2,11.2,0,1,1-11,11.25A11.25,11.25,0,0,1,976.66,349.69Z" transform="translate(-257.56 -2.12)"/><path class="h" d="M985.05,360.94a8.26,8.26,0,1,0-16.52-.16,8.22,8.22,0,0,0,8.18,8.32A8.34,8.34,0,0,0,985.05,360.94Z" transform="translate(-257.56 -2.12)"/><path class="a" d="M925,378.14a24.17,24.17,0,0,1-13.17-3.75,12,12,0,0,1-1.36-1,1.43,1.43,0,0,1-.26-2.12,1.39,1.39,0,0,1,2-.21c.35.2.66.45,1,.66a21.18,21.18,0,0,0,18.13,2.47c1.81-.55,2.51-.4,2.89.55s-.22,1.67-2.1,2.29A24.61,24.61,0,0,1,925,378.14Z" transform="translate(-257.56 -2.12)"/><path class="a" d="M940.09,336a4.42,4.42,0,1,1,4.5,4.47A4.3,4.3,0,0,1,940.09,336Z" transform="translate(-257.56 -2.12)"/><path class="a" d="M910.83,326.92a4.19,4.19,0,0,1,4.36,4.37,4.29,4.29,0,0,1-4.56,4.46,4.34,4.34,0,0,1-4.27-4.53A4.25,4.25,0,0,1,910.83,326.92Z" transform="translate(-257.56 -2.12)"/><path class="a" d="M928,345a12.4,12.4,0,0,1-7.27-2.06,2.93,2.93,0,0,1-1.2-1.14,1.37,1.37,0,0,1,.2-1.57,1.25,1.25,0,0,1,1.52-.39,5.46,5.46,0,0,1,.64.32,10.32,10.32,0,0,0,9.36,1.4c.89-.27,1.79-.34,2.2.76.34.89-.18,1.59-1.44,2.07A12.13,12.13,0,0,1,928,345Z" transform="translate(-257.56 -2.12)"/><path class="a" d="M718.35,301.86c9.93-.53,18.46-3.05,26-8.6.45-.34.86-.72,1.31-1.05a1.82,1.82,0,0,0,.82-2.42c-.6-1.78-.3-2.58.64-2.88s1.44.17,2.11,2c1.75,4.72,5.22,6.95,10.2,6.53.15,0,.31-.05.47-.06,1.49-.1,2.14.24,2.16,1.2,0,1.29-.92,1.47-1.9,1.71s-2.44-.36-3.08.78a10.72,10.72,0,0,0-.73,3,44.47,44.47,0,0,1-12.05,22.75,39.23,39.23,0,0,1-52.8,2c-7.8-6.66-12.19-15.25-14.35-25.12-.07-.32-.12-.63-.18-1-.46-2.14-.46-2.12-2.69-2.4a4.41,4.41,0,0,1-2.08-.47,1.4,1.4,0,0,1-.67-1.65,1.26,1.26,0,0,1,1.25-.94c.56,0,1.11.09,1.67.14a9.12,9.12,0,0,0,9.75-6.15c.21-.52.35-1.06.57-1.58a1.28,1.28,0,0,1,1.53-.85,1.5,1.5,0,0,1,1.21,1.57.92.92,0,0,1-.11.46c-1.27,2.14.24,3.14,1.68,4.23a44.2,44.2,0,0,0,23.07,8.5A26.59,26.59,0,0,0,718.35,301.86Z" transform="translate(-257.56 -2.12)"/><path class="g" d="M754,298.64c.11-.45-.23-.89-.91-1.19a9.22,9.22,0,0,1-3.68-2.61c-.88-1.12-1.49-.69-2.32,0-9,7.14-19.39,10-30.6,10s-21.47-3-30.29-10.17c-.77-.62-1.3-.71-2,.08a9.36,9.36,0,0,1-3.66,2.65c-1,.43-1.12,1.12-.93,2.11a49.5,49.5,0,0,0,5.39,15c1.41,2.45,1.41,2.46,4.15,1.48,10.12-3.6,22.66-.06,27,8.92.62,1.29,1,.4,1.35-.24a18.84,18.84,0,0,1,12.73-9.36,24.66,24.66,0,0,1,15.06,1c1.68.65,1.73.66,2.61-.83a49.61,49.61,0,0,0,2.36-4.44A48.77,48.77,0,0,0,754,298.64Z" transform="translate(-257.56 -2.12)"/><path class="h" d="M720.38,333a35.91,35.91,0,0,0,23.73-12.31c.95-1.07.9-1.34-.44-1.81-7-2.42-13.68-1.81-19.74,2.66a14.21,14.21,0,0,0-5.5,10C718.24,332.9,718.45,333.07,720.38,333Z" transform="translate(-257.56 -2.12)"/><path class="h" d="M697.84,317.5a21.67,21.67,0,0,0-7.77,1.3c-1.64.61-1.68.72-.5,2A35.71,35.71,0,0,0,713.25,333c1.86.2,2,0,1.76-1.93a14.41,14.41,0,0,0-6.18-10.11A20,20,0,0,0,697.84,317.5Z" transform="translate(-257.56 -2.12)"/><path class="a" d="M715.79,288.48a25.8,25.8,0,0,1-10.33-2.56,4.27,4.27,0,0,1-.83-.48,1.35,1.35,0,0,1-.46-1.7,1.28,1.28,0,0,1,1.56-.8,9.76,9.76,0,0,1,1.56.58,23.19,23.19,0,0,0,19,0,7.53,7.53,0,0,1,1.34-.51,1.26,1.26,0,0,1,1.61.68,1.42,1.42,0,0,1-.52,1.9,11.48,11.48,0,0,1-1.49.74C724.09,287.7,720.74,288.35,715.79,288.48Z" transform="translate(-257.56 -2.12)"/><path class="a" d="M692.1,271.71a7,7,0,0,1,6,3.94c.46.81.67,1.67-.23,2.34-.74.56-1.52.24-2.33-.88-2.46-3.4-5.7-3.4-8.12,0-.09.13-.16.28-.24.41a1.42,1.42,0,0,1-2.08.47c-.72-.44-.68-1.15-.43-1.9C685.56,273.59,688.45,271.72,692.1,271.71Z" transform="translate(-257.56 -2.12)"/><path class="a" d="M741.79,271.7a7.28,7.28,0,0,1,6.86,4c.46.86.63,1.74-.35,2.3s-1.67.1-2.17-.8a4.48,4.48,0,0,0-3.55-2.54,4.33,4.33,0,0,0-4.2,1.78c-.24.32-.41.68-.64,1a1.42,1.42,0,0,1-2.07.53,1.39,1.39,0,0,1-.46-1.91,6.85,6.85,0,0,1,4.93-4.16A11.81,11.81,0,0,1,741.79,271.7Z" transform="translate(-257.56 -2.12)"/></svg>