<?xml version="1.0" encoding="utf-8"?>
<!-- Generator: Adobe Illustrator 24.0.1, SVG Export Plug-In . SVG Version: 6.00 Build 0)  -->
<svg version="1.1" id="Layer_1" xmlns="http://www.w3.org/2000/svg" xmlns:xlink="http://www.w3.org/1999/xlink" x="0px" y="0px"
	 viewBox="0 0 950.9 665.8" style="enable-background:new 0 0 950.9 665.8;" xml:space="preserve">
<style type="text/css">
	.st0{fill:#B7C3C0;}
	.st1{fill:#151D38;}
	.st2{fill:#E894AF;}
	.st3{fill:#CCD6DA;}
	.st4{fill:#ACDCF6;}
	.st5{fill:#FAE0D6;}
	.st6{fill:#EBBE62;}
	.st7{fill:#FFFFFF;}
	.st8{fill:#E5384A;}
	.st9{fill:#7DA4EC;}
</style>
<title>userCogImage</title>
<path class="st0" d="M430.1,665.8c-2.1-0.6-4.3-0.4-6.4-0.4c-15.3-0.3-30.7-1.1-46-2.2c-11.5-0.8-22.9-1.9-34.3-3.7
	c-4.3-0.6-8.6-1.6-12.8-2.9c-1.6-0.4-3-1.1-4.3-2.1c-1.2-1-1.1-2,0.1-3c1-0.8,2.2-1.3,3.4-1.7c4.6-1.5,9.4-2.6,14.2-3.2
	c15.3-2.4,30.6-3.5,46-4.4c13.9-0.8,27.8-1.2,41.7-1.6c17.9-0.4,35.8-0.4,53.7-0.1c16.4,0.3,32.8,0.8,49.1,1.9
	c13,0.8,26,1.9,38.9,3.7c4.8,0.6,9.6,1.6,14.3,2.8c1.8,0.4,3.5,1.1,5.2,1.9c0.9,0.5,1.9,1,1.8,2.3s-1,1.6-1.8,2.1
	c-1.6,0.8-3.2,1.5-4.9,1.9c-5.9,1.5-11.9,2.6-17.9,3.3c-16.5,2.2-33.1,3.2-49.7,4c-9.4,0.5-18.8,0.8-28.3,1c-0.7-0.1-1.4,0-2.1,0.3
	L430.1,665.8z"/>
<path class="st0" d="M250.6,0c0.5,1,0.7,2.1,0.7,3.2c0.5,10,3.8,18.9,11.1,26c4.8,5,11.4,7.9,18.4,8.3h0.5c1,0,2,0.2,2,1.5
	s-1.1,1.4-2,1.5c-12.8,0.8-21,8-26.3,19.1c-2.2,4.8-3.5,10.1-3.6,15.4c0,0.6,0,1.1-0.1,1.7c0,0.7-0.6,1.3-1.3,1.3c0,0-0.1,0-0.1,0
	c-0.7,0-1.2-0.5-1.3-1.2c-0.1-0.8-0.1-1.6-0.1-2.4c-0.6-9.7-3.9-18.2-10.8-25.2c-4.9-5.2-11.6-8.2-18.7-8.5h-1
	c-0.8,0-1.4-0.5-1.5-1.3c-0.1-0.8,0.5-1.5,1.3-1.6c0.1,0,0.1,0,0.2,0c1.4-0.1,2.7-0.2,4-0.4c7.5-1.2,13.4-5.1,18.1-10.9
	c5.2-6.5,8.2-14.5,8.4-22.8c0.1-1.3-0.1-2.6,0.9-3.6L250.6,0z M271.8,39.2c-0.1-0.3-0.3-0.6-0.6-0.7c-1.6-0.6-3.1-1.3-4.5-2.2
	c-8-4.8-13.2-11.9-16.2-20.7c-0.2-0.6-0.2-1.6-0.8-1.5s-0.6,1-0.8,1.6c-3.6,10.4-10,18.3-20.3,22.7c-0.4,0.2-0.9,0.2-0.9,0.7
	s0.5,0.5,0.8,0.6c1.1,0.5,2.2,1,3.3,1.5c8.2,4.5,13.5,11.5,16.8,20.2c0.3,0.7,0.4,1.4,0.7,2c0.1,0.2,0.3,0.5,0.4,0.5
	c0.5,0.1,0.4-0.4,0.5-0.6c0.2-0.6,0.4-1.2,0.6-1.8c1.5-4.2,3.7-8.1,6.5-11.6c3.5-4.4,8-7.8,13.2-10C271,39.6,271.4,39.4,271.8,39.2z
	"/>
<path class="st0" d="M0,412.8c1-0.1,1.7-0.6,2.7-0.7c5.1-0.4,8.8-3.1,11.5-7.2c1.8-2.7,2.8-5.8,3.1-9c0.1-0.8,0.1-1.6,0.3-2.4
	c0-0.7,0.6-1.2,1.2-1.3c0.8-0.1,1.4,0.4,1.5,1.2c0,0,0,0,0,0c0.1,0.6,0.1,1.3,0.1,1.9c0.2,4.1,1.8,8,4.4,11.2
	c2.4,3.1,6.1,5.1,10,5.5c0.5,0,1,0.1,1.4,0.2c0.7,0.1,1.1,0.7,1.1,1.4c0,0.7-0.4,1.3-1.1,1.4c-0.3,0.1-0.6,0.1-1,0.1
	c-5.2,0.4-9,3.1-11.8,7.3c-2,2.9-3.1,6.4-3.1,9.9c0,1.8-0.7,2.6-1.5,2.6c-1,0-1.5-0.5-1.6-2.5c-0.1-3.2-1-6.3-2.6-9.1
	c-2.8-4.8-6.7-7.9-12.4-8.2c-0.9-0.2-1.7-0.5-2.5-0.9L0,412.8z M28.7,413.5c-0.1-0.1-0.2-0.2-0.3-0.3c-4-2.2-7.2-5.8-9-10
	c-0.5-1.1-0.8-0.2-1,0.2c-1.7,4-4.7,7.3-8.5,9.5c-0.8,0.4-0.9,0.8,0,1.3c3.8,2.2,6.8,5.5,8.5,9.5c0.1,0.3,0.4,0.7,0.5,0.7
	c0.4,0,0.5-0.5,0.7-0.8c1.2-2.7,3-5.1,5.2-7.1c1-0.9,2.1-1.7,3.3-2.4C28.4,414.1,28.6,413.8,28.7,413.5z"/>
<path class="st0" d="M950.9,457.9c-0.4,0.2-0.9,0.4-1.3,0.5c-7.4,0.1-13.6,6.4-15.1,14.4c-0.3,1.3-0.4,2.5-0.4,3.8
	c0,1-0.4,1.8-1.5,1.8s-1.3-0.9-1.4-1.8c-0.1-4.1-1.4-8.1-3.7-11.4c-2.5-3.8-6.6-6.2-11.2-6.6c-0.4,0-0.8,0-1.2-0.1
	c-0.6-0.2-1.1-0.8-1-1.4c0-0.6,0.4-1.1,1-1.2c0.3-0.1,0.7-0.1,1-0.1c7.1-0.7,11.3-4.9,13.9-11.2c0.8-2.2,1.3-4.5,1.3-6.8
	c0.1-1,0.2-1.8,1.4-1.9c0.9-0.1,1.4,0.6,1.5,2c0.1,5.1,2.1,10,5.7,13.6c2.4,2.5,5.7,4,9.1,4.3c0.7,0,1.4,0.2,2.1,0.5L950.9,457.9z
	 M932.4,446.1c-0.2,0.2-0.3,0.4-0.4,0.6c-1.7,4.1-4.8,7.4-8.6,9.7c-1,0.5-0.5,0.9,0.1,1.3c3.7,2.1,6.6,5.4,8.3,9.3
	c0.1,0.3,0.2,0.9,0.7,0.8s0.5-0.6,0.7-0.9c1.7-3.7,4.5-6.9,8-9c1.3-0.8,1.3-0.9-0.1-1.8c-3.3-2-5.9-4.9-7.6-8.4
	c-0.2-0.4-0.3-0.7-0.5-1.1C932.9,446.4,932.7,446.2,932.4,446.1z"/>
<path class="st1" d="M434.8,151.5c38.5,0,77,0,115.4,0c1.8,0.1,3.6-0.6,4.9-1.9c11.6-10.5,25.1-13.7,40.3-9.9
	c0.6,0.1,1.2,0.4,1.8,0.6c0.6,0.3,0.9,1,0.7,1.6c-0.1,0.7-0.8,1.1-1.4,1c-0.7-0.1-1.4-0.3-2.1-0.5c-20.9-5.7-42.4,6.5-48.2,27.4
	c0,0.2-0.1,0.4-0.1,0.5c-5.9,22.5,9.5,45.3,32.5,48.6c20.8,2.8,40.1-11.2,43.9-31.9c1.6-8.3,0.3-16.9-3.6-24.5
	c-0.3-0.6-0.6-1.1-0.8-1.7c-0.2-0.6,0.1-1.3,0.7-1.6c0.6-0.4,1.3-0.3,1.7,0.3c0,0,0,0,0,0c0.4,0.6,0.8,1.2,1.1,1.8
	c1.8,3.6,3.1,7.4,3.7,11.3c0.3,2,0.4,2,2.4,2.3c5,0.8,10,1.4,15,2.1c10.8,1.5,21.7,3.1,32.5,4.6s21.7,3.1,32.5,4.5l35.4,5l32.8,4.6
	l32.5,4.6c7.3,1,14.6,2.1,21.8,3c6.5,0.9,10.2,5.3,9.3,11.8c-1.3,9.8-2.7,19.5-4,29.2s-2.8,19.6-4.2,29.4
	c-1.5,10.8-3.1,21.7-4.6,32.5s-3,21.6-4.5,32.3c-1.5,10.9-3.1,21.8-4.6,32.8c-1.5,10.9-3.1,21.8-4.5,32.5c-1.6,11.8-3.3,23.6-5,35.4
	c-1.5,10.9-3.1,21.8-4.6,32.8c-1.5,10.9-3.1,21.8-4.6,32.5c-1.5,10.8-3,21.5-4.5,32.3c-1.7,11.9-3.3,23.7-5,35.6
	c-1.1,7.6-2.1,15.2-3.2,22.8c-0.7,5.2-3.3,8.4-7.8,9.5c-1.3,0.3-2.7,0.3-4.1,0.1c-11.8-1.7-23.6-3.4-35.4-5
	c-13.1-1.8-26.1-3.6-39.2-5.5c-11.8-1.6-23.6-3.3-35.4-5c-10.9-1.5-21.8-3.1-32.8-4.6c-10.8-1.5-21.7-3.1-32.5-4.6s-21.7-3-32.5-4.5
	c-11.8-1.6-23.6-3.3-35.4-5l-32.8-4.6c-1.7-0.2-3.5-0.5-5.2-0.8c-3.6-0.7-6.4-3.3-7.4-6.8c-0.6-1.8-0.6-1.9-2.6-1.9h-53.5
	c-1.8,0-1.8,0-2.1,1.7c-0.6,4.6-4.3,8.3-9,8.7c-4.7,0.7-9.5,1.3-14.3,2c-9.7,1.3-19.3,2.7-29,4l-32.7,4.6l-32.8,4.6
	c-9.6,1.3-19.1,2.7-28.7,4l-32.5,4.6l-32.3,4.5c-11,1.5-22,3.1-33,4.7l-32.5,4.5c-3.9,0.5-7.8,1-11.6,1.7c-5.5,1.1-10.9-2.4-12-7.9
	c-0.1-0.3-0.1-0.5-0.1-0.8c-1.1-8.7-2.4-17.4-3.7-26.1c-1.3-9.6-2.7-19.3-4.1-29c-1.5-10.8-3-21.7-4.6-32.5
	c-1.5-10.8-3.1-21.8-4.6-32.8c-1.5-10.8-3-21.7-4.5-32.5c-1.5-10.8-3-21.6-4.6-32.3c-1.3-9.7-2.7-19.3-4.1-29
	c-1.5-10.8-3-21.7-4.6-32.5c-1.5-10.8-3-21.6-4.5-32.3c-1.5-10.9-3.1-21.8-4.6-32.8c-1.5-10.9-3-21.7-4.5-32.5
	c-1.7-11.9-3.3-23.7-5-35.6c-0.5-2.3-0.3-4.7,0.5-6.8c1.3-3.3,4.3-5.6,7.8-6c7.1-1.1,14.3-2,21.4-3c10.7-1.5,21.4-3,32.1-4.5
	l29.2-4.1l32.1-4.5l32.5-4.6l33.2-4.6l28.7-4c5.1-0.7,10.1-1.4,15.2-2.1c2-0.3,2.1-0.4,2.1-2.4c0-3.2,0.1-6.4,0-9.6
	c-0.1-5.4,4.2-9.9,9.6-10.1c0.1,0,0.2,0,0.4,0c0.7,0,1.4,0,2.2,0L434.8,151.5z"/>
<path class="st2" d="M311.3,354.2v190.3c0,0.9,0,1.8,0,2.6c0.1,3.7,3,6.7,6.7,6.8c0.7,0,1.4,0,2.2,0H600c0.7,0,1.4,0,2.2,0
	c3.3-0.1,6.1-2.6,6.7-5.9c0.2-1.4,0.3-2.9,0.3-4.3V218c0-0.4,0-0.8,0-1.2c-0.1-0.7,0.3-1.6-0.4-2s-1.3,0.4-1.8,0.8
	c-9.1,6-20.1,8.1-30.8,6.1c-29.3-5.3-43.7-39.3-27.5-64.3c0.5-0.8,1.8-1.7,1.4-2.6s-1.9-0.4-2.9-0.4c-75.6,0-151.2,0-226.8-0.1
	c-5.9,0-9.1,3.1-9.1,8.9C311.4,226.9,311.4,290.6,311.3,354.2z"/>
<path class="st3" d="M546.5,556.9h-54.7c-0.6,0-1.3,0-1.9,0c-1.4,0.1-1.7,0.5-1.1,1.8c1,2.4,3.3,4.1,5.9,4.3
	c2.7,0.4,5.4,0.7,8.1,1.1l25.4,3.5l25.6,3.6c10.8,1.5,21.5,3,32.3,4.5c10.9,1.5,21.8,3.1,32.8,4.6c9.6,1.3,19.2,2.7,28.7,4
	c10.8,1.5,21.7,3.1,32.5,4.6c10.8,1.5,21.5,3,32.3,4.5l33,4.7c9.5,1.3,19,2.6,28.5,4c5.3,0.8,8.6-1.5,9.4-6.7
	c0.9-5.9,1.7-11.9,2.5-17.8c1.5-10.8,3-21.7,4.5-32.5c1.5-10.8,3-21.7,4.6-32.5c1.5-10.8,3-21.7,4.5-32.5s3.1-21.7,4.6-32.5
	c1.3-9.6,2.7-19.2,4-28.7c1.7-12.1,3.4-24.2,5.1-36.3c1.3-9.6,2.7-19.1,4-28.7c1.5-10.9,3.1-21.8,4.6-32.8s3.1-21.8,4.6-32.5l4-28.5
	c1.4-9.8,2.8-19.6,4.1-29.4c0.8-5.4,1.6-10.8,2.2-16.1c0.5-4.3-2.2-7.4-6.4-8.1c-4.7-0.7-9.3-1.3-14-2c-10.9-1.5-21.7-3-32.5-4.5
	c-11.9-1.7-23.7-3.4-35.6-5.1c-10.8-1.5-21.7-3-32.5-4.5c-13-1.8-26.1-3.7-39.2-5.6c-14.6-2.1-29.3-4.1-43.9-6.2
	c-1.6-0.2-3.2-0.4-4.8-0.6c-1.9-0.2-1.9-0.2-1.9,1.6c0,0.2,0,0.5,0,0.7c0.1,11.3-4.5,22.1-12.6,29.9c-1,1-1.6,2.3-1.5,3.8
	c0,14.4,0,28.8,0,43.2c0,0.8-0.4,1.9,0.3,2.2s1.3-0.7,1.9-1.1c3.6-2.7,7.6-4.1,12.1-2.9c2.4,0.6,4.6,2,6.2,3.9c0.8,1,1.3,0.9,2,0
	c0.1-0.2,0.3-0.4,0.5-0.5c6.5-6.8,14.9-11.5,24.1-13.5c9.6-2.2,19-1.6,28.5,0.5c19.6,4.3,34.8,14.8,45.4,31.9
	c4.7,7.9,8.6,16.3,11.4,25c2.5,7.3,4.5,14.7,6.8,22c1.2,4.2,2.8,8.3,4.8,12.3c1.6,2.9,3.5,5.4,6.9,6.2c0.8,0.1,1.3,0.7,1.3,1.5
	c0,0.9-0.6,1.3-1.3,1.5c-1.3,0.4-2.6,0.7-3.9,1.1c-1.7,0.5-1.7,0.5-1,2c1,2.2,1.6,4.5,1.9,6.9c0.4,3.3,0.3,6.6-0.2,9.8
	c-0.7,4.9-1.9,9.6-4.7,13.7c-0.4,0.7-0.6,1.5-0.5,2.3c0.2,6.7-0.3,13.4-1.4,20.1c-0.2,0.9,0,1.9,0.6,2.7c1.3,1.7,2.5,3.5,3.8,5.2
	s1.3,2.1-0.3,3.6c-2.3,2.2-4.7,4.2-7.2,6c-1.7,1.2-3.1,2.9-3.9,4.9c-17.6,38.7-59.2,60.5-101,53c-11.1-2-21.8-5.9-31.5-11.8
	c-1.6-0.9-1.7-0.9-1.7,0.9c0,10.1,0,20.2,0,30.2c0,1.9,0,1.9,1.8,2.1l24.2,3.4c11.9,1.7,23.7,3.3,35.6,5c10.8,1.5,21.7,3.1,32.5,4.6
	c13.1,1.8,26.1,3.7,39.2,5.5c0.6,0.1,1.3,0.2,1.9,0.4c0.8,0.1,1.3,0.8,1.2,1.6c-0.1,0.8-0.8,1.3-1.6,1.2c-0.6,0-1.1-0.1-1.7-0.2
	c-5.2-0.7-10.5-1.5-15.7-2.2c-10.8-1.5-21.5-3-32.3-4.5l-32.5-4.6l-29.4-4.2c-7-1-14.1-2-21.1-3c-2-0.3-2.1-0.2-2.1,1.7
	c0,6.2,0,12.5,0,18.7c0,1.8,0,1.8,1.9,2l34.9,4.9c0.5,0.1,0.9,0.1,1.4,0.3c0.7,0.1,1.2,0.8,1.1,1.5c0,0,0,0.1,0,0.1
	c-0.1,0.7-0.8,1.3-1.6,1.2c-0.3,0-0.7-0.1-1-0.2l-27.5-3.9c-2.6-0.4-5.2-0.7-7.8-1.1c-0.8-0.1-1.4,0.1-1.3,1.1c0,0.6,0,1.1,0,1.7
	c0,5.2,0,10.4,0,15.6c0.1,1.6-0.2,3.2-0.6,4.7c-1.4,4.2-5,6.7-9.8,6.7C583.1,556.9,564.9,556.9,546.5,556.9z"/>
<path class="st4" d="M308.4,226v-46.6c0-0.7,0-1.4,0-2.2s-0.3-1-1.1-0.9c-0.4,0.1-0.8,0.1-1.2,0.2l-37.3,5.3
	c-15.4,2.2-30.9,4.3-46.3,6.4c-16.5,2.3-32.9,4.7-49.4,7c-15.4,2.2-30.9,4.3-46.3,6.4c-14.6,2-29.1,4.1-43.7,6.1
	c-5,0.7-7.5,4.1-6.7,9.1c1.6,10.8,3.1,21.7,4.6,32.5c1.5,10.8,3,21.5,4.5,32.3c1.5,10.9,3.1,21.8,4.6,32.8c1.3,9.5,2.7,19,4,28.5
	c1.5,10.9,3.1,21.7,4.6,32.5c1.5,10.8,3.1,21.7,4.5,32.5c1.5,10.9,3.1,21.8,4.6,32.8l4.6,32.8c1.3,9.4,2.7,18.8,4,28.3
	c1.5,10.8,3,21.7,4.5,32.5c1.5,11,3.1,22,4.6,33c1.4,10,2.8,20.1,4.3,30.2c0.5,3.8,4,6.6,7.8,6.1c0.2,0,0.3,0,0.5-0.1
	c2.9-0.4,5.7-0.8,8.5-1.2l32.3-4.5c10.9-1.5,21.7-3.1,32.5-4.6l28.7-4l33.2-4.7l32.1-4.5c11.8-1.7,23.6-3.3,35.4-5l32.5-4.5
	l33.2-4.7c3.6-0.5,7.3-1,10.9-1.5c2.7-0.2,5.1-1.8,6.3-4.2c1.3-2.7,0.9-3.3-2.1-3.3h-2.2c-33.7,0-67.4-0.1-101,0.1
	c-5.4,0-10.7-4.3-10.4-10.4c0.2-5.4,0-10.7,0-16.1c0-0.6,0-1.3,0-1.9c0-0.8-0.4-1.2-1.2-1.1c-0.8,0.1-1.6,0.2-2.4,0.2
	c-0.8,0-1.4-0.6-1.4-1.4c0-0.6,0.4-1.1,0.9-1.3c0.6-0.2,1.2-0.3,1.9-0.3c2.2-0.3,2.2-0.3,2.2-2.5c0-5.8,0-11.5,0-17.3
	c0-3.1,0-3.1-3.1-2.6c-12,1.7-23.9,3.4-35.8,5.1c-16.5,2.3-32.9,4.6-49.4,6.9s-32.9,4.7-49.4,7c-1.5,0.2-3,0.4-4.5,0.5
	c-0.7,0.1-1.3-0.4-1.4-1.1c0-0.1,0-0.1,0-0.2c-0.1-0.7,0.3-1.3,1-1.4c0.7-0.2,1.4-0.3,2.1-0.4l31.1-4.4l42.7-6l57.7-8.1
	c2.5-0.3,4.9-0.7,7.4-1c1.2-0.1,1.8-0.6,1.6-1.9c0-0.4,0-0.8,0-1.2c0-11.1,0-22.2,0-33.4c0-0.8,0.5-2.1-0.4-2.5s-1.4,0.8-2.1,1.2
	c-22.2,16.3-46.9,22.4-73.9,17.1c-30.8-6.1-53.1-23.9-66.7-52.2c-8.1-16.9-10.3-34.8-7.5-53.4c0.9-5.8,2.3-11.4,4.3-16.9
	c0.4-0.8,0.5-1.7,0.1-2.5c-2.3-4-3.2-8.5-3.8-13c-0.2-1.6-0.2-1.6-1.7-1.4c-1.6,0.3-3.2,0.3-4.8,0.2c-1.7-0.2-2.1-1.2-1.3-2.7
	c0.1-0.2,0.3-0.4,0.4-0.6c2.5-3.9,4.4-8.2,5.7-12.6c2.3-7.5,3.3-15.3,4.1-23.1c0.8-7.1,1.5-14.3,2.9-21.4
	c2.1-10.5,5.6-20.3,12.8-28.5c0.7-0.7,0.8-1.7,0.3-2.6c-1.4-2.9-2.6-5.8-3.9-8.8c-0.3-0.6-0.5-1.2-0.6-1.8c-0.2-0.6,0.2-1.3,0.8-1.5
	c0.2,0,0.3-0.1,0.5,0c0.6,0,1.1,0.1,1.6,0.3c1.8,0.5,3.7,1.1,5.5,1.6c1.4,0.4,1.5,0.3,1.6-1.1c0.2-1.8,0.3-3.7,0.4-5.5
	c0.1-1-0.2-2.2,1-2.7s1.9,0.6,2.6,1.3c2.2,2.2,4.5,4.4,6.6,6.6c0.5,0.7,1.5,0.9,2.3,0.4c1.7-0.8,3.5-1.6,5.3-2.3
	c17.2-6.3,35.5-8.9,53.7-7.6c7.8,0.5,15.5,2.7,22.5,6.3c9.1,4.8,15.8,12,21,20.8c3.4,6,6.3,12.2,8.8,18.6c0.3,0.7,0.6,1.5,1,2.2
	c0.1,0.2,0.3,0.4,0.5,0.3c0.1-0.1,0.2-0.2,0.2-0.4c0-0.7,0-1.4,0-2.2L308.4,226z"/>
<path class="st5" d="M308.4,370.4c0-12.3,0-24.7,0-37c0-1.1-0.1-2.2-0.2-3.4c-1.1-7.5-2.3-15-3.4-22.5c-0.1-1-0.7-1.8-1.7-2.1
	c-1.9-0.7-3.6-1.8-5.1-3c-2.8-2.3-5.1-5.1-6.8-8.3c-0.5-1.2-1.7-1.9-3-1.9c-10.3-0.9-20.2-4.8-28.3-11.2c-0.8-0.8-1.8-1.5-2.8-2.1
	c-0.1,1.4,0.8,2.3,1.5,3.3c3.9,6.4,8.4,12.1,15.9,14.5c0.7,0.1,1.1,0.7,1.1,1.4c0,0.7-0.4,1.3-1.1,1.4c-1.4,0.5-2.8,1.1-4.3,1.5
	c-7.4,2.5-15.3,3.1-23,2c-8.8-1.4-17-5.5-23.4-11.7c-0.5-0.4-0.9-0.9-1.4-1.3c-0.1-0.2-0.4-0.2-0.6,0c-0.1,0.1-0.1,0.2-0.1,0.3
	c0,0.4,0,0.8,0.1,1.2c0.2,5,1.2,9.9,2.8,14.5c0.7,2.1,0.1,2.8-2.1,2.5c-1.4-0.2-2.8-0.6-4.1-1.1c-5.8-2.3-10-6.5-13.4-11.6
	c-2.1-3.2-3.7-6.7-5-10.3c-0.1-0.3-0.2-0.7-0.6-0.7s-0.3,0.5-0.3,0.7c-0.6,3.8-1.4,7.6-2.4,11.3c-3.5,12.4-9.3,23.4-19.3,31.9
	c-0.8,0.6-1.2,1.7-0.9,2.7c1.2,8.7,2.3,17.4,3.5,26.1c1.6,11.7,3.8,23.4,6.6,34.8c2.4,9.3,5.4,18.4,10.2,26.8s10.7,15.3,19.2,20
	c7.2,4,15.1,5.6,23.2,6.1c6.1,0.3,12.2,0,18.2-0.9c8.7-1.2,17.3-3.1,25.4-6.8c11.4-5.2,19.8-13.3,24.7-25c0.7-1.5,1-3.2,1-4.9
	C308.4,395.4,308.4,382.9,308.4,370.4z"/>
<path class="st5" d="M611.9,380.3c0,7,0.1,14.1-0.1,21.1c-0.2,2.6,0.9,5.2,2.9,6.9c19,18,41.8,24.2,67.2,20
	c19.3-3.2,34.4-13.7,45.6-29.6c10.2-14.5,14.7-30.9,15.5-48.4c0.1-1.5-0.1-1.6-1.8-1.8c-7.7-0.7-15.1-3.2-21.6-7.4
	c-14-8.8-23.4-21.3-28.7-36.9c-0.2-0.5-0.3-1.1-0.5-1.6c0-0.1-0.2-0.2-0.3-0.3c-0.1,0.1-0.1,0.3-0.2,0.4c0,0.5,0,1,0,1.4
	c0.1,5.4,0.6,10.7,1.4,16c0.4,2.4,0,2.8-2.5,2.8c-9.4-0.2-18.6-2.7-26.8-7.3c-9.6-5.4-17.2-12.8-21-23.4c-0.1-0.1-0.1-0.3-0.2-0.5
	c-0.3-0.7-0.7-0.6-1-0.1s-0.7,1.1-1,1.6c-3,4.6-6.4,9-10.2,13c-4.3,4.6-9.4,8.5-15,11.5c-0.8,0.4-1.7,0.8-1.7,2
	c0.1,4.1,0,8.2,0,12.2c0,0.9,0.3,1.2,1.3,1.1c1.7-0.3,3.4-0.2,5,0.1c6,1.4,9.7,7.4,8.3,13.4c-1.2,5.1-5.8,8.6-11,8.6
	c-0.9,0-1.8-0.1-2.6-0.2c-0.7-0.1-0.9,0.2-0.9,0.8s0,1.3,0,1.9L611.9,380.3z"/>
<path class="st6" d="M308.4,293.4L308.4,293.4c0-2.6,0-5.3,0-7.9c0-1.2-0.3-2.4-0.8-3.5c-1.3-2.9-2.6-5.9-3.8-8.8
	c-3-7.1-6-14.1-10.2-20.6c-4.6-7.5-11.2-13.5-19-17.5c-9.6-4.7-19.8-6-30.3-6c-7.2,0.1-14.4,0.8-21.5,2.1
	c-9.5,1.7-18.7,4.1-27.4,8.4c-2,1-2,1-3.7-0.7s-3.4-3.4-5.1-5.1c-0.2-0.2-0.4-0.5-0.8-0.4s-0.3,0.5-0.3,0.8
	c-0.1,1.4-0.3,2.9-0.4,4.3c-0.2,2.8-0.6,3.1-3.2,2.4c-1.4-0.4-2.8-0.8-4.1-1.2c-0.4-0.1-0.8-0.4-1.1,0s0,0.7,0.2,1.1
	c1.1,2.4,2.1,4.8,3.2,7.2c0.6,1,0.4,2.3-0.5,3.1c-6.7,7.2-10.4,15.9-12.5,25.3s-2.9,19.1-4.1,28.7c-0.7,6.6-2,13.1-3.8,19.5
	c-1.1,3.7-2.6,7.2-4.5,10.6c-0.2,0.3-0.5,0.7-0.1,1c0.3,0.1,0.6,0.2,0.9,0.1c2.4-0.4,4.7-1,6.9-1.9c9.7-3.9,17.1-10.5,22.8-19.1
	c6.2-9.5,9.4-20.1,10.9-31.2c0.4-2.9,0.6-5.9,0.9-8.8c0.1-0.9,0.5-1.6,1.4-1.6c0.8,0,1.4,0.6,1.5,1.3c0.1,0.7,0.3,1.4,0.5,2.1
	c1.7,7.1,4.2,13.7,8.6,19.6c2.5,3.4,5.8,6.1,9.6,7.8c0.6,0.3,1.5,0.9,2,0.5s0-1.3-0.1-2c-1.4-5.5-2-11.2-1.7-16.9
	c0-0.9,0.1-1.8,1.1-2.2s1.6,0.4,2.1,1.1c9.6,11.7,22,16.8,37.1,15.4c3-0.3,6-0.9,8.9-1.8c0.4-0.1,0.9-0.1,1-0.5
	c0.2-0.6-0.5-0.7-0.9-0.9c-1.8-1.1-3.5-2.5-5.1-4c-4.9-4.9-8.4-10.9-11.1-17.2c-0.8-1.8-1.5-3.7-2.2-5.6c-0.4-0.7-0.1-1.5,0.5-1.9
	c0.7-0.4,1.6-0.3,2,0.4c0,0,0,0.1,0.1,0.1c0.3,0.3,0.5,0.6,0.7,1c2.9,3.9,6.3,7.3,10.3,10c10,7.2,21.2,10.2,33.4,9.7
	c0.4,0,0.8,0,1.2,0c0.8,0.1,1.3,0.7,1.3,1.5c0,0.7-0.5,1.3-1.2,1.3c0,0,0,0,0,0c-1,0.1-2.1,0.2-3.1,0.3c-0.8,0.1-0.9,0.5-0.5,1.1
	c2.9,4.7,6.6,8.4,12.2,9.8c1.6,0.4,1.7,0.3,1.7-1.3C308.5,299.4,308.4,296.4,308.4,293.4z"/>
<path class="st1" d="M611.9,289.7c0,7.6,0,15.2,0,22.8c0,0.8-0.5,2,0.4,2.4s1.6-0.5,2.3-1c7.1-4.4,13.2-10.2,18-17
	c2.5-3.4,4.8-7,6.9-10.6c0.4-0.7,0.9-1.4,1.9-1.2s1.2,1,1.3,1.8c0.8,5.7,3.4,10.9,7.2,15.2c9.7,11.2,22.1,16.8,36.7,17.9
	c1.5,0.1,1.5,0,1.4-1.7c-0.3-2.9-0.6-5.7-0.8-8.6c-0.6-6.7-0.1-13.4,1.3-20c0.2-0.8,0.4-1.5,0.7-2.3c0.3-0.6,1-0.9,1.6-0.7
	c0.6,0.1,1,0.6,1,1.2c0,0.5,0,1-0.1,1.4c-0.2,3.1,0.1,6.2,0.8,9.3c1.8,8.2,5.4,16,10.4,22.7c7.2,10,16.3,17.8,28.1,21.9
	c8.3,2.9,17.2,3.4,25.7,1.4c1.3-0.3,1.4-0.5,0.4-1.4c-1.5-1.5-2.7-3.2-3.7-5c-1.7-3.2-3.1-6.5-4.1-10c-2.3-7.2-4.4-14.5-6.7-21.8
	c-3.1-10.1-7.5-19.8-13-28.8c-16.7-26.4-47.8-33.6-67.6-30.2c-9.2,1.4-17.8,5.8-24.3,12.5c-1.1,1.1-2,2.3-3,3.4s-1.9,1.2-2.9-0.1
	c-0.5-0.8-1.1-1.6-1.7-2.3c-2.4-2.5-5.2-3.8-8.8-3.1c-3.3,0.7-5.7,2.7-8,5c-1,0.9-1.5,2.3-1.5,3.6
	C611.9,274.3,611.9,282,611.9,289.7z"/>
<path class="st6" d="M611.9,435.5c0,7.7,0,15.4,0,23c-0.2,1.5,0.6,3,2,3.6c21.4,12.8,44.2,16.7,68.5,11.1c11.3-2.7,22-7.5,31.5-14.3
	c1.4-0.8,2.2-2.3,2-3.9c-0.3-3.5-0.6-7-1-10.5c-0.9-7.5-2.6-14.8-5-21.9c-0.6-1.8-0.7-1.8-2.2-0.8c-5.1,3.1-10.5,5.6-16.2,7.4
	c-11.5,3.5-23.7,4.4-35.6,2.5c-16-2.4-30.1-8.8-42-20c-0.3-0.3-0.7-0.7-1.1-1s-0.9-0.4-0.9,0.3s0,1.3,0,1.9L611.9,435.5z"/>
<path class="st1" d="M308.4,437.3c0-5.7,0-11.4,0-17c0-0.5,0.2-1.1-0.4-1.2c-0.4-0.1-0.6,0.5-0.8,0.8c-6.2,10.9-15.5,17.9-27.1,22.2
	c-15,5.6-31.2,7.6-47.1,5.8c-10.6-1.1-20.5-5.7-28.3-13c-1.5-1.4-2.7-2.9-4.1-4.4c-1-1.1-1.1-1-1.6,0.4c0,0.1,0,0.2,0,0.2
	c-2.2,8.7-3.5,17.6-3.9,26.5c-0.1,1,0.4,1.9,1.2,2.4c4.5,3.3,9.2,6.1,14.2,8.5c31.6,15.2,69.1,10.7,96.2-11.4
	c1.1-0.9,1.8-2.2,1.7-3.7C308.4,448,308.4,442.6,308.4,437.3z"/>
<path class="st7" d="M171.2,371c0.1-3,0-5.9-0.2-8.9c0.1-0.9-0.5-1.7-1.4-1.8c-1.2-0.3-2.2-0.9-3.1-1.7c-1.6-1.2-1.6-1.2-2.3,0.6
	c-2.3,6.9-3.7,14.1-4.3,21.3c-2.1,28.2,9.2,55.8,30.5,74.5c0.5,0.4,1,1.4,1.7,1s0.3-1.3,0.4-2c0.6-8.9,2-17.6,4.4-26.2
	c0.3-1,0.6-1.9-0.1-2.9c-1.7-2.4-3.1-5-4.4-7.7c-0.5-1-1-1.2-2.1-0.8c-3.7,1.4-7.7,2.2-11.7,2.4c-2.2,0.2-4.3,0.1-6.5-0.3
	c-1.4-0.3-1.8-1.2-1.1-2.4c0.3-0.5,0.6-0.9,1-1.4c1.4-1.8,2.6-3.8,3.7-5.9c1-1.8,1.7-3.8,2.2-5.8c0.2-0.8,0-1.3-1-0.8
	c-0.8,0.4-1.6,0.7-2.4,1c-3.5,1.1-6.9,1-10-1.4c-1.7-1.3-1.8-2-0.5-3.8c2.3-3.2,3.9-6.8,4.9-10.6C170.4,382.2,171.2,376.6,171.2,371
	z"/>
<path class="st1" d="M754.6,411.3c0-0.7-0.6-1.1-1-1.6c-4.2-5.7-7.6-11.8-10.2-18.4c-0.8-2.1-1.6-4.4-2.3-6.5
	c-0.3-0.8-0.7-1.6-1.4-1.8s-0.9,1-1.1,1.5c-5.7,13.4-14,24.7-25.7,33.5c-1,0.5-1.3,1.7-0.8,2.7c0,0,0,0.1,0.1,0.1
	c1.3,3.5,2.4,7.1,3.3,10.8c0.2,0.9,0.5,1.7,0.6,2.6c0.2,1.2,0.8,1.2,1.6,0.7c0.3-0.1,0.6-0.3,0.9-0.4c9.8-4.4,19.1-9.8,27.8-16.1
	c2.5-1.8,5-3.8,7.3-5.8C754.1,412.3,754.4,411.9,754.6,411.3z"/>
<path class="st6" d="M179.1,415.9c3.3-0.1,6.6-0.8,9.8-2c1.6-0.6,1.6-0.6,1-2.2c-5.8-14.2-8.8-29.1-11.3-44.2
	c-0.4-2.3-0.7-4.6-1.1-6.9c-0.1-0.4-0.1-1.1-0.7-1c-0.9,0.3-1.8,0.7-2.6,1.2c-0.6,0.4-0.3,1.2-0.2,1.8c0.5,6.3,0.2,12.6-0.7,18.9
	c-0.7,5.7-2.5,11.3-5.4,16.3c-1.4,2.3-1.2,2.7,1.4,3.1c0.8,0.1,1.6,0.2,2.4,0.1c2.4-0.3,4.6-1.4,6.4-3c1.5-1.3,2.6-0.9,2.9,1.1
	c0.3,1.9,0.1,3.8-0.4,5.7c-0.9,3-2.2,5.9-3.8,8.5c-0.5,0.8-1.6,1.7-1.2,2.4s1.9,0.3,2.9,0.3C178.6,415.9,178.7,415.9,179.1,415.9z"
	/>
<path class="st5" d="M757.1,362.3c0.2-2.5,0.1-5-0.3-7.5c-0.3-1.7-0.8-3.3-1.6-4.7c-0.4-1.2-1.7-1.9-3-1.7c-1.4,0.3-2.9,0.3-4.3,0.4
	c-1.9,0.2-1.9,0.2-2,2.1c-0.3,8.8-1.8,17.5-4.4,26c-1,3.2,1.1,5.8,4.5,5.5c2.1-0.3,4-1.3,5.3-2.9c1.7-1.9,2.9-4,3.7-6.4
	C756.2,369.6,756.9,366,757.1,362.3z"/>
<path class="st5" d="M176.4,353.8c0-0.3-0.1-0.8-0.2-1.3c-0.8-6.3-1.7-12.7-2.5-19c-0.2-1.5-0.3-1.6-1.5-0.8c-3.1,2-6.4,3.6-9.8,4.9
	c-1.1,0.4-1.3,1-1.1,2c0.4,4.2,1.5,8.3,3.4,12.1c0.8,1.6,2,3.1,3.4,4.3c1.1,1,2.4,1.6,3.8,1.8c2.2,0.4,4.2-1.1,4.6-3.3
	C176.4,354.3,176.5,354,176.4,353.8z"/>
<path class="st7" d="M716.9,439.1c0.8,5.2,1.4,10.1,1.7,15c0,0.8,0.5,0.7,1,0.3c1.2-1,2.4-2.1,3.6-3.2c7.4-6.9,13.5-15,18.1-24
	c0.3-0.5,1-1.2,0.6-1.7s-1.1,0.3-1.6,0.6c-3.9,2.5-7.9,4.8-12,7c-3.2,1.7-6.6,3.3-9.9,4.8C717.6,438.1,716.8,438.4,716.9,439.1z"/>
<path class="st8" d="M611.9,344c0,2,0.1,4,0,6c-0.2,1,0.5,2,1.5,2.2c0,0,0.1,0,0.1,0c3.3,0.7,6.7-0.6,8.6-3.4c2-2.8,1.9-6.6-0.1-9.4
	c-2-2.7-5.4-4-8.7-3.2c-0.9,0.1-1.6,0.9-1.5,1.8c0,0,0,0,0,0C611.9,340,611.9,342,611.9,344z"/>
<path class="st7" d="M751.5,389.7c0-1.7,0-3.4,0-5c0-0.8-0.2-1.3-1.1-0.7c-1.5,0.8-3.1,1.3-4.8,1.4c-0.7,0.1-1,0.3-0.7,1
	c1.3,3.9,2.9,7.8,4.9,11.4c0.2,0.3,0.3,0.6,0.7,0.5s0.3-0.5,0.4-0.8C751.1,395,751.3,392.3,751.5,389.7z"/>
<path class="st1" d="M308.4,307.9c0-0.3-0.1-0.5-0.4-0.5c-0.1,0-0.2,0.3-0.2,0.3s0.2,0.5,0.3,0.5C308.6,308.4,308.4,308,308.4,307.9
	z"/>
<path class="st0" d="M892.3,547c0,0.6-0.3,1.1-0.9,1.3c-0.5,0.1-0.9,0.2-1.4,0.3c-6,0.2-10.9,2.9-14.9,7.3
	c-4.7,5.1-6.8,11.3-7.3,18.1c0,0.7-0.1,1.4-0.2,2.2c-0.1,0.7-0.8,1.1-1.5,1c-0.6,0-1.1-0.4-1.2-1c-0.1-0.6-0.1-1.1-0.1-1.7
	c-0.4-6.9-2.6-13.2-7.2-18.4c-4-4.5-8.9-7.2-15-7.5c-0.4,0-0.8-0.1-1.2-0.2c-0.7-0.1-1.1-0.7-1.1-1.4c-0.1-0.7,0.4-1.3,1.1-1.4
	c0.5-0.1,0.9-0.2,1.4-0.2c6-0.3,10.8-3.1,14.8-7.5c4.7-5.2,6.8-11.5,7.2-18.4c0-0.6,0-1.1,0.1-1.7c0.1-0.6,0.6-1,1.2-1
	c0.7-0.1,1.3,0.3,1.5,1c0.1,0.8,0.2,1.6,0.2,2.4c0.7,7.8,3.4,14.6,9.4,19.9c3.4,3.2,7.9,5.1,12.6,5.3c0.6,0,1.1,0.1,1.7,0.3
	C892,545.9,892.4,546.4,892.3,547z M866.4,529.2c-0.7,0.2-0.7,0.9-0.8,1.3c-2.8,7-7.3,12.5-14.2,15.8c-0.3,0.2-0.9,0.3-0.8,0.7
	s0.6,0.5,0.9,0.7c6.7,3.2,11.1,8.5,13.9,15.2c0.2,0.4,0.3,0.9,0.5,1.3c0.1,0.2,0.2,0.5,0.4,0.4s0.4-0.2,0.5-0.5s0.3-0.7,0.4-1.1
	c2.8-6.8,7.2-12.2,14-15.4c0.3-0.2,0.9-0.5,0.9-0.7c-0.1-0.5-0.7-0.6-1.1-0.8c-6.1-3.1-10.9-8.3-13.5-14.6c-0.3-0.6-0.4-1.2-0.7-1.8
	C866.8,529.6,866.6,529.4,866.4,529.2z"/>
<path class="st1" d="M619.7,133.4c-0.2,0.8-0.5,1.5-1,2.1c-10.1,17.4-20.2,34.9-30.3,52.3c-1.8,3-3.5,6.1-5.3,9.1
	c-1.3,2.2-2.3,2.2-3.6,0c-4.2-7.3-8.5-14.7-12.7-22c-0.9-1.6-0.9-2.4,0-2.9s1.6-0.1,2.5,1.5c3.3,5.7,6.5,11.3,9.8,17l1.5,2.5
	c0.4,0.6,0.8,0.8,1.2,0l1.5-2.5l32.8-56.6c0.3-0.6,0.6-1.1,1-1.6c0.4-0.5,1.2-0.7,1.7-0.3C619.4,132.2,619.7,132.8,619.7,133.4z"/>
<path class="st0" d="M295.3,96c-1,0-1.5-0.8-1.4-1.8c0-1.5-0.2-3-0.5-4.5c-1.7-6.6-5.3-11.6-12.1-13.6c-0.9-0.2-1.9-0.4-2.8-0.4
	c-1,0-1.8-0.3-1.9-1.4s0.7-1.5,1.7-1.5c8-0.1,15.1-7.7,15.7-17.7c0-0.6,0-1.1,0.2-1.7c0.2-0.7,0.8-1.1,1.5-1c0.7,0,1.2,0.5,1.3,1.2
	c0.1,1.2,0.2,2.4,0.4,3.6c0.4,2.9,1.4,5.6,3,8c2.8,4.3,6.7,7.1,11.9,7.5c1,0.1,2.3,0,2.3,1.5s-1.2,1.4-2.3,1.5
	c-7.2,0.8-11.4,5.2-13.9,11.6c-0.8,2.3-1.2,4.6-1.3,7C296.6,95.3,296.4,96,295.3,96z M305.4,74.3c0.1-0.3,0.1-0.3-0.5-0.7
	c-3.9-2.2-7.1-5.6-8.8-9.8c-0.2-0.3-0.2-0.9-0.7-0.9s-0.5,0.5-0.7,0.9c-1.3,3-3.3,5.7-5.9,7.7c-1.1,0.9-2.3,1.7-3.5,2.5
	c0.9,1.2,2.4,1.7,3.6,2.7c2.5,2.1,4.5,4.8,5.8,7.8c0.2,0.4,0.3,0.8,0.7,0.8c0.2,0,0.4-0.4,0.5-0.7c1.8-4.2,5-7.7,9-9.9
	C305.1,74.6,305.2,74.5,305.4,74.3z"/>
<path class="st0" d="M641.5,82.5c-0.7,0-1.3-0.6-1.3-1.4c-0.1-1.1-0.1-2.2-0.3-3.3c-1.1-6.2-4-11.1-9.7-14c-1.6-0.7-3.3-1.2-5.1-1.3
	c-1-0.1-2-0.2-1.9-1.5c0.1-1.1,0.9-1.4,1.9-1.4c7-0.1,13.5-6.5,14.8-14.9c0.2-1.1,0.2-2.2,0.3-3.3c0.1-0.9,0.4-1.6,1.4-1.6
	s1.4,0.7,1.4,1.6c0,1.6,0.2,3.2,0.6,4.8c1.3,5,3.8,9.1,8.4,11.7c1.7,1,3.7,1.6,5.7,1.8c0.5,0,1,0.1,1.4,0.2c0.7,0.2,1.1,0.8,1,1.5
	c0,0.6-0.4,1.1-1,1.2c-0.3,0.1-0.6,0.1-1,0.1c-7.6,0.5-12.8,6.6-14.5,13.4c-0.4,1.6-0.6,3.1-0.6,4.7C643,81.9,642.4,82.5,641.5,82.5
	z M651.3,61.2c-0.1-0.5-0.5-0.7-0.8-0.9c-3.7-2.2-6.6-5.4-8.3-9.3c-0.2-0.4-0.3-0.8-0.8-0.8c-0.2,0-0.4,0.5-0.5,0.8
	c-1.7,4-4.7,7.3-8.5,9.5c-0.8,0.4-0.9,0.8,0,1.3c3.8,2.2,6.7,5.5,8.5,9.5c0.1,0.3,0.3,0.7,0.5,0.7s0.5-0.3,0.6-0.6
	c1.7-4.1,4.8-7.5,8.6-9.6C651,61.5,651.2,61.4,651.3,61.2z"/>
<path class="st0" d="M867.8,372.3c0,0.7-0.5,1.2-1.2,1.3c-0.8,0.1-1.6,0.3-2.3,0.5c-3,1.3-4.4,3.8-5,6.9c-0.1,0.5-0.1,1.1-0.2,1.7
	c-0.1,0.6-0.6,1-1.2,1c-0.7,0.1-1.3-0.3-1.5-1c-0.2-0.5-0.1-1.1-0.2-1.7c-0.7-3.9-2.6-6.7-6.8-7.3c-0.8-0.1-1.6-0.3-1.7-1.4
	s0.8-1.4,1.7-1.6c4-0.8,6.2-3.2,6.8-7.5c0.2-1,0-2.2,1.4-2.4c0.9-0.1,1.4,0.6,1.6,2.5c0.2,1.4,0.6,2.7,1.3,3.8c1.1,2,3,3.4,5.3,3.7
	C867.3,370.9,867.8,371.4,867.8,372.3z M857.8,368.7c-0.1,0.1-0.3,0.1-0.4,0.2c-0.7,1-1.6,2-2.6,2.8c-0.2,0.1-0.3,0.5-0.3,0.6
	c1,1.1,2,2.3,3,3.4c0,0,0.2,0.1,0.2,0l3.2-3.6c-1-1.1-2-2.2-3-3.3C857.9,368.7,857.8,368.7,857.8,368.7L857.8,368.7z"/>
<path class="st0" d="M54.7,463.6c0.1,0.8-0.5,1.4-1.3,1.5c0,0-0.1,0-0.1,0c-1.4,0.1-2.7,0.6-3.8,1.4c-1.7,1.3-2.8,3.1-3.1,5.2
	c-0.1,0.7-0.2,1.4-0.4,2.1c0,0.7-0.6,1.2-1.2,1.2c-0.8,0.1-1.4-0.4-1.5-1.2c-0.1-0.4-0.1-0.8-0.1-1.2c-0.5-4.1-2.7-6.7-6.8-7.6
	c-1-0.2-1.8-0.5-1.7-1.6s0.8-1.3,1.7-1.4c3.9-0.2,6.5-4,6.9-7.5c0-0.3,0-0.6,0-1c0.1-0.9,0.5-1.5,1.5-1.5s1.3,0.6,1.4,1.4
	c0.1,0.7,0.2,1.4,0.4,2.1c0.9,3.5,2.8,5.9,6.5,6.4C54,462.3,54.7,462.6,54.7,463.6z M44.6,467.2c0.4,0,0.5-0.2,0.6-0.3
	c0.9-1.1,1.8-2.2,2.7-3.2c-0.8-1-1.7-1.9-2.5-2.9c-0.5-0.6-0.8-0.9-1.4-0.1c-0.8,1-2.4,2-2.3,3s1.6,2,2.4,3
	C44.3,466.9,44.5,467,44.6,467.2L44.6,467.2z"/>
<path class="st1" d="M371.7,256.4H387c3.3,0,2.7,0.2,3.1-2.8c0.7-6.1,1.7-12.1,3.1-18c1.5-6.5,3.8-12.7,6.9-18.6
	c6.4-11.9,16.2-19.5,29.1-23.4c7.2-2.1,14.7-3.3,22.2-3.6c10.7-0.7,21.5,0,32,2.1c10.3,2.2,19.6,6.4,27,14.1
	c5.8,6,9.7,13.3,12.4,21.1c2.9,8.8,4.9,17.9,5.7,27.2c0.4,3.9,0.7,7.8,1,11.7c0.1,1.1,0.3,1.3,1.5,1c4.5-1.5,8.4-0.1,11.3,4
	c1.9,2.8,3.2,5.9,3.7,9.3c1.2,6.2,1,12.6-0.6,18.8c-0.7,3.3-2.5,6.3-4.9,8.6c-1,0.9-0.5,1.5,0,2.3c2.9,5.2,5.4,10.7,7.2,16.4
	c10.6,32.4,2.6,68-20.8,92.7c-14.6,15.4-32.4,25-53.3,28c-30,4.3-56.4-3.9-78.5-24.7c-14.8-13.7-24.5-32.1-27.5-52.1
	c-3.5-20.5,0.1-41.5,10.1-59.6c0.3-0.5,0.5-1,0.8-1.5c0.4-0.4,0.3-1-0.1-1.4c0,0,0,0-0.1-0.1c-4.5-4.2-5.8-9.8-6.2-15.6
	c-0.5-4.8-0.1-9.6,1-14.3c0.7-3.1,2.3-6,4.6-8.3c2.9-2.8,6.2-4,10.1-2.4c1,0.4,1.3,0.1,1.4-0.8c0.1-1.9,0.2-3.8,0.3-5.8
	c0.1-1.1-0.5-1.4-1.4-1.4c-0.6,0-1.1,0-1.7,0h-30.2c-0.7,0-1.4,0-2.2-0.1c-0.7-0.1-1.2-0.9-1.1-1.6c0.1-0.6,0.5-1,1.1-1.1
	c0.6-0.1,1.3-0.1,1.9-0.1L371.7,256.4z"/>
<path class="st5" d="M459.2,259.2H411c-3.2,0-2.9-0.2-2.9,3v55.9c0.1,3.1-0.2,6.2-1,9.3c-2.1,7-6.2,12.2-13.2,14.8
	c-0.9,0.3-0.8,0.9-0.7,1.5c0.3,2.3,0.6,4.6,0.9,6.9c1,7.9,3,15.6,5.7,23c2.7,7.5,7.1,14.4,12.9,20c7.7,7.3,17.1,11.1,27.3,13
	c7.5,1.3,15.1,1.9,22.7,1.6c6.9-0.1,13.7-1,20.4-2.6c15.1-3.8,26.3-12.3,33.3-26.3c4.1-8.3,6.3-17,7.8-26.1c0.5-3.1,0.9-6.3,1.3-9.5
	c0.1-0.6,0.3-1.2-0.6-1.5c-5-1.5-8.5-5-11.1-9.3c-2.3-4-3.5-8.7-3.3-13.3c0-19,0-38.1,0-57.1c0-0.6,0-1.3,0-1.9
	c0-0.9-0.3-1.4-1.3-1.3c-0.6,0-1.3,0-1.9,0L459.2,259.2z"/>
<path class="st9" d="M459.1,256.4h63.1c0.6,0,1.3,0,1.9,0c1.5-0.1,1.6-0.2,1.4-1.7c-0.3-2.2-0.6-4.4-0.9-6.6
	c-1.2-8.5-3.4-16.8-6.7-24.7c-5.8-13.3-15.4-22.4-29.3-26.8c-5.4-1.7-11-2.8-16.7-3.2c-12.2-1.1-24.4-0.9-36.5,1.6
	c-17.8,3.7-30,13.9-36.3,31c-3.2,9-5.3,18.3-6.2,27.8c-0.3,2.7-0.3,2.7,2.5,2.7H459.1z"/>
<path class="st9" d="M460.8,445.4c2.6-0.2,5.1-0.3,7.5-0.5c1.3-0.1,2.7-0.3,4-0.5c18.5-2.8,35.7-11.2,49.2-24.1
	c1.1-0.9,1.5-2.3,1.1-3.6c-1.2-5.5-2.5-10.9-4.2-16.2c-1.1-3.5-2.5-6.9-3.9-10.3c-0.3-0.8-0.8-0.9-1.3-0.2l-0.5,0.6
	c-6.7,8.4-15.4,13.8-25.6,17c-9.3,2.9-18.8,3.7-28.4,3.7c-7.4,0.1-14.7-0.7-21.9-2.3c-12.5-2.9-23.3-8.6-31.3-19
	c-1.1-1.5-1.2-1.5-1.9,0.1c-3.7,8.7-6.4,17.7-8.1,27c-0.2,1,0.1,2.1,0.9,2.7C413.6,436.5,436.7,445.7,460.8,445.4L460.8,445.4z"/>
<path class="st7" d="M369.2,355.3c0,1.8-0.1,3.5,0,5.3s0.2,3.5,0.5,5.3c2.1,17.8,9.5,34.6,21.3,48.2c0.3,0.4,0.6,0.7,1,1.1
	c0.5,0.5,0.8,0.3,1-0.3s0.2-0.9,0.3-1.4c1.8-9.1,4.7-18,8.5-26.4c0.5-1,0.4-2.2-0.2-3.1c-3-5.3-5.3-10.9-6.9-16.8
	c-3.8-13.2-5-26.9-5.6-40.5c-0.3-5.3-0.2-10.5-0.3-15.8c0-1.6-0.1-1.7-1.6-1.1c-1.1,0.5-2.3,0.6-3.5,0.3c-1.8-0.5-2.5,0.5-3.3,1.8
	C372.9,325.2,369.1,340.1,369.2,355.3z"/>
<path class="st7" d="M549.2,355.1c0-6.2-0.7-12.5-2-18.6c-1.9-8.7-5-17.1-9.3-24.9c-0.7-1.3-1.5-1.9-3-1.6c-1.2,0.2-2.4,0-3.5-0.4
	c-1.4-0.5-1.4-0.5-1.5,1c0,0.5,0,1,0,1.4c0.1,12.9-0.7,25.7-2.5,38.5c-1.8,12-4.6,23.7-10.9,34.3c-0.5,0.7-0.6,1.7-0.2,2.4
	c3.9,8.7,6.8,17.8,8.7,27.1c0.1,0.4,0,0.9,0.4,1c0.6,0.3,0.8-0.3,1.1-0.6c0.3-0.3,0.7-0.7,1-1.1C541.9,396.8,549,377.2,549.2,355.1z
	"/>
<path class="st1" d="M526.9,298.6c0-7.8,0.1-15.5,0-23.3c-0.1-4.8-0.1-9.6-0.7-14.4c-0.2-1.7-0.2-1.7-1.9-1.7c-3,0-6.1,0-9.1,0
	c-1.8,0-1.8,0-1.8,1.9c0,1.4,0,2.9,0,4.3c0,17.9,0,35.8,0,53.7c0,5.9,1.4,11.2,5.5,15.6c1.6,1.8,3.6,3.2,5.8,4.3
	c0.9,0.5,1.3,0.1,1.5-0.8c0-0.2,0-0.5,0-0.7c0.3-4.9,0.6-9.7,0.8-14.6C527.3,314.9,527,306.7,526.9,298.6z"/>
<path class="st1" d="M391.5,299c-0.5,4.6,0,10.3,0,15.9c0,7.6,0.3,15.2,1,22.7c0.2,1.8,0.4,2,2,1.1c4.3-2.3,7.6-6.1,9.1-10.7
	c1.1-3.2,1.6-6.5,1.5-9.9c0-18.7,0-37.4,0-56.1c0-0.4,0-0.8,0-1.2c0.1-1.2-0.4-1.7-1.7-1.7c-3.1,0.1-6.2,0.1-9.3,0
	c-1.4,0-1.8,0.6-1.9,1.8c-0.1,2.6-0.3,5.1-0.4,7.7C391.5,278.5,391.6,288.2,391.5,299z"/>
<path class="st5" d="M388.6,287.7c0-0.8,0.1-1.6,0.1-2.4c0-3.8,0.2-7.7,0.1-11.5c0-3.4-2.7-5.1-5.9-4.1c-1.1,0.3-2,0.9-2.9,1.7
	c-2.1,2-3.5,4.6-4.2,7.4c-1.3,5.2-1.5,10.6-0.7,15.9c0.3,3.1,1.4,6.1,3.1,8.7c1,1.6,2.5,2.8,4.2,3.5c2.2,1,4.8,0,5.7-2.2
	c0.2-0.5,0.4-1.1,0.4-1.7C388.7,297.9,388.5,292.8,388.6,287.7z"/>
<path class="st5" d="M529.8,287.7h0.2c0,4.4,0,8.8,0,13.2c0,1,0,1.9,0.2,2.9c0.3,2.3,2.4,3.8,4.6,3.5c0.3,0,0.7-0.1,1-0.2
	c1.5-0.5,2.7-1.4,3.7-2.6c1.3-1.6,2.3-3.5,2.8-5.5c2-6.8,2-14,0.1-20.8c-0.5-1.8-1.2-3.5-2.3-5c-1-1.5-2.3-2.6-4-3.4
	c-3.5-1.5-6.6,0.9-6.4,4.2C530,278.6,529.8,283.1,529.8,287.7z"/>
<path class="st1" d="M460.1,476.7h-100H358c-0.7,0.1-1.3-0.4-1.3-1.1c0,0,0,0,0,0c-0.2-0.7,0.3-1.5,1.1-1.6c0.3-0.1,0.6-0.1,1-0.1
	c0.6,0,1.1,0,1.7,0h201.5c1,0,1.8,0.3,1.8,1.5s-0.8,1.4-1.8,1.4L460.1,476.7L460.1,476.7z"/>
<path class="st1" d="M412.8,499.2h52.8h2.2c0.7,0,1.2,0.5,1.3,1.1c0,0,0,0,0,0c0.1,0.7-0.3,1.4-1,1.6c0,0-0.1,0-0.1,0
	c-0.6,0.1-1.3,0.1-1.9,0.1H360.3c-0.8,0-1.6,0-2.4-0.1c-0.7,0-1.3-0.6-1.3-1.4c0,0,0-0.1,0-0.1c-0.1-0.7,0.4-1.3,1.1-1.3
	c0.1,0,0.2,0,0.3,0c0.7,0,1.4,0,2.2,0L412.8,499.2z"/>
<path class="st1" d="M528.4,499.2h31.9h1.9c0.7-0.1,1.3,0.4,1.3,1.1c0,0,0,0,0,0c0.2,0.7-0.3,1.4-1,1.6c0,0-0.1,0-0.1,0
	c-0.5,0.1-1.1,0.1-1.7,0.1h-65c-0.6,0-1.1,0-1.7-0.1c-0.7-0.1-1.2-0.8-1.1-1.5c0,0,0,0,0-0.1c0-0.7,0.6-1.2,1.3-1.1h1.9H528.4z"/>
<path class="st1" d="M742.8,545.2l-11.5-1.6L698,539c-7-1-13.9-2-20.9-2.9c-1.9-0.3-2.4-0.8-2.3-1.8s0.8-1.3,2.7-1.1l56.9,7.9
	c2.9,0.4,5.8,0.9,8.8,1.3c0.9,0.1,1.6,0.6,1.5,1.5c-0.1,1.1-0.9,1.4-1.9,1.3L742.8,545.2z"/>
<path class="st1" d="M170.1,546.7c-0.9,0.1-1.6-0.2-1.8-1.2s0.5-1.5,1.6-1.7c3-0.4,6-0.9,9-1.3c12.3-1.7,24.5-3.5,36.8-5.2
	c11.9-1.7,23.7-3.3,35.6-5l25.1-3.5c0.5-0.1,1.1-0.2,1.7-0.2c0.7-0.1,1.5,0.3,1.6,1.1c0,0.1,0,0.2,0,0.2c0.1,0.7-0.4,1.4-1.1,1.5
	c0,0-0.1,0-0.1,0c-1.6,0.3-3.2,0.5-4.7,0.8c-11.9,1.7-23.9,3.3-35.8,5l-39.1,5.5l-27.8,3.9C170.8,546.6,170.4,546.6,170.1,546.7z"/>
<path class="st1" d="M240.3,362.1c-15.2-0.4-27.2-7.4-36.1-19.9c-1.4-1.9-0.9-2.9,1.5-3.2c9.3-1.3,18.5-2.6,27.8-3.9l29.4-4.1
	c5.8-0.8,11.5-1.6,17.3-2.4c2.2-0.3,2.8,0.5,2.1,2.6c-5.8,15.5-16.3,26-32.6,29.9c-1.4,0.3-2.8,0.6-4.3,0.7
	C243.8,362,242.2,362,240.3,362.1z"/>
<path class="st7" d="M240.3,359.2c3.1,0,6.2-0.3,9.3-1.1c13.7-3.4,23-12.1,28.7-24.7c0.7-1.5,0.5-1.6-1.1-1.4
	c-6.7,0.9-13.3,1.8-20,2.8l-32.7,4.6c-5.1,0.7-10.1,1.4-15.2,2.2c-1.6,0.2-1.7,0.5-0.7,1.7C216.8,353.2,227.2,358.8,240.3,359.2z"/>
<path class="st1" d="M238.1,328.2c-2.3-0.1-4.6-0.5-6.8-1.1c-0.5-0.1-0.9-0.3-1.3-0.5c-0.7-0.4-1-1.2-0.6-1.9
	c0.3-0.5,0.8-0.8,1.4-0.7c0.5,0.1,0.9,0.2,1.4,0.3c6.1,1.8,12.7,0.9,18.2-2.4c0.4-0.3,0.8-0.5,1.3-0.7c0.7-0.3,1.5-0.3,1.9,0.5
	c0.4,0.7,0.2,1.5-0.5,1.9c-0.4,0.3-0.8,0.6-1.2,0.8C247.6,326.9,242.9,328.2,238.1,328.2z"/>
<path class="st1" d="M267.7,311.6c0,2.5-1.9,4.5-4.4,4.6c-2.5,0-4.5-1.9-4.6-4.4c0-2.4,1.8-4.4,4.3-4.6c2.5-0.1,4.6,1.8,4.7,4.3
	C267.7,311.5,267.7,311.6,267.7,311.6z"/>
<path class="st1" d="M217,322.6c-2.3,0.1-4.3-1.7-4.4-4.1c0-0.1,0-0.2,0-0.3c0-2.4,1.9-4.4,4.3-4.5c0,0,0,0,0.1,0
	c2.5-0.1,4.5,1.9,4.6,4.3c0,0.1,0,0.1,0,0.2c0,2.4-1.9,4.3-4.3,4.3C217.2,322.6,217.1,322.6,217,322.6z"/>
<path class="st1" d="M667.7,365c-8.6-0.4-15.8-4.6-20.4-13.2c-0.1-0.2-0.2-0.4-0.3-0.6c-0.4-0.8-0.8-1.7-0.1-2.5s1.4-0.5,2.2-0.3
	c12.1,1.7,24.2,3.4,36.3,5.1c0.5,0,0.9,0.2,1.4,0.3c0.7,0.1,1.2,0.9,1,1.6c0,0.2-0.1,0.4-0.2,0.5c-0.4,0.6-0.8,1.2-1.3,1.7
	C681.5,362.4,675.6,364.9,667.7,365z"/>
<path class="st7" d="M668.1,362.1c5.2,0.2,10.2-1.6,14.2-4.9c0.3-0.2,0.7-0.5,0.5-0.9c-0.1-0.2-0.5-0.3-0.8-0.4
	c-0.5-0.1-1.1-0.2-1.7-0.2l-11.8-1.7c-5.1-0.7-10.3-1.5-15.4-2.1c-0.7-0.1-1.6-0.6-1.9,0.1s0.5,1.3,0.9,1.8
	C655.8,358.9,661.7,361.9,668.1,362.1z"/>
<path class="st1" d="M719.1,347.6c6.2-0.1,11.3,4.8,11.4,11c0.1,6.2-4.8,11.3-11,11.4c-6.2,0.1-11.3-4.8-11.4-11c0,0,0-0.1,0-0.1
	C708.1,352.7,713,347.7,719.1,347.6z"/>
<path class="st8" d="M727.5,358.8c0-4.6-3.6-8.3-8.2-8.3c-4.6,0-8.3,3.6-8.3,8.2l0,0c-0.1,4.5,3.6,8.3,8.1,8.3c0,0,0,0,0.1,0
	C723.7,367,727.4,363.4,727.5,358.8z"/>
<path class="st1" d="M667.4,376c-4.7,0-9.2-1.3-13.2-3.8c-0.5-0.3-0.9-0.6-1.4-1c-0.6-0.4-0.8-1.3-0.4-2c0,0,0.1-0.1,0.1-0.1
	c0.5-0.6,1.3-0.7,1.9-0.3c0,0,0,0,0.1,0c0.3,0.2,0.7,0.5,1,0.7c5.4,3.5,12,4.4,18.1,2.5c1.8-0.5,2.5-0.4,2.9,0.5s-0.2,1.7-2.1,2.3
	C672.3,375.6,669.9,376,667.4,376z"/>
<path class="st1" d="M682.5,333.9c0-2.4,2-4.4,4.5-4.4c2.4,0,4.4,2,4.4,4.5c0,2.4-1.9,4.3-4.3,4.4c-2.4,0.1-4.4-1.7-4.5-4.1
	C682.5,334.1,682.5,334,682.5,333.9z"/>
<path class="st1" d="M653.3,324.8c2.3-0.1,4.3,1.7,4.4,4c0,0.1,0,0.2,0,0.4c0.1,2.4-1.7,4.4-4.1,4.5c-0.2,0-0.3,0-0.5,0
	c-2.4,0-4.3-2-4.3-4.4c0,0,0-0.1,0-0.1c0-2.3,1.8-4.3,4.2-4.3C653.1,324.8,653.2,324.8,653.3,324.8z"/>
<path class="st1" d="M670.4,342.9c-2.6,0.1-5.1-0.6-7.3-2.1c-0.5-0.3-0.9-0.7-1.2-1.1c-0.3-0.5-0.2-1.1,0.2-1.6
	c0.4-0.5,1-0.6,1.5-0.4c0.2,0.1,0.4,0.2,0.6,0.3c2.7,2,6.2,2.5,9.4,1.4c0.9-0.3,1.8-0.3,2.2,0.8c0.3,0.9-0.2,1.6-1.4,2.1
	C673.2,342.7,671.8,342.9,670.4,342.9z"/>
<path class="st1" d="M460.8,299.7c9.9-0.5,18.5-3,26-8.6c0.5-0.3,0.9-0.7,1.3-1c0.9-0.4,1.3-1.5,0.8-2.4c-0.6-1.8-0.3-2.6,0.6-2.9
	s1.4,0.2,2.1,2c1.8,4.7,5.2,7,10.2,6.5c0.2,0,0.3,0,0.5-0.1c1.5-0.1,2.1,0.2,2.2,1.2c0,1.3-0.9,1.5-1.9,1.7s-2.4-0.4-3.1,0.8
	c-0.4,1-0.6,2-0.7,3c-1.7,8.6-5.9,16.5-12,22.8c-14.4,14.2-37.3,15.1-52.8,2c-7.8-6.7-12.2-15.3-14.3-25.1c-0.1-0.3-0.1-0.6-0.2-1
	c-0.5-2.1-0.5-2.1-2.7-2.4c-0.7,0-1.4-0.1-2.1-0.5c-0.6-0.3-0.9-1-0.7-1.6c0.1-0.6,0.7-1,1.3-0.9c0.6,0,1.1,0.1,1.7,0.1
	c4.3,0.5,8.4-2,9.8-6.1c0.2-0.5,0.3-1.1,0.6-1.6c0.2-0.6,0.9-1,1.5-0.9c0.7,0.1,1.3,0.8,1.2,1.6c0,0.2,0,0.3-0.1,0.5
	c-1.3,2.1,0.2,3.1,1.7,4.2c6.7,5,14.7,7.9,23.1,8.5C456.6,299.8,458.7,299.9,460.8,299.7z"/>
<path class="st7" d="M496.4,296.5c0.1-0.5-0.2-0.9-0.9-1.2c-1.4-0.6-2.7-1.4-3.7-2.6c-0.9-1.1-1.5-0.7-2.3,0c-9,7.1-19.4,10-30.6,10
	s-21.5-3-30.3-10.2c-0.8-0.6-1.3-0.7-2,0.1c-1,1.2-2.2,2.1-3.7,2.6c-1,0.4-1.1,1.1-0.9,2.1c1,5.3,2.8,10.3,5.4,15
	c1.4,2.5,1.4,2.5,4.2,1.5c10.1-3.6,22.7-0.1,27,8.9c0.6,1.3,1,0.4,1.3-0.2c2.7-4.8,7.3-8.3,12.7-9.4c5-1.2,10.3-0.9,15.1,1
	c1.7,0.6,1.7,0.7,2.6-0.8c0.9-1.4,1.6-2.9,2.4-4.4C494.5,305,495.8,300.8,496.4,296.5z"/>
<path class="st8" d="M462.8,330.9c9.2-0.9,17.7-5.3,23.7-12.3c1-1.1,0.9-1.3-0.4-1.8c-7-2.4-13.7-1.8-19.7,2.7
	c-3.2,2.4-5.1,6-5.5,10C460.7,330.8,460.9,331,462.8,330.9z"/>
<path class="st8" d="M440.3,315.4c-2.6,0-5.3,0.4-7.8,1.3c-1.6,0.6-1.7,0.7-0.5,2c6,7,14.5,11.3,23.7,12.2c1.9,0.2,2,0,1.8-1.9
	c-0.5-4.1-2.8-7.8-6.2-10.1C448,316.6,444.2,315.4,440.3,315.4z"/>
<path class="st1" d="M458.2,286.4c-3.6-0.1-7.1-1-10.3-2.6c-0.3-0.1-0.6-0.3-0.8-0.5c-0.6-0.4-0.7-1.1-0.5-1.7
	c0.2-0.6,0.9-1,1.6-0.8c0.5,0.1,1.1,0.3,1.6,0.6c6,2.7,13,2.7,19,0c0.4-0.2,0.9-0.4,1.3-0.5c0.6-0.2,1.3,0.1,1.6,0.7
	c0.4,0.7,0.1,1.5-0.5,1.9c-0.5,0.3-1,0.5-1.5,0.7C466.5,285.6,463.2,286.2,458.2,286.4z"/>
<path class="st1" d="M434.5,269.6c2.6,0.1,4.9,1.6,6,3.9c0.5,0.8,0.7,1.7-0.2,2.3c-0.7,0.6-1.5,0.2-2.3-0.9c-2.5-3.4-5.7-3.4-8.1,0
	c-0.1,0.1-0.2,0.3-0.2,0.4c-0.4,0.7-1.2,0.9-1.9,0.6c-0.1,0-0.1-0.1-0.2-0.1c-0.7-0.4-0.7-1.1-0.4-1.9
	C428,271.5,430.9,269.6,434.5,269.6z"/>
<path class="st1" d="M484.2,269.6c2.9-0.1,5.6,1.4,6.9,4c0.5,0.9,0.6,1.7-0.3,2.3s-1.7,0.1-2.2-0.8c-0.7-1.4-2-2.4-3.5-2.5
	c-1.6-0.3-3.3,0.4-4.2,1.8c-0.2,0.3-0.4,0.7-0.6,1c-0.4,0.7-1.2,1-1.9,0.6c-0.1,0-0.1-0.1-0.2-0.1c-0.7-0.4-0.9-1.3-0.5-1.9
	c0.8-2.1,2.7-3.7,4.9-4.2C483.1,269.7,483.7,269.6,484.2,269.6z"/>
</svg>
